<svg width="70" height="60" viewBox="0 0 70 60" fill="none" xmlns="http://www.w3.org/2000/svg">
<path d="M52.1052 0C43.8662 14.2125 39.3141 21.3 34.7243 21.3C30.1345 21.3 25.5824 14.2125 17.381 0C25.5824 14.2125 29.495 21.7125 27.2001 25.65C24.9052 29.5875 16.4404 30 0 30C17.0424 30 25.5071 30.4125 27.4258 34.7625C29.2316 38.8125 25.319 46.275 17.381 60C25.62 45.7875 30.1721 38.7 34.7619 38.7C39.3517 38.7 43.9038 45.7875 52.1429 60C43.4148 44.8875 39.5774 37.3875 42.8128 33.6375C45.672 30.3375 54.0992 30 69.5238 30C52.1429 30 43.6781 29.55 41.9852 24.9375C40.4427 20.8125 44.3553 13.3875 52.1052 0Z" fill="url(#paint0_radial_0_153)"/>
<defs>
<radialGradient id="paint0_radial_0_153" cx="0" cy="0" r="1" gradientUnits="userSpaceOnUse" gradientTransform="translate(96.9792 -22.5806) rotate(139.205) scale(156.49 154.807)">
<stop stop-color="#E4B22F"/>
<stop offset="1" stop-color="#F249BB"/>
</radialGradient>
</defs>
</svg>
