<svg width="61" height="60" viewBox="0 0 61 60" fill="none" xmlns="http://www.w3.org/2000/svg">
<path d="M2.41317 18.5793L25.8428 28.2841L3.86979 15.598L4.20392 15.0193L26.168 27.7002L6.03812 12.2541L6.44492 11.7239L26.5643 27.162L8.62388 9.22162L9.09641 8.7491L27.0287 26.6813L11.5834 6.55272L12.1136 6.14591L27.5535 26.2676L14.8663 4.29278L15.445 3.95865L28.1257 25.9222L18.4159 2.48059L19.0333 2.22486L28.7383 25.6549L22.1715 1.14732L22.817 0.974359L29.3805 25.4695L26.0689 0.315819L26.7314 0.228594L30.042 25.3751L30.042 0H30.7103L30.7103 25.3608L34.022 0.20545L34.6846 0.292674L31.3745 25.435L37.941 0.928657L38.5865 1.10161L32.0227 25.5979L41.7322 2.15719L42.3496 2.41292L32.6437 25.8448L45.3308 3.87028L45.9095 4.20441L33.2293 26.1671L48.6747 6.03822L49.2049 6.44502L33.7668 26.5644L51.7072 8.62398L52.1797 9.0965L34.2475 27.0288L54.3761 11.5835L54.7829 12.1137L34.6615 27.5534L56.6363 14.8662L56.9704 15.4449L35.0065 28.1258L58.4484 18.4159L58.7041 19.0333L35.2748 28.738L59.7817 22.1714L59.9547 22.8168L35.4578 29.3808L60.6132 26.069L60.7004 26.7315L35.5565 30.0418L60.9289 30.0418V30.71L35.5678 30.71L60.7235 34.0219L60.6363 34.6844L35.4932 31.3742L60.0003 37.9409L59.8273 38.5864L35.3294 32.0222L58.7714 41.7322L58.5157 42.3496L35.0879 32.6454L57.0591 45.3305L56.7249 45.9092L34.7601 33.2279L54.8907 48.6746L54.4839 49.2048L34.3641 33.7663L52.305 51.7071L51.8325 52.1797L33.9004 34.2476L49.3456 54.3762L48.8155 54.783L33.3753 34.661L46.0625 56.6359L45.4838 56.9701L32.8033 35.0068L42.513 58.448L41.8956 58.7037L32.1905 35.2737L38.7573 59.7813L38.1119 59.9543L30.556 31.7554L22.9879 60L22.3424 59.827L28.9062 35.3306L19.1967 58.7714L18.5793 58.5157L28.2848 35.0845L15.5981 57.0585L15.0194 56.7244L27.6995 34.7619L12.2541 54.8906L11.7239 54.4838L27.1626 34.3638L9.22167 52.3047L8.74915 51.8322L26.6816 33.8997L6.55277 49.3451L6.14596 48.815L26.2666 33.3759L4.29258 46.0626L3.95846 45.4839L25.922 32.8032L2.4805 42.513L2.22477 41.8956L25.655 32.1905L1.14712 38.7573L0.974163 38.1119L25.4711 31.5479L0.315672 34.8597L0.228448 34.1972L25.3719 30.887L0 30.887V30.2187L25.3611 30.2187L0.205352 26.9069L0.292576 26.2444L25.4364 29.5546L0.928559 22.9878L1.10152 22.3423L25.5984 28.9062L2.15744 19.1966L2.41317 18.5793Z" fill="url(#paint0_radial_0_167)"/>
<defs>
<radialGradient id="paint0_radial_0_167" cx="0" cy="0" r="1" gradientUnits="userSpaceOnUse" gradientTransform="translate(84.99 -22.5806) rotate(135.44) scale(145.717 145.699)">
<stop stop-color="#E4B22F"/>
<stop offset="1" stop-color="#F249BB"/>
</radialGradient>
</defs>
</svg>
