<svg width="110" height="29" viewBox="0 0 110 29" fill="none" xmlns="http://www.w3.org/2000/svg">
<path fill-rule="evenodd" clip-rule="evenodd" d="M5.5552 0C2.48736 0 0 2.48715 0 5.5552V22.2208C0 25.2888 2.48736 27.776 5.5552 27.776H27.776V5.5552C27.776 2.48715 25.2886 0 22.2208 0H5.5552ZM15.7732 12.0025L13.888 2.7776L12.0028 12.0025L2.7776 13.888L12.0028 15.7735L13.888 24.9984L15.7732 15.7735L24.9984 13.888L15.7732 12.0025Z" fill="#E46138"/>
<path d="M52.8069 12.0159H48.3683C48.3091 11.5602 48.1878 11.1489 48.0043 10.7819C47.8209 10.415 47.5782 10.1014 47.2764 9.84095C46.9746 9.58055 46.6165 9.38229 46.2023 9.24618C45.7939 9.10414 45.3412 9.03312 44.844 9.03312C43.9622 9.03312 43.2017 9.24914 42.5626 9.68116C41.9293 10.1132 41.4411 10.7376 41.0978 11.5543C40.7605 12.371 40.5918 13.3593 40.5918 14.5193C40.5918 15.7266 40.7634 16.7386 41.1067 17.5553C41.4559 18.3661 41.9441 18.9786 42.5714 19.3929C43.2047 19.8013 43.9533 20.0054 44.8174 20.0054C45.3027 20.0054 45.7436 19.9433 46.1401 19.819C46.5425 19.6947 46.8947 19.5142 47.1965 19.2775C47.5043 19.0348 47.7558 18.7419 47.9511 18.3986C48.1523 18.0495 48.2914 17.6559 48.3683 17.218L52.8069 17.2446C52.73 18.0495 52.4962 18.8425 52.1056 19.6237C51.721 20.4049 51.1913 21.118 50.5166 21.7631C49.8419 22.4023 49.0193 22.9113 48.0487 23.29C47.0841 23.6688 45.9774 23.8582 44.7286 23.8582C43.0834 23.8582 41.6097 23.4972 40.3077 22.7751C39.0117 22.0472 37.9878 20.9878 37.2362 19.5971C36.4846 18.2063 36.1088 16.5137 36.1088 14.5193C36.1088 12.5189 36.4905 10.8234 37.254 9.4326C38.0174 8.04183 39.0501 6.98543 40.3521 6.26341C41.6541 5.5414 43.113 5.18039 44.7286 5.18039C45.8294 5.18039 46.8473 5.33426 47.7824 5.642C48.7175 5.94383 49.5401 6.38769 50.2503 6.97359C50.9605 7.55358 51.5375 8.26672 51.9814 9.11302C52.4252 9.95932 52.7004 10.9269 52.8069 12.0159Z" fill="white"/>
<path d="M59.4153 23.8404C58.5453 23.8404 57.773 23.6954 57.0983 23.4054C56.4295 23.1095 55.8999 22.6657 55.5093 22.0738C55.1246 21.4761 54.9322 20.7274 54.9322 19.8279C54.9322 19.0704 55.0654 18.4312 55.3317 17.9104C55.598 17.3896 55.965 16.9664 56.4325 16.6409C56.9 16.3154 57.4386 16.0698 58.0482 15.9041C58.6577 15.7325 59.3087 15.6171 60.0012 15.5579C60.7765 15.4869 61.4008 15.4129 61.8743 15.336C62.3477 15.2531 62.691 15.1377 62.904 14.9898C63.123 14.8359 63.2325 14.6199 63.2325 14.3417V14.2973C63.2325 13.8416 63.0757 13.4895 62.762 13.2409C62.4483 12.9924 62.0252 12.8681 61.4926 12.8681C60.9185 12.8681 60.4569 12.9924 60.1077 13.2409C59.7585 13.4895 59.5366 13.8328 59.4419 14.2707L55.4383 14.1287C55.5566 13.3001 55.8614 12.5604 56.3526 11.9094C56.8497 11.2524 57.5303 10.7376 58.3944 10.3647C59.2644 9.98595 60.3089 9.79657 61.5281 9.79657C62.398 9.79657 63.1999 9.90014 63.9338 10.1073C64.6677 10.3085 65.3068 10.6044 65.8513 10.995C66.3958 11.3797 66.816 11.8531 67.1119 12.4154C67.4137 12.9776 67.5646 13.6197 67.5646 14.3417V23.6096H63.4811V21.7099H63.3745C63.1319 22.1715 62.8212 22.5621 62.4424 22.8817C62.0696 23.2012 61.6287 23.4409 61.1197 23.6007C60.6167 23.7605 60.0485 23.8404 59.4153 23.8404ZM60.7557 20.9997C61.2233 20.9997 61.6435 20.905 62.0163 20.7156C62.3951 20.5262 62.6969 20.2658 62.9218 19.9344C63.1467 19.5971 63.2591 19.2065 63.2591 18.7626V17.4665C63.1348 17.5316 62.9839 17.5908 62.8064 17.6441C62.6348 17.6973 62.4454 17.7476 62.2382 17.795C62.0311 17.8423 61.8181 17.8838 61.5991 17.9193C61.3801 17.9548 61.17 17.9873 60.9688 18.0169C60.5604 18.082 60.2113 18.1826 59.9213 18.3187C59.6372 18.4549 59.4182 18.6324 59.2644 18.8514C59.1164 19.0644 59.0424 19.3189 59.0424 19.6148C59.0424 20.0646 59.2022 20.4079 59.5218 20.6446C59.8473 20.8813 60.2586 20.9997 60.7557 20.9997Z" fill="white"/>
<path d="M70.4689 23.6096V9.97411H74.6856V12.4597H74.8276C75.0762 11.5602 75.4816 10.8914 76.0438 10.4535C76.606 10.0096 77.26 9.78769 78.0057 9.78769C78.2069 9.78769 78.4141 9.80248 78.6271 9.83208C78.8402 9.85575 79.0384 9.89422 79.2219 9.94748V13.7203C79.0147 13.6493 78.7425 13.5931 78.4052 13.5517C78.0738 13.5102 77.7778 13.4895 77.5174 13.4895C77.0026 13.4895 76.538 13.6049 76.1237 13.8357C75.7154 14.0606 75.3928 14.3772 75.1561 14.7856C74.9253 15.188 74.8099 15.6615 74.8099 16.206V23.6096H70.4689Z" fill="white"/>
<path d="M85.5128 23.8049C84.5068 23.8049 83.5924 23.5445 82.7698 23.0237C81.9471 22.5029 81.2902 21.7217 80.799 20.6801C80.3078 19.6385 80.0622 18.3454 80.0622 16.8007C80.0622 15.1969 80.3167 13.8772 80.8256 12.8415C81.3346 11.8058 82.0004 11.0394 82.823 10.5423C83.6516 10.0451 84.5423 9.79657 85.4951 9.79657C86.2112 9.79657 86.8237 9.92085 87.3327 10.1694C87.8417 10.4121 88.2618 10.7257 88.5933 11.1104C88.9247 11.4951 89.1762 11.8946 89.3478 12.3088H89.4366V5.42895H93.7776V23.6096H89.481V21.3992H89.3478C89.1644 21.8194 88.904 22.2129 88.5666 22.5798C88.2293 22.9468 87.8061 23.2427 87.2972 23.4676C86.7941 23.6925 86.1994 23.8049 85.5128 23.8049ZM87.022 20.4227C87.5487 20.4227 87.9985 20.2747 88.3713 19.9788C88.7442 19.677 89.0312 19.2538 89.2324 18.7093C89.4336 18.1649 89.5343 17.5257 89.5343 16.7919C89.5343 16.0462 89.4336 15.404 89.2324 14.8655C89.0371 14.3269 88.7501 13.9127 88.3713 13.6227C87.9985 13.3327 87.5487 13.1877 87.022 13.1877C86.4834 13.1877 86.0277 13.3356 85.6549 13.6315C85.282 13.9275 84.998 14.3447 84.8027 14.8832C84.6133 15.4218 84.5186 16.058 84.5186 16.7919C84.5186 17.5257 84.6162 18.1649 84.8115 18.7093C85.0068 19.2538 85.288 19.677 85.6549 19.9788C86.0277 20.2747 86.4834 20.4227 87.022 20.4227Z" fill="white"/>
<path d="M99.4272 28.7229C98.9064 28.7229 98.4152 28.6815 97.9535 28.5986C97.4919 28.5217 97.0954 28.4181 96.764 28.2879L97.7227 25.1365C98.1488 25.2785 98.5335 25.3614 98.8768 25.3851C99.226 25.4087 99.5248 25.3525 99.7734 25.2164C100.028 25.0862 100.223 24.8524 100.359 24.5151L100.528 24.1067L95.681 9.97411H100.226L102.738 19.7036H102.88L105.428 9.97411H110L104.86 24.9146C104.611 25.6602 104.259 26.3172 103.804 26.8853C103.354 27.4594 102.771 27.9092 102.055 28.2347C101.345 28.5602 100.469 28.7229 99.4272 28.7229Z" fill="white"/>
</svg>
