<svg width="30px" height="30px" viewBox="0 0 30 30" id="_21_-_Left" data-name="21 - Left" xmlns="http://www.w3.org/2000/svg">
  <path id="Path_207" data-name="Path 207" d="M16,1A15,15,0,1,0,31,16,15.007,15.007,0,0,0,16,1Zm0,2A13,13,0,1,1,3,16,13.006,13.006,0,0,1,16,3Z" transform="translate(-1 -1)" fill-rule="evenodd"/>
  <path id="Path_208" data-name="Path 208" d="M19.707,21.293,14.414,16l5.293-5.293a1,1,0,0,0-1.414-1.414l-6,6a1,1,0,0,0,0,1.414l6,6a1,1,0,1,0,1.414-1.414Z" transform="translate(-1 -1)" fill-rule="evenodd"/>
</svg>
