<svg width="30px" height="30px" viewBox="0 0 30 30" id="_23_-_Right" data-name="23 - Right" xmlns="http://www.w3.org/2000/svg">
  <path id="Path_211" data-name="Path 211" d="M16,1A15,15,0,1,0,31,16,15.007,15.007,0,0,0,16,1Zm0,2A13,13,0,1,1,3,16,13.006,13.006,0,0,1,16,3Z" transform="translate(-1 -1)" fill-rule="evenodd"/>
  <path id="Path_212" data-name="Path 212" d="M12.293,10.707,17.586,16l-5.293,5.293a1,1,0,0,0,1.414,1.414l6-6a1,1,0,0,0,0-1.414l-6-6a1,1,0,0,0-1.414,1.414Z" transform="translate(-1 -1)" fill-rule="evenodd"/>
</svg>
