<svg width="44" height="44" viewBox="0 0 44 44" fill="none" xmlns="http://www.w3.org/2000/svg">
<path d="M8.53611 16.6456C8.53611 8.99539 14.7378 2.7937 22.388 2.7937C30.0381 2.7937 36.2398 8.99539 36.2398 16.6456V19.09H37.3262C39.1263 19.09 40.5855 20.5492 40.5855 22.3493V27.2381C40.5855 29.0382 39.1263 30.4974 37.3262 30.4974H36.2398V31.3122C36.2398 36.5624 31.9838 40.8184 26.7336 40.8184H26.5936C26.1551 41.4735 25.4083 41.9048 24.5608 41.9048H22.388C21.038 41.9048 19.9435 40.8104 19.9435 39.4604C19.9435 38.1104 21.038 37.0159 22.388 37.0159H24.5608C25.6247 37.0159 26.5298 37.6955 26.8657 38.6444C30.8548 38.5739 34.067 35.3182 34.067 31.3122V30.4974H31.8941C31.5941 30.4974 31.3509 30.2542 31.3509 29.9542V19.6332C31.3509 19.3332 31.5941 19.09 31.8941 19.09H34.067V16.6456C34.067 10.1954 28.8381 4.96654 22.388 4.96654C15.9378 4.96654 10.7089 10.1954 10.7089 16.6456V19.09H12.8818C13.1818 19.09 13.425 19.3332 13.425 19.6332V29.9542C13.425 30.2542 13.1818 30.4974 12.8818 30.4974H7.44969C5.64964 30.4974 4.19043 29.0382 4.19043 27.2381V22.3493C4.19043 20.5492 5.64964 19.09 7.44969 19.09H8.53611V16.6456Z" fill="#0090FF"/>
</svg>
