<svg width="12" height="14" viewBox="0 0 12 14" fill="none" xmlns="http://www.w3.org/2000/svg">
<path d="M5.99993 3.78564C5.80268 3.78564 5.64278 3.94554 5.64278 4.14279V6.64281H3.14279C2.94554 6.64281 2.78564 6.8027 2.78564 6.99996C2.78564 7.19721 2.94554 7.35708 3.14279 7.35708H5.99993C6.19719 7.35708 6.35708 7.19719 6.35708 6.99993V4.14279C6.35708 3.94554 6.19719 3.78564 5.99993 3.78564Z" fill="white" fill-opacity="0.7"/>
<path d="M6 2C3.23858 2 1 4.23858 1 7C1 9.76142 3.23858 12 6 12C8.76142 12 11 9.76142 11 7C10.9971 4.23981 8.76021 2.00295 6 2ZM6 11.2857C3.63306 11.2857 1.71428 9.36694 1.71428 7C1.71428 4.63306 3.63306 2.71428 6 2.71428C8.36694 2.71428 10.2857 4.63306 10.2857 7C10.2832 9.36589 8.36589 11.2832 6 11.2857Z" fill="white" fill-opacity="0.7"/>
</svg>
