<svg width="147" height="185" viewBox="0 0 147 185" fill="none" xmlns="http://www.w3.org/2000/svg">
<path d="M146.111 0C139.131 21.4863 120.891 63.8649 93 92.5C71.9097 114.153 57.6199 119.2 45.7723 123.384C36.554 126.639 28.8142 129.373 20.5 139C9.99669 151.162 3.50431 169.594 0 184.169V137.55C13.4103 100.723 28.4694 92.9394 44.5 90.5C67.5 87 87 82 107.5 52C122.949 29.3917 131.92 8.85396 134.998 0H146.111Z" fill="#2D2D2D"/>
<path d="M118.953 0C103.037 28.0929 88.7384 51.849 55.5 49C23.7445 46.2781 10.0992 57.5505 0 78.3359V51.0262C17.0734 25.5675 34.9879 25.3516 54.2967 25.1189C56.5125 25.0922 58.7466 25.0653 61 25C84.7228 24.3124 97.8318 10.0313 103.058 0H118.953Z" fill="#2D2D2D"/>
</svg>
