<svg width="12" height="14" viewBox="0 0 12 14" fill="none" xmlns="http://www.w3.org/2000/svg">
<path d="M5.99997 3.74561C4.79898 3.74561 3.82178 4.72268 3.82178 5.9238C3.82178 7.12492 4.79885 8.10199 5.99997 8.10199C7.20109 8.10199 8.17816 7.12492 8.17816 5.9238C8.17816 4.72281 7.20096 3.74561 5.99997 3.74561ZM5.99997 7.32405C5.22787 7.32405 4.5997 6.69587 4.5997 5.92377C4.5997 5.15168 5.22787 4.5235 5.99997 4.5235C6.77206 4.5235 7.40024 5.15168 7.40024 5.92377C7.40024 6.69587 6.77206 7.32405 5.99997 7.32405Z" fill="white" fill-opacity="0.7"/>
<path d="M9.69255 3.37216C8.8433 2.14306 7.49737 1.43799 6.00013 1.43799C4.50289 1.43799 3.15696 2.14306 2.30771 3.37216C1.46263 4.59505 1.2675 6.14326 1.78469 7.5111C1.92303 7.88463 2.14293 8.24754 2.43673 8.58761L5.70401 12.4254C5.77791 12.5122 5.88617 12.5623 6.00013 12.5623C6.11409 12.5623 6.22236 12.5123 6.29625 12.4254L9.56262 8.58865C9.85772 8.24663 10.0773 7.88411 10.2145 7.51357C10.7328 6.14326 10.5376 4.59505 9.69255 3.37216ZM9.48614 7.24116C9.38035 7.52704 9.20765 7.80969 8.9731 8.08156C8.97245 8.08222 8.9718 8.08287 8.97128 8.08365L6.00013 11.5734L3.02716 8.08146C2.79275 7.80982 2.62004 7.5272 2.51321 7.23857C2.08548 6.10735 2.24781 4.82727 2.94755 3.81455C3.64949 2.79859 4.76218 2.21591 6.00013 2.21591C7.23806 2.21591 8.35062 2.79856 9.05258 3.81455C9.75245 4.82727 9.91491 6.10735 9.48614 7.24116Z" fill="white" fill-opacity="0.7"/>
</svg>
