<svg width="131" height="35" viewBox="0 0 131 35" fill="none" xmlns="http://www.w3.org/2000/svg">
<path d="M11.8534 32.2495C14.6959 35.092 19.3043 35.092 22.1468 32.2495L26.1497 28.2465L22.6632 24.76C19.0162 27.5664 13.7651 27.2989 10.4238 23.9577C6.7918 20.3257 6.79179 14.437 10.4238 10.805C14.0558 7.17305 19.9444 7.17306 23.5764 10.805C26.9177 14.1463 27.1851 19.3974 24.3788 23.0444L27.8653 26.531L31.8683 22.528C34.7107 19.6856 34.7107 15.0771 31.8683 12.2347L22.1468 2.51317C19.3043 -0.329266 14.6958 -0.329257 11.8534 2.51317L2.13192 12.2347C-0.710513 15.0771 -0.710522 19.6856 2.13192 22.528L11.8534 32.2495Z" fill="white"/>
<path fill-rule="evenodd" clip-rule="evenodd" d="M15.5836 10.6539C14.3214 10.9185 13.1193 11.5407 12.1393 12.5206C9.58842 15.0715 9.46149 19.1285 11.7585 21.8293C11.7585 21.8293 11.7585 21.8293 11.7585 21.8293C11.8788 21.9708 12.0058 22.1085 12.1394 22.2421C14.8239 24.9266 19.1764 24.9266 21.8609 22.2421C24.5454 19.5576 24.5454 15.2051 21.8609 12.5206C20.8542 11.5139 19.6129 10.8847 18.313 10.6331C17.4118 10.4586 16.4825 10.4655 15.5836 10.6539ZM11.8602 21.636C12.8574 19.823 14.7858 18.5944 17.0011 18.5944C19.2158 18.5944 21.1438 19.8224 22.1412 21.6347C22.0087 21.7944 21.8676 21.9494 21.7179 22.0991C19.1124 24.7047 14.8879 24.7047 12.2823 22.0991C12.1331 21.9499 11.9924 21.7953 11.8602 21.636ZM17.0011 17.3813C18.2294 17.3813 19.2251 16.3856 19.2251 15.1574C19.2251 13.9291 18.2294 12.9334 17.0011 12.9334C15.7728 12.9334 14.7771 13.9291 14.7771 15.1574C14.7771 16.3856 15.7728 17.3813 17.0011 17.3813Z" fill="white"/>
<path d="M48.8601 24.7113C48.4054 24.7113 47.9214 24.6673 47.4081 24.5793C46.9094 24.4913 46.5281 24.3813 46.2641 24.2493V21.3673C46.4841 21.47 46.7628 21.5507 47.1001 21.6093C47.4374 21.668 47.7748 21.6973 48.1121 21.6973C48.7721 21.6973 49.2634 21.5433 49.5861 21.2353C49.9088 20.9273 50.0701 20.4433 50.0701 19.7833V9.00335H53.4141V20.0913C53.4141 21.514 53.0181 22.6433 52.2261 23.4793C51.4341 24.3007 50.3121 24.7113 48.8601 24.7113ZM61.5699 24.7113C60.2939 24.7113 59.1719 24.484 58.2039 24.0293C57.2506 23.56 56.5099 22.9073 55.9819 22.0713C55.4686 21.2207 55.2119 20.2307 55.2119 19.1013C55.2119 18.0013 55.4686 17.026 55.9819 16.1753C56.5099 15.3247 57.2506 14.6647 58.2039 14.1953C59.1719 13.726 60.2939 13.4913 61.5699 13.4913C62.8312 13.4913 63.9386 13.726 64.8919 14.1953C65.8599 14.6647 66.6006 15.3247 67.1139 16.1753C67.6419 17.026 67.9059 18.0013 67.9059 19.1013C67.9059 20.2307 67.6419 21.2207 67.1139 22.0713C66.6006 22.9073 65.8672 23.56 64.9139 24.0293C63.9606 24.484 62.8459 24.7113 61.5699 24.7113ZM61.5699 22.1153C62.4646 22.1153 63.1759 21.844 63.7039 21.3013C64.2319 20.744 64.4959 20.0107 64.4959 19.1013C64.4959 18.1627 64.2319 17.4293 63.7039 16.9013C63.1906 16.3587 62.4792 16.0873 61.5699 16.0873C60.6606 16.0873 59.9419 16.3587 59.4139 16.9013C58.8859 17.4293 58.6219 18.1627 58.6219 19.1013C58.6219 20.0107 58.8859 20.744 59.4139 21.3013C59.9566 21.844 60.6752 22.1153 61.5699 22.1153ZM76.6169 24.7113C75.7955 24.7113 75.0622 24.594 74.4169 24.3593C73.7862 24.1247 73.1995 23.7507 72.6569 23.2373V24.3813H69.4449V8.12335H72.7669V14.7673C73.2362 14.3567 73.8082 14.0413 74.4829 13.8213C75.1575 13.6013 75.8689 13.4913 76.6169 13.4913C77.7169 13.4913 78.6849 13.7333 79.5209 14.2173C80.3715 14.6867 81.0315 15.3467 81.5009 16.1973C81.9702 17.048 82.2049 18.0233 82.2049 19.1233C82.2049 20.238 81.9702 21.2207 81.5009 22.0713C81.0315 22.9073 80.3715 23.56 79.5209 24.0293C78.6849 24.484 77.7169 24.7113 76.6169 24.7113ZM75.7809 22.1373C76.6755 22.1373 77.4015 21.866 77.9589 21.3233C78.5309 20.766 78.8169 20.0327 78.8169 19.1233C78.8169 18.214 78.5309 17.4807 77.9589 16.9233C77.4015 16.366 76.6755 16.0873 75.7809 16.0873C75.0915 16.0873 74.4682 16.278 73.9109 16.6593C73.3682 17.026 72.9869 17.51 72.7669 18.1113V20.1133C73.0015 20.7293 73.3902 21.2207 73.9329 21.5873C74.4755 21.954 75.0915 22.1373 75.7809 22.1373ZM88.0875 24.7113C87.2955 24.7113 86.4448 24.6233 85.5355 24.4473C84.6408 24.286 83.9368 24.0513 83.4235 23.7433V21.1473C84.0101 21.4993 84.7141 21.7853 85.5355 22.0053C86.3568 22.2253 87.1195 22.3353 87.8235 22.3353C88.4248 22.3353 88.8648 22.284 89.1435 22.1813C89.4221 22.0787 89.5615 21.888 89.5615 21.6093C89.5615 21.3893 89.4808 21.2133 89.3195 21.0813C89.1581 20.9347 88.9088 20.81 88.5715 20.7073C88.2488 20.59 87.7061 20.4213 86.9435 20.2013C86.0488 19.9373 85.3448 19.6733 84.8315 19.4093C84.3328 19.1307 83.9515 18.786 83.6875 18.3753C83.4381 17.9647 83.3135 17.4367 83.3135 16.7913C83.3135 15.6913 83.7461 14.87 84.6115 14.3273C85.4915 13.77 86.6795 13.4913 88.1755 13.4913C88.9088 13.4913 89.6641 13.572 90.4415 13.7333C91.2335 13.88 91.8421 14.078 92.2675 14.3273V16.8573C91.8421 16.5787 91.2848 16.3513 90.5955 16.1753C89.9208 15.9993 89.2608 15.9113 88.6155 15.9113C88.0141 15.9113 87.5448 15.97 87.2075 16.0873C86.8848 16.2047 86.7235 16.4247 86.7235 16.7473C86.7235 17.026 86.8775 17.2387 87.1855 17.3853C87.5081 17.532 88.1021 17.7153 88.9675 17.9353L89.4075 18.0453C90.3315 18.2947 91.0501 18.5733 91.5635 18.8813C92.0768 19.1747 92.4361 19.534 92.6415 19.9593C92.8615 20.37 92.9715 20.8907 92.9715 21.5213C92.9715 22.4893 92.5535 23.2667 91.7175 23.8533C90.8815 24.4253 89.6715 24.7113 88.0875 24.7113ZM94.8394 13.8213H98.0514V14.9873C99.1221 13.99 100.442 13.4913 102.011 13.4913C103.111 13.4913 104.079 13.726 104.915 14.1953C105.766 14.65 106.426 15.3027 106.895 16.1533C107.365 16.9893 107.599 17.9647 107.599 19.0793C107.599 20.1793 107.365 21.1547 106.895 22.0053C106.426 22.856 105.766 23.5233 104.915 24.0073C104.079 24.4767 103.111 24.7113 102.011 24.7113C101.263 24.7113 100.552 24.6013 99.8774 24.3813C99.2027 24.1613 98.6307 23.846 98.1614 23.4353V29.1993H94.8394V13.8213ZM101.175 22.1153C102.07 22.1153 102.796 21.8367 103.353 21.2793C103.925 20.722 104.211 19.9887 104.211 19.0793C104.211 18.17 103.925 17.444 103.353 16.9013C102.796 16.3587 102.07 16.0873 101.175 16.0873C100.486 16.0873 99.8701 16.2707 99.3274 16.6373C98.7847 17.004 98.3961 17.488 98.1614 18.0893V20.0913C98.3814 20.7073 98.7627 21.1987 99.3054 21.5653C99.8627 21.932 100.486 22.1153 101.175 22.1153ZM115.388 24.7113C114.112 24.7113 112.99 24.484 112.022 24.0293C111.069 23.56 110.328 22.9073 109.8 22.0713C109.287 21.2207 109.03 20.2307 109.03 19.1013C109.03 18.0013 109.287 17.026 109.8 16.1753C110.328 15.3247 111.069 14.6647 112.022 14.1953C112.99 13.726 114.112 13.4913 115.388 13.4913C116.65 13.4913 117.757 13.726 118.71 14.1953C119.678 14.6647 120.419 15.3247 120.932 16.1753C121.46 17.026 121.724 18.0013 121.724 19.1013C121.724 20.2307 121.46 21.2207 120.932 22.0713C120.419 22.9073 119.686 23.56 118.732 24.0293C117.779 24.484 116.664 24.7113 115.388 24.7113ZM115.388 22.1153C116.283 22.1153 116.994 21.844 117.522 21.3013C118.05 20.744 118.314 20.0107 118.314 19.1013C118.314 18.1627 118.05 17.4293 117.522 16.9013C117.009 16.3587 116.298 16.0873 115.388 16.0873C114.479 16.0873 113.76 16.3587 113.232 16.9013C112.704 17.4293 112.44 18.1627 112.44 19.1013C112.44 20.0107 112.704 20.744 113.232 21.3013C113.775 21.844 114.494 22.1153 115.388 22.1153ZM127.685 24.7113C126.453 24.7113 125.515 24.374 124.869 23.6993C124.239 23.01 123.923 22.0567 123.923 20.8393V16.2193H122.383V13.8213H123.923V10.6533H127.245V13.8213H129.731V16.2193H127.245V20.3993C127.245 21.0153 127.363 21.4627 127.597 21.7413C127.832 22.0053 128.25 22.1373 128.851 22.1373C129.335 22.1373 129.797 22.02 130.237 21.7853V24.2713C129.563 24.5647 128.712 24.7113 127.685 24.7113Z" fill="white"/>
</svg>
