<svg width="120" height="32" viewBox="0 0 120 32" fill="none" xmlns="http://www.w3.org/2000/svg">
<path d="M10.9216 29.3632C13.5406 31.9822 17.7869 31.9822 20.4059 29.3632L24.0942 25.6749L20.8817 22.4624C17.5214 25.0482 12.683 24.8018 9.60435 21.7231C6.25785 18.3766 6.25785 12.9509 9.60435 9.60435C12.9509 6.25785 18.3766 6.25785 21.7231 9.60435C24.8018 12.683 25.0482 17.5214 22.4624 20.8817L25.6749 24.0942L29.3632 20.4059C31.9822 17.7869 31.9822 13.5406 29.3632 10.9216L20.4059 1.96426C17.7868 -0.654757 13.5406 -0.654748 10.9216 1.96426L1.96426 10.9216C-0.654748 13.5406 -0.654756 17.7868 1.96426 20.4059L10.9216 29.3632Z" fill="#2B2B2B"/>
<path fill-rule="evenodd" clip-rule="evenodd" d="M14.3586 9.46512C13.1956 9.70886 12.088 10.2822 11.1851 11.1851C8.83464 13.5355 8.71769 17.2736 10.8342 19.7621C10.945 19.8924 11.062 20.0193 11.1851 20.1424C13.6586 22.6159 17.6689 22.6159 20.1425 20.1424C22.616 17.6689 22.616 13.6586 20.1425 11.1851C19.2149 10.2575 18.0712 9.67777 16.8735 9.44588C16.0431 9.28512 15.1868 9.29153 14.3586 9.46512ZM10.9279 19.584C11.8467 17.9135 13.6235 16.7815 15.6646 16.7815C17.7053 16.7815 19.4817 17.9129 20.4007 19.5827C20.2786 19.7299 20.1487 19.8728 20.0107 20.0107C17.61 22.4114 13.7176 22.4114 11.3168 20.0107C11.1793 19.8732 11.0496 19.7307 10.9279 19.584ZM15.6646 15.6637C16.7964 15.6637 17.7138 14.7463 17.7138 13.6146C17.7138 12.4828 16.7964 11.5654 15.6646 11.5654C14.5329 11.5654 13.6155 12.4828 13.6155 13.6146C13.6155 14.7463 14.5329 15.6637 15.6646 15.6637Z" fill="#2B2B2B"/>
<path d="M45.0194 22.4176C44.6005 22.4176 44.1545 22.377 43.6816 22.2959C43.2221 22.2149 42.8707 22.1135 42.6275 21.9919V19.3364C42.8302 19.431 43.0869 19.5053 43.3978 19.5594C43.7086 19.6135 44.0194 19.6405 44.3302 19.6405C44.9383 19.6405 45.391 19.4986 45.6884 19.2148C45.9857 18.931 46.1343 18.4851 46.1343 17.8769V7.94428H49.2155V18.1607C49.2155 19.4716 48.8506 20.5121 48.1208 21.2824C47.3911 22.0392 46.3573 22.4176 45.0194 22.4176Z" fill="#2B2B2B"/>
<path d="M56.7302 22.4176C55.5545 22.4176 54.5207 22.2081 53.6288 21.7892C52.7504 21.3567 52.0679 20.7554 51.5814 19.9851C51.1084 19.2013 50.872 18.2891 50.872 17.2485C50.872 16.235 51.1084 15.3363 51.5814 14.5525C52.0679 13.7687 52.7504 13.1606 53.6288 12.7282C54.5207 12.2957 55.5545 12.0795 56.7302 12.0795C57.8924 12.0795 58.9127 12.2957 59.7911 12.7282C60.683 13.1606 61.3654 13.7687 61.8384 14.5525C62.3249 15.3363 62.5682 16.235 62.5682 17.2485C62.5682 18.2891 62.3249 19.2013 61.8384 19.9851C61.3654 20.7554 60.6897 21.3567 59.8113 21.7892C58.9329 22.2081 57.9059 22.4176 56.7302 22.4176ZM56.7302 20.0256C57.5545 20.0256 58.21 19.7756 58.6964 19.2756C59.1829 18.7621 59.4262 18.0864 59.4262 17.2485C59.4262 16.3837 59.1829 15.708 58.6964 15.2215C58.2235 14.7215 57.568 14.4714 56.7302 14.4714C55.8923 14.4714 55.2302 14.7215 54.7437 15.2215C54.2572 15.708 54.0139 16.3837 54.0139 17.2485C54.0139 18.0864 54.2572 18.7621 54.7437 19.2756C55.2437 19.7756 55.9058 20.0256 56.7302 20.0256Z" fill="#2B2B2B"/>
<path d="M70.5944 22.4176C69.8376 22.4176 69.1619 22.3095 68.5673 22.0932C67.9862 21.877 67.4457 21.5324 66.9457 21.0594V22.1135H63.9862V7.13345H67.047V13.2552C67.4795 12.8768 68.0065 12.5863 68.6282 12.3836C69.2498 12.1809 69.9052 12.0795 70.5944 12.0795C71.6079 12.0795 72.4999 12.3025 73.2701 12.7484C74.0539 13.1809 74.6621 13.789 75.0945 14.5728C75.5269 15.3566 75.7432 16.2553 75.7432 17.2688C75.7432 18.2959 75.5269 19.2013 75.0945 19.9851C74.6621 20.7554 74.0539 21.3567 73.2701 21.7892C72.4999 22.2081 71.6079 22.4176 70.5944 22.4176ZM69.8241 20.0459C70.6485 20.0459 71.3174 19.7959 71.8309 19.2959C72.358 18.7824 72.6215 18.1067 72.6215 17.2688C72.6215 16.431 72.358 15.7553 71.8309 15.2417C71.3174 14.7282 70.6485 14.4714 69.8241 14.4714C69.189 14.4714 68.6146 14.6471 68.1011 14.9985C67.6011 15.3363 67.2497 15.7823 67.047 16.3364V18.181C67.2633 18.7486 67.6214 19.2013 68.1214 19.5391C68.6214 19.877 69.189 20.0459 69.8241 20.0459Z" fill="#2B2B2B"/>
<path d="M81.1634 22.4176C80.4336 22.4176 79.6498 22.3365 78.812 22.1743C77.9876 22.0257 77.339 21.8094 76.866 21.5257V19.1337C77.4065 19.458 78.0552 19.7216 78.812 19.9243C79.5687 20.127 80.2715 20.2283 80.9201 20.2283C81.4742 20.2283 81.8796 20.181 82.1364 20.0864C82.3931 19.9918 82.5215 19.8162 82.5215 19.5594C82.5215 19.3567 82.4472 19.1945 82.2985 19.0729C82.1499 18.9378 81.9201 18.8229 81.6093 18.7283C81.312 18.6202 80.812 18.4648 80.1093 18.2621C79.285 18.0188 78.6363 17.7756 78.1633 17.5323C77.7038 17.2756 77.3525 16.958 77.1092 16.5796C76.8795 16.2012 76.7646 15.7147 76.7646 15.1201C76.7646 14.1066 77.1633 13.3498 77.9606 12.8498C78.7714 12.3363 79.8661 12.0795 81.2445 12.0795C81.9202 12.0795 82.6161 12.1538 83.3323 12.3025C84.0621 12.4376 84.6229 12.6201 85.0148 12.8498V15.1809C84.6229 14.9242 84.1094 14.7147 83.4742 14.5525C82.8526 14.3904 82.2445 14.3093 81.6499 14.3093C81.0958 14.3093 80.6634 14.3633 80.3525 14.4714C80.0552 14.5796 79.9066 14.7823 79.9066 15.0796C79.9066 15.3363 80.0485 15.5323 80.3323 15.6674C80.6296 15.8026 81.1769 15.9715 81.9742 16.1742L82.3796 16.2755C83.231 16.5053 83.8932 16.762 84.3661 17.0458C84.8391 17.3161 85.1702 17.6472 85.3594 18.0391C85.5621 18.4175 85.6635 18.8972 85.6635 19.4783C85.6635 20.3702 85.2783 21.0865 84.508 21.627C83.7378 22.1541 82.6229 22.4176 81.1634 22.4176Z" fill="#2B2B2B"/>
<path d="M87.3846 12.3836H90.3441V13.4579C91.3306 12.539 92.5469 12.0795 93.9928 12.0795C95.0064 12.0795 95.8983 12.2957 96.6686 12.7282C97.4524 13.1471 98.0605 13.7485 98.4929 14.5323C98.9254 15.3025 99.1416 16.2012 99.1416 17.2283C99.1416 18.2418 98.9254 19.1405 98.4929 19.9243C98.0605 20.7081 97.4524 21.323 96.6686 21.7689C95.8983 22.2013 95.0064 22.4176 93.9928 22.4176C93.3036 22.4176 92.6482 22.3162 92.0266 22.1135C91.4049 21.9108 90.8779 21.6203 90.4455 21.2419V26.5528H87.3846V12.3836ZM93.2225 20.0256C94.0469 20.0256 94.7158 19.7689 95.2293 19.2553C95.7564 18.7418 96.0199 18.0661 96.0199 17.2283C96.0199 16.3904 95.7564 15.7215 95.2293 15.2215C94.7158 14.7215 94.0469 14.4714 93.2225 14.4714C92.5874 14.4714 92.0198 14.6404 91.5198 14.9782C91.0198 15.3161 90.6617 15.762 90.4455 16.3161V18.1607C90.6482 18.7283 90.9995 19.181 91.4995 19.5189C92.0131 19.8567 92.5874 20.0256 93.2225 20.0256Z" fill="#2B2B2B"/>
<path d="M106.318 22.4176C105.143 22.4176 104.109 22.2081 103.217 21.7892C102.338 21.3567 101.656 20.7554 101.169 19.9851C100.696 19.2013 100.46 18.2891 100.46 17.2485C100.46 16.235 100.696 15.3363 101.169 14.5525C101.656 13.7687 102.338 13.1606 103.217 12.7282C104.109 12.2957 105.143 12.0795 106.318 12.0795C107.48 12.0795 108.501 12.2957 109.379 12.7282C110.271 13.1606 110.953 13.7687 111.426 14.5525C111.913 15.3363 112.156 16.235 112.156 17.2485C112.156 18.2891 111.913 19.2013 111.426 19.9851C110.953 20.7554 110.278 21.3567 109.399 21.7892C108.521 22.2081 107.494 22.4176 106.318 22.4176ZM106.318 20.0256C107.143 20.0256 107.798 19.7756 108.284 19.2756C108.771 18.7621 109.014 18.0864 109.014 17.2485C109.014 16.3837 108.771 15.708 108.284 15.2215C107.812 14.7215 107.156 14.4714 106.318 14.4714C105.48 14.4714 104.818 14.7215 104.332 15.2215C103.845 15.708 103.602 16.3837 103.602 17.2485C103.602 18.0864 103.845 18.7621 104.332 19.2756C104.832 19.7756 105.494 20.0256 106.318 20.0256Z" fill="#2B2B2B"/>
<path d="M117.649 22.4176C116.513 22.4176 115.649 22.1068 115.054 21.4851C114.473 20.85 114.182 19.9716 114.182 18.8499V14.5931H112.763V12.3836H114.182V9.46458H117.243V12.3836H119.534V14.5931H117.243V18.4445C117.243 19.0121 117.351 19.4243 117.568 19.681C117.784 19.9243 118.169 20.0459 118.723 20.0459C119.169 20.0459 119.595 19.9378 120 19.7216V22.0122C119.378 22.2824 118.595 22.4176 117.649 22.4176Z" fill="#2B2B2B"/>
</svg>
