<svg width="26" height="26" viewBox="0 0 26 26" fill="none" xmlns="http://www.w3.org/2000/svg">
<path d="M21.7344 8.4501L20.1906 7.02822L20.5969 4.95635L18.6062 4.30635L18.1594 2.2751L16.0875 2.47822L14.8281 0.771973L13 1.82822L11.1719 0.771973L9.9125 2.47822L7.84062 2.2751L7.39375 4.30635L5.40313 4.95635L5.80938 7.02822L4.26562 8.4501L5.48438 10.1563L4.63125 12.0657L6.45937 13.122V15.2345L8.53125 15.4782L9.38438 17.3876L11.375 16.7376L13 18.1595L14.5844 16.7782L16.575 17.4282L17.4281 15.5188L19.5 15.2751V13.1626L21.3281 12.1063L20.5156 10.1563L21.7344 8.4501ZM13 13.5282C12.1965 13.5282 11.4111 13.29 10.743 12.8436C10.0749 12.3972 9.55422 11.7627 9.24674 11.0204C8.93926 10.278 8.85881 9.46122 9.01556 8.67317C9.17231 7.88512 9.55923 7.16125 10.1274 6.5931C10.6955 6.02495 11.4194 5.63803 12.2074 5.48128C12.9955 5.32453 13.8123 5.40498 14.5547 5.71246C15.297 6.01994 15.9315 6.54064 16.3778 7.20872C16.8242 7.87679 17.0625 8.66224 17.0625 9.46572C17.0625 9.99922 16.9574 10.5275 16.7533 11.0204C16.5491 11.5133 16.2499 11.9611 15.8726 12.3383C15.4954 12.7156 15.0475 13.0148 14.5547 13.219C14.0618 13.4231 13.5335 13.5282 13 13.5282Z" fill="#2D2D2D"/>
<path d="M11.05 18.6062L9.9125 18.9718L9.425 19.053C9.11784 19.0514 8.81742 18.9628 8.55857 18.7974C8.29972 18.6321 8.09304 18.3967 7.9625 18.1187L7.475 17.0624L6.5 16.8999L4.0625 22.9124L7.6375 22.4655L9.87187 25.228L11.9031 19.3374L11.05 18.6062ZM18.525 16.9812L18.0375 18.0374C17.907 18.3155 17.7003 18.5508 17.4414 18.7162C17.1826 18.8816 16.8822 18.9702 16.575 18.9718L16.0875 18.8905L14.95 18.5249L14.0969 19.2968L16.1281 25.1874L18.3625 22.4249L21.9375 22.9124L19.5 16.8999L18.525 16.9812Z" fill="#2D2D2D"/>
</svg>
