<svg width="21" height="15" viewBox="0 0 21 15" fill="none" xmlns="http://www.w3.org/2000/svg">
<path d="M1.00009 6.38135C0.447807 6.38135 9.15527e-05 6.82906 9.15527e-05 7.38135C9.15527e-05 7.93363 0.447807 8.38135 1.00009 8.38135V6.38135ZM20.7072 8.08845C21.0977 7.69793 21.0977 7.06477 20.7072 6.67424L14.3432 0.31028C13.9527 -0.0802444 13.3195 -0.0802444 12.929 0.31028C12.5385 0.700804 12.5385 1.33397 12.929 1.72449L18.5859 7.38135L12.929 13.0382C12.5385 13.4287 12.5385 14.0619 12.929 14.4524C13.3195 14.8429 13.9527 14.8429 14.3432 14.4524L20.7072 8.08845ZM1.00009 8.38135H20.0001V6.38135H1.00009V8.38135Z" fill="white"/>
</svg>
