<svg width="74" height="74" viewBox="0 0 74 74" fill="none" xmlns="http://www.w3.org/2000/svg">
<circle cx="37" cy="37" r="36" stroke="#A18B84" stroke-width="2" stroke-linecap="round" stroke-dasharray="5 5"/>
<path d="M51.9266 22.0824C51.1349 21.2733 49.9633 20.9741 48.8708 21.2907L23.3949 28.6516C22.2423 28.9715 21.4253 29.8851 21.2052 31.0441C20.9803 32.2252 21.7657 33.7262 22.7917 34.3532L30.7574 39.2172C31.5744 39.7176 32.6289 39.5925 33.305 38.9148L42.4266 29.7932C42.8858 29.3166 43.6458 29.3166 44.1049 29.7932C44.5641 30.2508 44.5641 30.9966 44.1049 31.4716L34.9675 40.5931C34.2898 41.2708 34.1632 42.3221 34.6619 43.1407L39.5291 51.1365C40.0991 52.085 41.0808 52.6249 42.1574 52.6249C42.2841 52.6249 42.4266 52.6249 42.5533 52.6075C43.7883 52.4507 44.7699 51.61 45.1341 50.4225L52.6866 25.1382C53.0191 24.0616 52.7183 22.8899 51.9266 22.0824Z" fill="#2D2D2D"/>
<path opacity="0.4" fill-rule="evenodd" clip-rule="evenodd" d="M22.7667 44.6124C22.4627 44.6124 22.1587 44.4968 21.9275 44.2641C21.4636 43.8002 21.4636 43.0497 21.9275 42.5858L24.0888 40.4229C24.5527 39.9606 25.3048 39.9606 25.7687 40.4229C26.231 40.8868 26.231 41.6389 25.7687 42.1028L23.6059 44.2641C23.3747 44.4968 23.0707 44.6124 22.7667 44.6124ZM28.7218 46.5004C28.4178 46.5004 28.1138 46.3848 27.8826 46.152C27.4187 45.6881 27.4187 44.9376 27.8826 44.4737L30.0439 42.3109C30.5078 41.8485 31.2599 41.8485 31.7238 42.3109C32.1861 42.7748 32.1861 43.5269 31.7238 43.9908L29.5609 46.152C29.3298 46.3848 29.0258 46.5004 28.7218 46.5004ZM29.1238 52.1497C29.355 52.3825 29.659 52.498 29.963 52.498C30.267 52.498 30.571 52.3825 30.8022 52.1497L32.965 49.9885C33.4273 49.5245 33.4273 48.7725 32.965 48.3085C32.5011 47.8462 31.749 47.8462 31.2851 48.3085L29.1238 50.4714C28.6599 50.9353 28.6599 51.6858 29.1238 52.1497Z" fill="#2D2D2D"/>
</svg>
