<svg width="74" height="74" viewBox="0 0 74 74" fill="none" xmlns="http://www.w3.org/2000/svg">
<circle cx="37" cy="37" r="36" stroke="#A18B84" stroke-width="2" stroke-linecap="round" stroke-dasharray="5 5"/>
<path d="M26.8193 55.3334C22.3258 55.3334 18.6665 51.6113 18.6665 47.0384V37.943C18.6665 33.3795 22.3148 29.6667 26.801 29.6667H47.1803C51.6757 29.6667 55.3332 33.3888 55.3332 37.9636V47.0552C55.3332 51.6206 51.6848 55.3334 47.1987 55.3334H45.4753H26.8193Z" fill="#2D2D2D"/>
<path d="M36.0001 19.072L30.6669 24.2893C30.1169 24.8285 30.1169 25.6963 30.6706 26.2337C31.2243 26.7694 32.1171 26.7676 32.6671 26.2302L35.5876 23.3715V26.1123V41.4945C35.5876 42.2534 36.2201 42.8694 36.9993 42.8694C37.7803 42.8694 38.4109 42.2534 38.4109 41.4945V23.3715L41.3314 26.2302C41.8814 26.7676 42.7743 26.7694 43.3279 26.2337C43.6048 25.9641 43.7441 25.6124 43.7441 25.2588C43.7441 24.9089 43.6048 24.5571 43.3316 24.2893L38.0003 19.072C37.7344 18.8131 37.3751 18.6667 36.9993 18.6667C36.6253 18.6667 36.2659 18.8131 36.0001 19.072Z" fill="#A18B84"/>
</svg>
