<svg width="740" height="658" viewBox="0 0 740 658" fill="none" xmlns="http://www.w3.org/2000/svg">
<rect x="0.5" y="0.5" width="349" height="379" rx="17.5" fill="white" stroke="#EDEFF2"/>
<path d="M31.3026 54L32.5028 50.4134H37.9716L39.179 54H41.9915L36.8636 39.4545H33.6108L28.4901 54H31.3026ZM33.2131 48.2969L35.1804 42.4375H35.294L37.2614 48.2969H33.2131ZM46.3647 47.608C46.3647 46.0312 47.3164 45.1222 48.6729 45.1222C50.0011 45.1222 50.7965 45.9957 50.7965 47.4517V54H53.3675V47.054C53.3746 44.4403 51.8832 42.9489 49.6317 42.9489C47.9982 42.9489 46.8761 43.7301 46.3789 44.9446H46.2511V43.0909H43.7937V54H46.3647V47.608ZM59.1204 54.2202C60.832 54.2202 61.8548 53.4176 62.3235 52.5014H62.4087V54H64.8803V46.6989C64.8803 43.8153 62.5295 42.9489 60.4485 42.9489C58.1545 42.9489 56.3931 43.9716 55.8249 45.9602L58.2255 46.3011C58.4812 45.5554 59.2056 44.9162 60.4627 44.9162C61.6559 44.9162 62.3093 45.527 62.3093 46.5994V46.642C62.3093 47.3807 61.5352 47.4162 59.6104 47.6222C57.494 47.8494 55.4698 48.4815 55.4698 50.9389C55.4698 53.0838 57.0394 54.2202 59.1204 54.2202ZM59.788 52.331C58.7156 52.331 57.9485 51.8409 57.9485 50.8963C57.9485 49.9091 58.8079 49.4972 59.9585 49.3338C60.6332 49.2415 61.9826 49.071 62.3164 48.8011V50.0866C62.3164 51.3011 61.3363 52.331 59.788 52.331ZM70.0366 39.4545H67.4656V54H70.0366V39.4545ZM74.2784 58.0909C76.2812 58.0909 77.4389 57.0611 78.0568 55.321L82.4389 43.1051L79.6903 43.0909L77.169 51.3295H77.0554L74.5412 43.0909H71.8139L75.7699 54.2273L75.5497 54.8168C75.0739 56.0597 74.321 56.1449 73.1989 55.8182L72.6023 57.821C72.9503 57.9631 73.5753 58.0909 74.2784 58.0909ZM89.6708 43.0909H87.5188V40.4773H84.9478V43.0909H83.3995V45.0795H84.9478V51.1449C84.9336 53.1974 86.4251 54.206 88.3569 54.1491C89.0884 54.1278 89.5927 53.9858 89.8697 53.8935L89.4364 51.8835C89.2944 51.919 89.0032 51.983 88.6836 51.983C88.0373 51.983 87.5188 51.7557 87.5188 50.7188V45.0795H89.6708V43.0909ZM91.821 54H94.392V43.0909H91.821V54ZM93.1136 41.5426C93.9304 41.5426 94.598 40.9176 94.598 40.1506C94.598 39.3764 93.9304 38.7514 93.1136 38.7514C92.2898 38.7514 91.6222 39.3764 91.6222 40.1506C91.6222 40.9176 92.2898 41.5426 93.1136 41.5426ZM101.794 54.2131C104.536 54.2131 106.283 52.5866 106.468 50.2713H104.01C103.79 51.4432 102.945 52.1179 101.816 52.1179C100.211 52.1179 99.1737 50.7756 99.1737 48.5455C99.1737 46.3438 100.232 45.0227 101.816 45.0227C103.051 45.0227 103.811 45.8182 104.01 46.8693H106.468C106.29 44.5043 104.444 42.9489 101.78 42.9489C98.5842 42.9489 96.5671 45.2571 96.5671 48.5881C96.5671 51.8906 98.5344 54.2131 101.794 54.2131ZM117.201 45.9744C116.846 44.1278 115.369 42.9489 112.812 42.9489C110.184 42.9489 108.394 44.2415 108.401 46.2585C108.394 47.8494 109.374 48.9006 111.469 49.3338L113.33 49.7244C114.332 49.9446 114.8 50.3494 114.8 50.9673C114.8 51.7131 113.991 52.2741 112.769 52.2741C111.59 52.2741 110.823 51.7628 110.603 50.7827L108.096 51.0241C108.415 53.027 110.099 54.2131 112.776 54.2131C115.504 54.2131 117.428 52.7997 117.435 50.733C117.428 49.1776 116.427 48.2259 114.367 47.7784L112.506 47.3807C111.398 47.1321 110.958 46.7486 110.965 46.1165C110.958 45.3778 111.775 44.8665 112.847 44.8665C114.033 44.8665 114.658 45.5128 114.857 46.2301L117.201 45.9744Z" fill="#182848"/>
<path d="M31.9716 95.2727H30.9148L28.733 96.7216V97.7955L30.8636 96.3807H30.9148V104H31.9716V95.2727ZM37.3281 104.119C39.2543 104.119 40.3622 102.487 40.3622 99.6364C40.3622 96.8068 39.2372 95.1534 37.3281 95.1534C35.419 95.1534 34.294 96.8068 34.294 99.6364C34.294 102.487 35.402 104.119 37.3281 104.119ZM37.3281 103.182C36.0582 103.182 35.3168 101.908 35.3168 99.6364C35.3168 97.3693 36.0668 96.0739 37.3281 96.0739C38.5895 96.0739 39.3395 97.3693 39.3395 99.6364C39.3395 101.908 38.598 103.182 37.3281 103.182ZM44.8281 104.119C46.7543 104.119 47.8622 102.487 47.8622 99.6364C47.8622 96.8068 46.7372 95.1534 44.8281 95.1534C42.919 95.1534 41.794 96.8068 41.794 99.6364C41.794 102.487 42.902 104.119 44.8281 104.119ZM44.8281 103.182C43.5582 103.182 42.8168 101.908 42.8168 99.6364C42.8168 97.3693 43.5668 96.0739 44.8281 96.0739C46.0895 96.0739 46.8395 97.3693 46.8395 99.6364C46.8395 101.908 46.098 103.182 44.8281 103.182Z" fill="#BEC3D9"/>
<path d="M33.6989 144.119C35.4418 144.119 36.6562 143.101 36.6648 141.682C36.6562 140.578 35.919 139.641 34.9773 139.466V139.415C35.7955 139.202 36.3324 138.401 36.3409 137.472C36.3324 136.142 35.2159 135.153 33.6989 135.153C32.1648 135.153 31.0483 136.142 31.0568 137.472C31.0483 138.401 31.5852 139.202 32.4205 139.415V139.466C31.4616 139.641 30.7244 140.578 30.733 141.682C30.7244 143.101 31.9389 144.119 33.6989 144.119ZM33.6989 143.182C32.5014 143.182 31.7642 142.568 31.7727 141.631C31.7642 140.646 32.5781 139.943 33.6989 139.943C34.8026 139.943 35.6165 140.646 35.625 141.631C35.6165 142.568 34.8793 143.182 33.6989 143.182ZM33.6989 139.04C32.7443 139.04 32.071 138.443 32.0795 137.54C32.071 136.653 32.7188 136.074 33.6989 136.074C34.6619 136.074 35.3097 136.653 35.3182 137.54C35.3097 138.443 34.6364 139.04 33.6989 139.04ZM41.1445 144.119C43.0707 144.119 44.1786 142.487 44.1786 139.636C44.1786 136.807 43.0536 135.153 41.1445 135.153C39.2354 135.153 38.1104 136.807 38.1104 139.636C38.1104 142.487 39.2184 144.119 41.1445 144.119ZM41.1445 143.182C39.8746 143.182 39.1332 141.908 39.1332 139.636C39.1332 137.369 39.8832 136.074 41.1445 136.074C42.4059 136.074 43.1559 137.369 43.1559 139.636C43.1559 141.908 42.4144 143.182 41.1445 143.182Z" fill="#BEC3D9"/>
<path d="M34.8011 184.119C36.5653 184.141 37.7159 182.811 37.7159 181.188C37.7159 179.5 36.4673 178.29 34.9716 178.29C34.0724 178.29 33.3011 178.729 32.8239 179.449H32.7557C32.7599 177.322 33.5866 176.091 34.9375 176.091C35.858 176.091 36.4119 176.67 36.608 177.455H37.6477C37.4347 176.099 36.4034 175.153 34.9375 175.153C32.973 175.153 31.767 176.892 31.767 179.977C31.767 183.203 33.3693 184.102 34.8011 184.119ZM34.8011 183.182C33.706 183.182 32.9048 182.249 32.9091 181.205C32.9134 180.161 33.7528 179.227 34.8352 179.227C35.9048 179.227 36.6932 180.105 36.6932 181.188C36.6932 182.295 35.8707 183.182 34.8011 183.182ZM42.2383 184.119C44.1644 184.119 45.2724 182.487 45.2724 179.636C45.2724 176.807 44.1474 175.153 42.2383 175.153C40.3292 175.153 39.2042 176.807 39.2042 179.636C39.2042 182.487 40.3121 184.119 42.2383 184.119ZM42.2383 183.182C40.9684 183.182 40.2269 181.908 40.2269 179.636C40.2269 177.369 40.9769 176.074 42.2383 176.074C43.4996 176.074 44.2496 177.369 44.2496 179.636C44.2496 181.908 43.5082 183.182 42.2383 183.182Z" fill="#BEC3D9"/>
<path d="M30.6989 222.21H34.8068V224H35.8125V222.21H37.0057V221.273H35.8125V215.273H34.5341L30.6989 221.341V222.21ZM34.8068 221.273H31.8409V221.205L34.7386 216.619H34.8068V221.273ZM41.4492 224.119C43.3754 224.119 44.4833 222.487 44.4833 219.636C44.4833 216.807 43.3583 215.153 41.4492 215.153C39.5401 215.153 38.4151 216.807 38.4151 219.636C38.4151 222.487 39.5231 224.119 41.4492 224.119ZM41.4492 223.182C40.1793 223.182 39.4379 221.908 39.4379 219.636C39.4379 217.369 40.1879 216.074 41.4492 216.074C42.7106 216.074 43.4606 217.369 43.4606 219.636C43.4606 221.908 42.7191 223.182 41.4492 223.182Z" fill="#BEC3D9"/>
<path d="M31.9034 264H37.4091V263.062H33.3523V262.994L35.3125 260.898C36.8125 259.291 37.2557 258.541 37.2557 257.574C37.2557 256.227 36.1648 255.153 34.6307 255.153C33.1009 255.153 31.9375 256.193 31.9375 257.727H32.9432C32.9432 256.734 33.5866 256.074 34.5966 256.074C35.5426 256.074 36.267 256.653 36.267 257.574C36.267 258.379 35.794 258.976 34.7841 260.08L31.9034 263.233V264ZM42.0156 264.119C43.9418 264.119 45.0497 262.487 45.0497 259.636C45.0497 256.807 43.9247 255.153 42.0156 255.153C40.1065 255.153 38.9815 256.807 38.9815 259.636C38.9815 262.487 40.0895 264.119 42.0156 264.119ZM42.0156 263.182C40.7457 263.182 40.0043 261.908 40.0043 259.636C40.0043 257.369 40.7543 256.074 42.0156 256.074C43.277 256.074 44.027 257.369 44.027 259.636C44.027 261.908 43.2855 263.182 42.0156 263.182Z" fill="#BEC3D9"/>
<path d="M33.75 304.119C35.6761 304.119 36.7841 302.487 36.7841 299.636C36.7841 296.807 35.6591 295.153 33.75 295.153C31.8409 295.153 30.7159 296.807 30.7159 299.636C30.7159 302.487 31.8239 304.119 33.75 304.119ZM33.75 303.182C32.4801 303.182 31.7386 301.908 31.7386 299.636C31.7386 297.369 32.4886 296.074 33.75 296.074C35.0114 296.074 35.7614 297.369 35.7614 299.636C35.7614 301.908 35.0199 303.182 33.75 303.182Z" fill="#BEC3D9"/>
<path d="M69.8295 350.455H70.8523C70.8054 349.138 69.5909 348.153 67.9034 348.153C66.233 348.153 64.9205 349.125 64.9205 350.591C64.9205 351.767 65.7727 352.466 67.1364 352.858L68.2102 353.165C69.1307 353.42 69.9489 353.744 69.9489 354.614C69.9489 355.568 69.0284 356.199 67.8182 356.199C66.7784 356.199 65.858 355.739 65.7727 354.75H64.6818C64.7841 356.182 65.9432 357.153 67.8182 357.153C69.8295 357.153 70.9716 356.045 70.9716 354.631C70.9716 352.994 69.4205 352.466 68.517 352.227L67.6307 351.989C66.983 351.818 65.9432 351.477 65.9432 350.54C65.9432 349.705 66.7102 349.091 67.8693 349.091C68.9261 349.091 69.7273 349.594 69.8295 350.455ZM74.4989 357.153C75.641 357.153 76.2376 356.54 76.4421 356.114H76.4933V357H77.4989V352.688C77.4989 350.608 75.9137 350.369 75.0785 350.369C74.0898 350.369 72.9648 350.71 72.4535 351.903L73.408 352.244C73.6296 351.767 74.1538 351.256 75.1126 351.256C76.0373 351.256 76.4933 351.746 76.4933 352.585V352.619C76.4933 353.105 75.9989 353.062 74.8058 353.216C73.5913 353.374 72.266 353.642 72.266 355.142C72.266 356.42 73.2546 357.153 74.4989 357.153ZM74.6523 356.25C73.8512 356.25 73.2717 355.892 73.2717 355.193C73.2717 354.426 73.9705 354.188 74.7546 354.085C75.1808 354.034 76.3228 353.915 76.4933 353.71V354.631C76.4933 355.449 75.8455 356.25 74.6523 356.25ZM82.1811 350.455H80.7834V348.886H79.7777V350.455H78.7891V351.307H79.7777V355.398C79.7777 356.54 80.6982 357.085 81.5504 357.085C81.9254 357.085 82.1641 357.017 82.3004 356.966L82.0959 356.062C82.0107 356.08 81.8743 356.114 81.6527 356.114C81.2095 356.114 80.7834 355.977 80.7834 355.125V351.307H82.1811V350.455Z" fill="#BEC3D9"/>
<path d="M106.83 350.455H107.852C107.805 349.138 106.591 348.153 104.903 348.153C103.233 348.153 101.92 349.125 101.92 350.591C101.92 351.767 102.773 352.466 104.136 352.858L105.21 353.165C106.131 353.42 106.949 353.744 106.949 354.614C106.949 355.568 106.028 356.199 104.818 356.199C103.778 356.199 102.858 355.739 102.773 354.75H101.682C101.784 356.182 102.943 357.153 104.818 357.153C106.83 357.153 107.972 356.045 107.972 354.631C107.972 352.994 106.42 352.466 105.517 352.227L104.631 351.989C103.983 351.818 102.943 351.477 102.943 350.54C102.943 349.705 103.71 349.091 104.869 349.091C105.926 349.091 106.727 349.594 106.83 350.455ZM113.698 354.324C113.698 355.551 112.76 356.114 112.01 356.114C111.175 356.114 110.578 355.5 110.578 354.545V350.455H109.573V354.614C109.573 356.284 110.459 357.085 111.686 357.085C112.675 357.085 113.323 356.557 113.63 355.892H113.698V357H114.703V350.455H113.698V354.324ZM117.551 353.062C117.551 351.92 118.259 351.273 119.222 351.273C120.155 351.273 120.722 351.882 120.722 352.909V357H121.727V352.841C121.727 351.17 120.837 350.369 119.511 350.369C118.523 350.369 117.909 350.812 117.602 351.477H117.517V350.455H116.545V357H117.551V353.062Z" fill="#BEC3D9"/>
<path d="M142.057 348.273V357H143.045V350.369H143.131L145.858 357H146.812L149.54 350.369H149.625V357H150.614V348.273H149.352L146.386 355.517H146.284L143.318 348.273H142.057ZM155.255 357.136C157.028 357.136 158.221 355.79 158.221 353.761C158.221 351.716 157.028 350.369 155.255 350.369C153.483 350.369 152.289 351.716 152.289 353.761C152.289 355.79 153.483 357.136 155.255 357.136ZM155.255 356.233C153.909 356.233 153.295 355.074 153.295 353.761C153.295 352.449 153.909 351.273 155.255 351.273C156.602 351.273 157.216 352.449 157.216 353.761C157.216 355.074 156.602 356.233 155.255 356.233ZM160.762 353.062C160.762 351.92 161.469 351.273 162.433 351.273C163.366 351.273 163.933 351.882 163.933 352.909V357H164.938V352.841C164.938 351.17 164.048 350.369 162.722 350.369C161.734 350.369 161.12 350.812 160.813 351.477H160.728V350.455H159.756V357H160.762V353.062Z" fill="#BEC3D9"/>
<path d="M184.58 349.21H187.324V357H188.381V349.21H191.125V348.273H184.58V349.21ZM195.854 354.324C195.854 355.551 194.917 356.114 194.167 356.114C193.331 356.114 192.735 355.5 192.735 354.545V350.455H191.729V354.614C191.729 356.284 192.615 357.085 193.843 357.085C194.831 357.085 195.479 356.557 195.786 355.892H195.854V357H196.86V350.455H195.854V354.324ZM199.707 353.062C199.707 351.92 200.436 351.273 201.429 351.273C202.375 351.273 202.946 351.869 202.946 352.909V357H203.952V352.841C203.952 351.158 203.057 350.369 201.719 350.369C200.688 350.369 200.099 350.8 199.793 351.477H199.707V348.273H198.702V357H199.707V353.062Z" fill="#BEC3D9"/>
<path d="M225.642 357H226.733L228.659 350.045H228.727L230.653 357H231.744L234.131 348.273H233.057L231.233 355.381H231.148L229.29 348.273H228.097L226.239 355.381H226.153L224.33 348.273H223.256L225.642 357ZM237.446 357.136C238.776 357.136 239.747 356.472 240.054 355.483L239.082 355.21C238.827 355.892 238.234 356.233 237.446 356.233C236.266 356.233 235.452 355.47 235.405 354.068H240.156V353.642C240.156 351.205 238.707 350.369 237.344 350.369C235.571 350.369 234.395 351.767 234.395 353.778C234.395 355.79 235.554 357.136 237.446 357.136ZM235.405 353.199C235.473 352.18 236.193 351.273 237.344 351.273C238.435 351.273 239.134 352.091 239.134 353.199H235.405ZM244.158 357.136C245.419 357.136 245.845 356.352 246.067 355.994H246.186V357H247.158V348.273H246.152V351.494H246.067C245.845 351.153 245.453 350.369 244.175 350.369C242.521 350.369 241.379 351.682 241.379 353.744C241.379 355.824 242.521 357.136 244.158 357.136ZM244.294 356.233C243.033 356.233 242.385 355.125 242.385 353.727C242.385 352.347 243.016 351.273 244.294 351.273C245.521 351.273 246.169 352.261 246.169 353.727C246.169 355.21 245.504 356.233 244.294 356.233Z" fill="#BEC3D9"/>
<path d="M267.58 349.21H270.324V357H271.381V349.21H274.125V348.273H267.58V349.21ZM276.625 353.062C276.625 351.92 277.354 351.273 278.347 351.273C279.293 351.273 279.864 351.869 279.864 352.909V357H280.87V352.841C280.87 351.158 279.975 350.369 278.637 350.369C277.605 350.369 277.017 350.8 276.711 351.477H276.625V348.273H275.62V357H276.625V353.062ZM286.835 354.324C286.835 355.551 285.897 356.114 285.147 356.114C284.312 356.114 283.715 355.5 283.715 354.545V350.455H282.71V354.614C282.71 356.284 283.596 357.085 284.823 357.085C285.812 357.085 286.46 356.557 286.766 355.892H286.835V357H287.84V350.455H286.835V354.324Z" fill="#BEC3D9"/>
<path d="M308.057 357H309.114V353.097H312.898V352.159H309.114V349.21H313.29V348.273H308.057V357ZM314.893 357H315.899V352.858C315.899 351.972 316.598 351.324 317.552 351.324C317.821 351.324 318.098 351.375 318.166 351.392V350.369C318.051 350.361 317.787 350.352 317.637 350.352C316.853 350.352 316.172 350.795 315.933 351.443H315.865V350.455H314.893V357ZM319.358 357H320.364V350.455H319.358V357ZM319.869 349.364C320.261 349.364 320.585 349.057 320.585 348.682C320.585 348.307 320.261 348 319.869 348C319.477 348 319.153 348.307 319.153 348.682C319.153 349.057 319.477 349.364 319.869 349.364Z" fill="#BEC3D9"/>
<rect x="74" y="136" width="1" height="160" fill="#F1F6FF"/>
<rect x="113" y="160" width="1" height="170" fill="#F1F6FF"/>
<rect x="153" y="125" width="1" height="200" fill="#F1F6FF"/>
<rect x="191" y="135" width="1" height="200" fill="#F1F6FF"/>
<rect x="230" y="109" width="1" height="150" fill="#F1F6FF"/>
<rect x="269" y="152" width="1" height="180" fill="#F1F6FF"/>
<rect x="308" y="197" width="1" height="135" fill="#F1F6FF"/>
<rect x="67" y="187" width="15" height="64" rx="7.5" fill="#276BF0"/>
<rect x="106" y="214" width="15" height="73" rx="7.5" fill="#FFC24E"/>
<rect x="146" y="144" width="15" height="135" rx="7.5" fill="#276BF0"/>
<rect x="184" y="254" width="15" height="48" rx="7.5" fill="#FFC24E"/>
<rect x="223" y="135" width="15" height="82" rx="7.5" fill="#276BF0"/>
<rect x="263" y="202" width="15" height="82" rx="7.5" fill="#FFC24E"/>
<rect x="301" y="242" width="15" height="68" rx="7.5" fill="#276BF0"/>
<g filter="url(#filter0_d_3_1880)">
<rect x="193" y="156" width="487" height="372" rx="24" fill="white"/>
</g>
<path d="M236.381 190.455H233.49L238.611 205H241.864L246.991 190.455H244.094L240.315 201.903H240.166L236.381 190.455ZM248.794 205H251.365V194.091H248.794V205ZM250.086 192.543C250.903 192.543 251.571 191.918 251.571 191.151C251.571 190.376 250.903 189.751 250.086 189.751C249.262 189.751 248.595 190.376 248.595 191.151C248.595 191.918 249.262 192.543 250.086 192.543ZM262.631 196.974C262.276 195.128 260.798 193.949 258.241 193.949C255.614 193.949 253.824 195.241 253.831 197.259C253.824 198.849 254.804 199.901 256.899 200.334L258.76 200.724C259.761 200.945 260.23 201.349 260.23 201.967C260.23 202.713 259.42 203.274 258.199 203.274C257.02 203.274 256.253 202.763 256.033 201.783L253.526 202.024C253.845 204.027 255.528 205.213 258.206 205.213C260.933 205.213 262.858 203.8 262.865 201.733C262.858 200.178 261.857 199.226 259.797 198.778L257.936 198.381C256.828 198.132 256.388 197.749 256.395 197.116C256.388 196.378 257.205 195.866 258.277 195.866C259.463 195.866 260.088 196.513 260.287 197.23L262.631 196.974ZM264.985 205H267.556V194.091H264.985V205ZM266.278 192.543C267.094 192.543 267.762 191.918 267.762 191.151C267.762 190.376 267.094 189.751 266.278 189.751C265.454 189.751 264.786 190.376 264.786 191.151C264.786 191.918 265.454 192.543 266.278 192.543ZM275.647 194.091H273.495V191.477H270.924V194.091H269.376V196.08H270.924V202.145C270.91 204.197 272.402 205.206 274.333 205.149C275.065 205.128 275.569 204.986 275.846 204.893L275.413 202.884C275.271 202.919 274.98 202.983 274.66 202.983C274.014 202.983 273.495 202.756 273.495 201.719V196.08H275.647V194.091ZM282.439 205.213C285.635 205.213 287.666 202.962 287.666 199.588C287.666 196.207 285.635 193.949 282.439 193.949C279.243 193.949 277.212 196.207 277.212 199.588C277.212 202.962 279.243 205.213 282.439 205.213ZM282.453 203.153C280.685 203.153 279.818 201.577 279.818 199.581C279.818 197.585 280.685 195.987 282.453 195.987C284.193 195.987 285.06 197.585 285.06 199.581C285.06 201.577 284.193 203.153 282.453 203.153ZM289.848 205H292.419V198.587C292.419 197.202 293.463 196.222 294.877 196.222C295.31 196.222 295.85 196.3 296.07 196.371V194.006C295.836 193.963 295.431 193.935 295.147 193.935C293.897 193.935 292.853 194.645 292.455 195.909H292.341V194.091H289.848V205ZM306.4 196.974C306.045 195.128 304.568 193.949 302.011 193.949C299.383 193.949 297.593 195.241 297.6 197.259C297.593 198.849 298.574 199.901 300.669 200.334L302.529 200.724C303.531 200.945 304 201.349 304 201.967C304 202.713 303.19 203.274 301.968 203.274C300.789 203.274 300.022 202.763 299.802 201.783L297.295 202.024C297.615 204.027 299.298 205.213 301.975 205.213C304.703 205.213 306.627 203.8 306.635 201.733C306.627 200.178 305.626 199.226 303.566 198.778L301.706 198.381C300.598 198.132 300.157 197.749 300.164 197.116C300.157 196.378 300.974 195.866 302.047 195.866C303.233 195.866 303.858 196.513 304.056 197.23L306.4 196.974Z" fill="#182848"/>
<path d="M236.855 254.177C238.828 254.177 240.295 252.939 240.295 251.274C240.295 249.981 239.529 249.042 238.247 248.828V248.748C239.276 248.435 239.917 247.59 239.917 246.441C239.917 245 238.779 243.717 236.894 243.717C235.134 243.717 233.673 244.801 233.613 246.402H234.806C234.851 245.388 235.816 244.791 236.875 244.791C237.998 244.791 238.724 245.472 238.724 246.501C238.724 247.575 237.884 248.271 236.676 248.271H235.86V249.365H236.676C238.222 249.365 239.082 250.15 239.082 251.274C239.082 252.353 238.142 253.084 236.835 253.084C235.657 253.084 234.722 252.477 234.647 251.493H233.394C233.469 253.093 234.881 254.177 236.855 254.177ZM245.649 254.177C247.897 254.177 249.189 252.273 249.189 248.947C249.189 245.646 247.877 243.717 245.649 243.717C243.422 243.717 242.11 245.646 242.11 248.947C242.11 252.273 243.402 254.177 245.649 254.177ZM245.649 253.084C244.168 253.084 243.303 251.597 243.303 248.947C243.303 246.302 244.178 244.791 245.649 244.791C247.121 244.791 247.996 246.302 247.996 248.947C247.996 251.597 247.131 253.084 245.649 253.084ZM251.098 254.038H252.272V251.179L253.092 250.419L255.951 254.038H257.442L253.977 249.663L257.203 246.402H255.752L252.411 249.802H252.272V243.856H251.098V254.038Z" fill="#BEC3D9"/>
<path d="M234.133 310.038H240.556V308.944H235.823V308.865L238.11 306.419C239.86 304.544 240.377 303.669 240.377 302.541C240.377 300.97 239.105 299.717 237.315 299.717C235.53 299.717 234.173 300.93 234.173 302.72H235.346C235.346 301.562 236.097 300.791 237.275 300.791C238.379 300.791 239.224 301.467 239.224 302.541C239.224 303.481 238.672 304.177 237.494 305.464L234.133 309.143V310.038ZM245.931 310.177C248.178 310.177 249.47 308.273 249.47 304.947C249.47 301.646 248.158 299.717 245.931 299.717C243.703 299.717 242.391 301.646 242.391 304.947C242.391 308.273 243.684 310.177 245.931 310.177ZM245.931 309.084C244.449 309.084 243.584 307.597 243.584 304.947C243.584 302.302 244.459 300.791 245.931 300.791C247.402 300.791 248.277 302.302 248.277 304.947C248.277 307.597 247.412 309.084 245.931 309.084ZM251.38 310.038H252.553V307.179L253.373 306.419L256.232 310.038H257.723L254.258 305.663L257.485 302.402H256.033L252.692 305.802H252.553V299.856H251.38V310.038Z" fill="#BEC3D9"/>
<path d="M238.697 355.856H237.464L234.919 357.547V358.799L237.404 357.149H237.464V366.038H238.697V355.856ZM244.946 366.177C247.193 366.177 248.486 364.273 248.486 360.947C248.486 357.646 247.174 355.717 244.946 355.717C242.719 355.717 241.407 357.646 241.407 360.947C241.407 364.273 242.699 366.177 244.946 366.177ZM244.946 365.084C243.465 365.084 242.6 363.597 242.6 360.947C242.6 358.302 243.475 356.791 244.946 356.791C246.418 356.791 247.293 358.302 247.293 360.947C247.293 363.597 246.428 365.084 244.946 365.084ZM250.395 366.038H251.568V363.179L252.389 362.419L255.247 366.038H256.739L253.274 361.663L256.5 358.402H255.049L251.708 361.802H251.568V355.856H250.395V366.038Z" fill="#BEC3D9"/>
<path d="M241.669 422.177C243.608 422.177 245.03 420.745 245.03 418.797C245.03 416.823 243.658 415.376 241.789 415.376C241.103 415.376 240.436 415.62 240.019 415.953H239.959L240.317 412.95H244.573V411.856H239.283L238.667 416.868L239.82 417.007C240.243 416.704 240.963 416.485 241.59 416.49C242.887 416.5 243.837 417.484 243.837 418.816C243.837 420.124 242.922 421.084 241.669 421.084C240.625 421.084 239.795 420.412 239.701 419.493H238.507C238.582 421.044 239.919 422.177 241.669 422.177ZM247.025 422.038H248.198V419.179L249.019 418.419L251.877 422.038H253.369L249.904 417.663L253.13 414.402H251.678L248.338 417.802H248.198V411.856H247.025V422.038Z" fill="#BEC3D9"/>
<path d="M276.234 473.818V484H277.387V476.264H277.487L280.669 484H281.782L284.964 476.264H285.063V484H286.217V473.818H284.745L281.285 482.27H281.166L277.706 473.818H276.234ZM291.632 484.159C293.7 484.159 295.092 482.588 295.092 480.222C295.092 477.835 293.7 476.264 291.632 476.264C289.564 476.264 288.172 477.835 288.172 480.222C288.172 482.588 289.564 484.159 291.632 484.159ZM291.632 483.105C290.061 483.105 289.345 481.753 289.345 480.222C289.345 478.69 290.061 477.318 291.632 477.318C293.203 477.318 293.919 478.69 293.919 480.222C293.919 481.753 293.203 483.105 291.632 483.105ZM298.057 479.406C298.057 478.074 298.882 477.318 300.006 477.318C301.094 477.318 301.756 478.029 301.756 479.227V484H302.929V479.148C302.929 477.199 301.89 476.264 300.344 476.264C299.19 476.264 298.474 476.781 298.116 477.557H298.017V476.364H296.883V484H298.057V479.406Z" fill="#BEC3D9"/>
<path d="M344.063 474.912H347.265V484H348.498V474.912H351.699V473.818H344.063V474.912ZM357.216 480.878C357.216 482.31 356.123 482.966 355.248 482.966C354.273 482.966 353.577 482.25 353.577 481.136V476.364H352.404V481.216C352.404 483.165 353.438 484.099 354.87 484.099C356.023 484.099 356.779 483.483 357.137 482.707H357.216V484H358.39V476.364H357.216V480.878ZM363.74 484.159C365.292 484.159 366.425 483.384 366.783 482.23L365.65 481.912C365.351 482.707 364.66 483.105 363.74 483.105C362.363 483.105 361.414 482.215 361.359 480.58H366.902V480.082C366.902 477.239 365.212 476.264 363.621 476.264C361.553 476.264 360.181 477.895 360.181 480.241C360.181 482.588 361.533 484.159 363.74 484.159ZM361.359 479.565C361.439 478.377 362.279 477.318 363.621 477.318C364.894 477.318 365.709 478.273 365.709 479.565H361.359Z" fill="#BEC3D9"/>
<path d="M410.371 484H411.644L413.891 475.886H413.971L416.218 484H417.491L420.275 473.818H419.022L416.894 482.111H416.795L414.627 473.818H413.235L411.067 482.111H410.968L408.84 473.818H407.587L410.371 484ZM424.143 484.159C425.694 484.159 426.827 483.384 427.185 482.23L426.052 481.912C425.754 482.707 425.062 483.105 424.143 483.105C422.766 483.105 421.816 482.215 421.761 480.58H427.305V480.082C427.305 477.239 425.614 476.264 424.023 476.264C421.955 476.264 420.583 477.895 420.583 480.241C420.583 482.588 421.935 484.159 424.143 484.159ZM421.761 479.565C421.841 478.377 422.681 477.318 424.023 477.318C425.296 477.318 426.112 478.273 426.112 479.565H421.761ZM431.973 484.159C433.445 484.159 433.942 483.244 434.2 482.827H434.339V484H435.473V473.818H434.3V477.577H434.2C433.942 477.179 433.484 476.264 431.993 476.264C430.064 476.264 428.732 477.795 428.732 480.202C428.732 482.628 430.064 484.159 431.973 484.159ZM432.132 483.105C430.661 483.105 429.905 481.812 429.905 480.182C429.905 478.571 430.641 477.318 432.132 477.318C433.564 477.318 434.32 478.472 434.32 480.182C434.32 481.912 433.544 483.105 432.132 483.105Z" fill="#BEC3D9"/>
<path d="M478.982 474.912H482.184V484H483.416V474.912H486.618V473.818H478.982V474.912ZM489.535 479.406C489.535 478.074 490.385 477.318 491.544 477.318C492.647 477.318 493.314 478.014 493.314 479.227V484H494.487V479.148C494.487 477.184 493.443 476.264 491.882 476.264C490.679 476.264 489.993 476.766 489.635 477.557H489.535V473.818H488.362V484H489.535V479.406ZM501.446 480.878C501.446 482.31 500.352 482.966 499.477 482.966C498.503 482.966 497.807 482.25 497.807 481.136V476.364H496.633V481.216C496.633 483.165 497.668 484.099 499.099 484.099C500.253 484.099 501.008 483.483 501.366 482.707H501.446V484H502.619V476.364H501.446V480.878Z" fill="#BEC3D9"/>
<path d="M547.4 484H548.633V479.446H553.048V478.352H548.633V474.912H553.505V473.818H547.4V484ZM555.376 484H556.549V479.168C556.549 478.134 557.364 477.378 558.478 477.378C558.791 477.378 559.114 477.438 559.194 477.457V476.264C559.06 476.254 558.751 476.244 558.577 476.244C557.663 476.244 556.867 476.761 556.589 477.517H556.509V476.364H555.376V484ZM560.585 484H561.758V476.364H560.585V484ZM561.181 475.091C561.639 475.091 562.016 474.733 562.016 474.295C562.016 473.858 561.639 473.5 561.181 473.5C560.724 473.5 560.346 473.858 560.346 474.295C560.346 474.733 560.724 475.091 561.181 475.091Z" fill="#BEC3D9"/>
<path d="M608.85 476.364H610.043C609.988 474.827 608.572 473.679 606.603 473.679C604.654 473.679 603.123 474.812 603.123 476.523C603.123 477.895 604.117 478.71 605.708 479.168L606.961 479.526C608.035 479.824 608.989 480.202 608.989 481.216C608.989 482.33 607.915 483.065 606.503 483.065C605.29 483.065 604.216 482.528 604.117 481.375H602.844C602.964 483.045 604.316 484.179 606.503 484.179C608.85 484.179 610.182 482.886 610.182 481.236C610.182 479.327 608.373 478.71 607.319 478.432L606.285 478.153C605.529 477.955 604.316 477.557 604.316 476.463C604.316 475.489 605.211 474.773 606.563 474.773C607.796 474.773 608.731 475.359 608.85 476.364ZM614.298 484.179C615.63 484.179 616.326 483.463 616.565 482.966H616.624V484H617.798V478.969C617.798 476.543 615.948 476.264 614.974 476.264C613.82 476.264 612.508 476.662 611.911 478.054L613.025 478.452C613.283 477.895 613.895 477.298 615.013 477.298C616.092 477.298 616.624 477.87 616.624 478.849V478.889C616.624 479.456 616.048 479.406 614.656 479.585C613.239 479.769 611.692 480.082 611.692 481.832C611.692 483.324 612.846 484.179 614.298 484.179ZM614.477 483.125C613.542 483.125 612.866 482.707 612.866 481.892C612.866 480.997 613.681 480.719 614.596 480.599C615.093 480.54 616.425 480.401 616.624 480.162V481.236C616.624 482.19 615.869 483.125 614.477 483.125ZM623.26 476.364H621.629V474.534H620.456V476.364H619.303V477.358H620.456V482.131C620.456 483.463 621.53 484.099 622.524 484.099C622.962 484.099 623.24 484.02 623.399 483.96L623.161 482.906C623.061 482.926 622.902 482.966 622.644 482.966C622.127 482.966 621.629 482.807 621.629 481.812V477.358H623.26V476.364Z" fill="#BEC3D9"/>
<line x1="275" y1="252.788" x2="628" y2="252.788" stroke="#EDEFF2" stroke-width="0.5"/>
<line x1="275" y1="302.788" x2="628" y2="302.788" stroke="#EDEFF2" stroke-width="0.5"/>
<line x1="275" y1="352.788" x2="628" y2="352.788" stroke="#EDEFF2" stroke-width="0.5"/>
<line x1="275" y1="402.788" x2="628" y2="402.788" stroke="#EDEFF2" stroke-width="0.5"/>
<line x1="275" y1="452.788" x2="628" y2="452.788" stroke="#EDEFF2" stroke-width="0.5"/>
<rect x="275" y="354" width="25" height="99" rx="12.5" fill="#FFC24E"/>
<rect x="340" y="326" width="25" height="127" rx="12.5" fill="#276BF0"/>
<rect x="405" y="347" width="25" height="106" rx="12.5" fill="#FFC24E"/>
<rect x="470" y="386" width="25" height="67" rx="12.5" fill="#276BF0"/>
<rect x="535" y="292" width="25" height="161" rx="12.5" fill="#FFC24E"/>
<rect x="600" y="253" width="25" height="200" rx="12.5" fill="#276BF0"/>
<defs>
<filter id="filter0_d_3_1880" x="133" y="156" width="607" height="502" filterUnits="userSpaceOnUse" color-interpolation-filters="sRGB">
<feFlood flood-opacity="0" result="BackgroundImageFix"/>
<feColorMatrix in="SourceAlpha" type="matrix" values="0 0 0 0 0 0 0 0 0 0 0 0 0 0 0 0 0 0 127 0" result="hardAlpha"/>
<feMorphology radius="20" operator="erode" in="SourceAlpha" result="effect1_dropShadow_3_1880"/>
<feOffset dy="70"/>
<feGaussianBlur stdDeviation="40"/>
<feColorMatrix type="matrix" values="0 0 0 0 0 0 0 0 0 0 0 0 0 0 0 0 0 0 0.05 0"/>
<feBlend mode="normal" in2="BackgroundImageFix" result="effect1_dropShadow_3_1880"/>
<feBlend mode="normal" in="SourceGraphic" in2="effect1_dropShadow_3_1880" result="shape"/>
</filter>
</defs>
</svg>
