<svg width="727" height="437" viewBox="0 0 727 437" fill="none" xmlns="http://www.w3.org/2000/svg">
<rect x="0.5" y="37.5" width="549" height="399" rx="17.5" fill="white" stroke="#EDEFF2"/>
<path d="M44.5845 146.98C46.5583 146.98 48.0249 145.742 48.0249 144.076C48.0249 142.784 47.2592 141.844 45.9766 141.63V141.551C47.0057 141.237 47.647 140.392 47.647 139.244C47.647 137.802 46.5085 136.519 44.6243 136.519C42.8644 136.519 41.4027 137.603 41.3431 139.204H42.5362C42.581 138.19 43.5455 137.593 44.6044 137.593C45.728 137.593 46.4539 138.274 46.4539 139.303C46.4539 140.377 45.6137 141.073 44.4056 141.073H43.5902V142.167H44.4056C45.9517 142.167 46.8118 142.953 46.8118 144.076C46.8118 145.155 45.8722 145.886 44.5646 145.886C43.3864 145.886 42.4517 145.279 42.3771 144.295H41.1243C41.1989 145.896 42.6108 146.98 44.5845 146.98ZM53.3793 146.98C55.6264 146.98 56.9191 145.075 56.9191 141.749C56.9191 138.448 55.6066 136.519 53.3793 136.519C51.152 136.519 49.8395 138.448 49.8395 141.749C49.8395 145.075 51.1321 146.98 53.3793 146.98ZM53.3793 145.886C51.8977 145.886 51.0327 144.399 51.0327 141.749C51.0327 139.105 51.9077 137.593 53.3793 137.593C54.8509 137.593 55.7259 139.105 55.7259 141.749C55.7259 144.399 54.8608 145.886 53.3793 145.886ZM58.8281 146.84H60.0014V143.982L60.8217 143.221L63.6804 146.84H65.1719L61.7067 142.465L64.9333 139.204H63.4816L60.1406 142.605H60.0014V136.659H58.8281V146.84Z" fill="#BEC3D9"/>
<path d="M40.6136 88.9119H45.4062V91H46.5795V88.9119H47.9715V87.8182H46.5795V80.8182H45.088L40.6136 87.8977V88.9119ZM45.4062 87.8182H41.946V87.7386L45.3266 82.3892H45.4062V87.8182ZM53.1556 91.1392C55.4028 91.1392 56.6954 89.2351 56.6954 85.9091C56.6954 82.608 55.3829 80.679 53.1556 80.679C50.9284 80.679 49.6159 82.608 49.6159 85.9091C49.6159 89.2351 50.9085 91.1392 53.1556 91.1392ZM53.1556 90.0455C51.6741 90.0455 50.8091 88.5589 50.8091 85.9091C50.8091 83.2642 51.6841 81.7528 53.1556 81.7528C54.6272 81.7528 55.5022 83.2642 55.5022 85.9091C55.5022 88.5589 54.6372 90.0455 53.1556 90.0455ZM58.6045 91H59.7778V88.1413L60.5981 87.3807L63.4568 91H64.9483L61.4831 86.625L64.7096 83.3636H63.2579L59.917 86.7642H59.7778V80.8182H58.6045V91Z" fill="#BEC3D9"/>
<path d="M41.9442 202.68H48.3675V201.587H43.6345V201.507L45.9215 199.061C47.6715 197.187 48.1885 196.312 48.1885 195.183C48.1885 193.612 46.9158 192.359 45.126 192.359C43.3412 192.359 41.984 193.572 41.984 195.362H43.1573C43.1573 194.204 43.908 193.433 45.0862 193.433C46.1899 193.433 47.0351 194.109 47.0351 195.183C47.0351 196.123 46.4833 196.819 45.305 198.107L41.9442 201.786V202.68ZM53.7418 202.82C55.9889 202.82 57.2816 200.916 57.2816 197.59C57.2816 194.288 55.9691 192.359 53.7418 192.359C51.5145 192.359 50.202 194.288 50.202 197.59C50.202 200.916 51.4946 202.82 53.7418 202.82ZM53.7418 201.726C52.2603 201.726 51.3952 200.239 51.3952 197.59C51.3952 194.945 52.2702 193.433 53.7418 193.433C55.2134 193.433 56.0884 194.945 56.0884 197.59C56.0884 200.239 55.2233 201.726 53.7418 201.726ZM59.1907 202.68H60.3639V199.822L61.1843 199.061L64.0429 202.68H65.5344L62.0692 198.305L65.2958 195.044H63.8441L60.5032 198.445H60.3639V192.499H59.1907V202.68Z" fill="#BEC3D9"/>
<path d="M47.6628 248.339H46.4299L43.8844 250.029V251.282L46.3702 249.631H46.4299V258.521H47.6628V248.339ZM53.9121 258.66C56.1593 258.66 57.4519 256.756 57.4519 253.43C57.4519 250.128 56.1394 248.199 53.9121 248.199C51.6849 248.199 50.3724 250.128 50.3724 253.43C50.3724 256.756 51.665 258.66 53.9121 258.66ZM53.9121 257.566C52.4306 257.566 51.5655 256.079 51.5655 253.43C51.5655 250.785 52.4405 249.273 53.9121 249.273C55.3837 249.273 56.2587 250.785 56.2587 253.43C56.2587 256.079 55.3937 257.566 53.9121 257.566ZM59.361 258.521H60.5343V255.662L61.3546 254.901L64.2133 258.521H65.7047L62.2395 254.146L65.4661 250.884H64.0144L60.6735 254.285H60.5343V248.339H59.361V258.521Z" fill="#BEC3D9"/>
<path d="M54.1072 314.5C56.0461 314.5 57.468 313.068 57.468 311.119C57.468 309.146 56.0958 307.699 54.2265 307.699C53.5404 307.699 52.8742 307.943 52.4566 308.276H52.3969L52.7549 305.273H57.0106V304.179H51.7208L51.1043 309.19L52.2577 309.33C52.6803 309.026 53.4012 308.808 54.0276 308.813C55.3252 308.822 56.2748 309.807 56.2748 311.139C56.2748 312.447 55.36 313.406 54.1072 313.406C53.0631 313.406 52.2329 312.735 52.1384 311.815H50.9452C51.0198 313.367 52.3572 314.5 54.1072 314.5ZM59.4628 314.361H60.6361V311.502L61.4564 310.742L64.3151 314.361H65.8066L62.3414 309.986L65.5679 306.724H64.1162L60.7753 310.125H60.6361V304.179H59.4628V314.361Z" fill="#BEC3D9"/>
<path d="M109.39 380.299V390.481H110.543V382.745H110.643L113.825 390.481H114.938L118.12 382.745H118.219V390.481H119.373V380.299H117.901L114.441 388.751H114.322L110.862 380.299H109.39ZM123.933 390.66C125.265 390.66 125.961 389.944 126.2 389.447H126.26V390.481H127.433V385.45C127.433 383.024 125.584 382.745 124.609 382.745C123.456 382.745 122.143 383.143 121.547 384.535L122.66 384.933C122.919 384.376 123.53 383.779 124.649 383.779C125.728 383.779 126.26 384.351 126.26 385.331V385.37C126.26 385.937 125.683 385.887 124.291 386.066C122.874 386.25 121.328 386.564 121.328 388.314C121.328 389.805 122.481 390.66 123.933 390.66ZM124.112 389.606C123.177 389.606 122.501 389.189 122.501 388.373C122.501 387.478 123.317 387.2 124.231 387.081C124.729 387.021 126.061 386.882 126.26 386.643V387.717C126.26 388.672 125.504 389.606 124.112 389.606ZM130.057 393.345C131.116 393.345 131.862 392.783 132.304 391.595L135.555 382.865L134.273 382.845L132.165 388.93H132.085L129.977 382.845H128.705L131.528 390.521L131.31 391.118C130.882 392.281 130.355 392.39 129.5 392.172L129.202 393.206C129.321 393.265 129.659 393.345 130.057 393.345Z" fill="#BEC3D9"/>
<path d="M206.15 380.299V387.578C206.15 388.846 205.543 389.527 204.48 389.527C203.51 389.527 202.809 388.96 202.809 388.095H201.596C201.596 389.661 202.809 390.62 204.48 390.62C206.249 390.62 207.383 389.532 207.383 387.578V380.299H206.15ZM214.507 387.359C214.507 388.791 213.414 389.447 212.539 389.447C211.564 389.447 210.868 388.731 210.868 387.618V382.845H209.695V387.697C209.695 389.646 210.729 390.581 212.161 390.581C213.314 390.581 214.07 389.964 214.428 389.189H214.507V390.481H215.681V382.845H214.507V387.359ZM219.003 385.887C219.003 384.555 219.828 383.799 220.952 383.799C222.04 383.799 222.702 384.51 222.702 385.708V390.481H223.875V385.629C223.875 383.68 222.836 382.745 221.29 382.745C220.136 382.745 219.42 383.262 219.062 384.038H218.963V382.845H217.83V390.481H219.003V385.887Z" fill="#BEC3D9"/>
<path d="M298.02 380.299V387.518C298.015 388.691 297.468 389.318 296.494 389.318C295.594 389.318 294.968 388.781 294.963 387.936H293.436C293.436 389.656 294.729 390.62 296.454 390.62C298.323 390.62 299.546 389.477 299.551 387.518V380.299H298.02ZM306.505 387.314C306.51 388.612 305.546 389.228 304.711 389.228C303.791 389.228 303.155 388.562 303.155 387.523V382.845H301.668V387.702C301.668 389.596 302.707 390.581 304.174 390.581C305.322 390.581 306.103 389.974 306.456 389.159H306.535V390.481H307.997V382.845H306.505V387.314ZM311.481 380.299H309.994V390.481H311.481V380.299Z" fill="#276BF0"/>
<path d="M377.564 390.481L378.498 387.787H382.476L383.405 390.481H385.036L381.372 380.299H379.597L375.933 390.481H377.564ZM378.946 386.494L380.447 382.149H380.527L382.028 386.494H378.946ZM391.224 387.314C391.229 388.612 390.265 389.228 389.43 389.228C388.51 389.228 387.873 388.562 387.873 387.523V382.845H386.387V387.702C386.387 389.596 387.426 390.581 388.893 390.581C390.041 390.581 390.822 389.974 391.175 389.159H391.254V390.481H392.716V382.845H391.224V387.314ZM397.915 393.504C399.859 393.504 401.36 392.614 401.36 390.65V382.845H399.903V384.083H399.794C399.531 383.61 399.004 382.745 397.582 382.745C395.737 382.745 394.38 384.202 394.38 386.633C394.38 389.069 395.767 390.367 397.572 390.367C398.974 390.367 399.516 389.576 399.784 389.089H399.879V390.591C399.879 391.789 399.058 392.306 397.93 392.306C396.692 392.306 396.21 391.684 395.946 391.247L394.668 391.774C395.071 392.708 396.09 393.504 397.915 393.504ZM397.9 389.134C396.572 389.134 395.881 388.115 395.881 386.613C395.881 385.147 396.558 384.008 397.9 384.008C399.197 384.008 399.893 385.067 399.893 386.613C399.893 388.189 399.183 389.134 397.9 389.134Z" fill="#BEC3D9"/>
<path d="M470.376 382.845H471.57C471.515 381.309 470.098 380.16 468.129 380.16C466.18 380.16 464.649 381.294 464.649 383.004C464.649 384.376 465.644 385.191 467.234 385.649L468.487 386.007C469.561 386.305 470.516 386.683 470.516 387.697C470.516 388.811 469.442 389.547 468.03 389.547C466.817 389.547 465.743 389.01 465.644 387.856H464.371C464.49 389.527 465.842 390.66 468.03 390.66C470.376 390.66 471.709 389.368 471.709 387.717C471.709 385.808 469.899 385.191 468.845 384.913L467.811 384.635C467.055 384.436 465.842 384.038 465.842 382.944C465.842 381.97 466.737 381.254 468.09 381.254C469.322 381.254 470.257 381.841 470.376 382.845ZM476.779 390.64C478.33 390.64 479.463 389.865 479.821 388.711L478.688 388.393C478.389 389.189 477.698 389.586 476.779 389.586C475.402 389.586 474.452 388.696 474.397 387.061H479.941V386.564C479.941 383.72 478.25 382.745 476.659 382.745C474.591 382.745 473.219 384.376 473.219 386.723C473.219 389.069 474.571 390.64 476.779 390.64ZM474.397 386.047C474.477 384.858 475.317 383.799 476.659 383.799C477.932 383.799 478.747 384.754 478.747 386.047H474.397ZM481.725 393.345H482.899V389.308H482.998C483.257 389.726 483.754 390.64 485.225 390.64C487.134 390.64 488.467 389.109 488.467 386.683C488.467 384.277 487.134 382.745 485.205 382.745C483.714 382.745 483.257 383.66 482.998 384.058H482.859V382.845H481.725V393.345ZM482.879 386.663C482.879 384.953 483.634 383.799 485.066 383.799C486.558 383.799 487.294 385.052 487.294 386.663C487.294 388.294 486.538 389.586 485.066 389.586C483.654 389.586 482.879 388.393 482.879 386.663Z" fill="#BEC3D9"/>
<line x1="92.9997" y1="145.75" x2="511" y2="145.75" stroke="#EDEFF2" stroke-width="0.5"/>
<line x1="93.9997" y1="85.75" x2="512" y2="85.75" stroke="#EDEFF2" stroke-width="0.5"/>
<line x1="92.9997" y1="205.75" x2="511" y2="205.75" stroke="#EDEFF2" stroke-width="0.5"/>
<line x1="92.9997" y1="265.75" x2="511" y2="265.75" stroke="#EDEFF2" stroke-width="0.5"/>
<line x1="92.9997" y1="325.75" x2="511" y2="325.75" stroke="#EDEFF2" stroke-width="0.5"/>
<g opacity="0.2" filter="url(#filter0_f_3_1796)">
<path d="M98.4992 288C115.287 266.581 179.279 214.5 227.499 214.5C280.999 214.5 307.922 247.142 369.864 251.773C385.499 252.942 405.176 248.176 438.174 230.354C480.776 207.343 508.499 191.5 508.499 191.5" stroke="#1F3BB2" stroke-opacity="0.1" stroke-width="2"/>
</g>
<line x1="407.5" y1="127" x2="407.5" y2="326" stroke="#FFC24E" stroke-dasharray="5.79 5.79"/>
<path d="M93.4997 291.548C110.197 258.697 166 192.994 231.295 192.994C274 192.994 293.816 228.307 355.758 232.938C390 235.498 409.016 226.57 448.381 187.205C487.746 147.84 507.621 141.472 512.638 142.63" stroke="#276BF0" stroke-width="8" stroke-linecap="round"/>
<circle cx="406.419" cy="218.42" r="10.4201" fill="white"/>
<circle cx="406.499" cy="218.5" r="3.5" fill="#FFC24E"/>
<g filter="url(#filter1_d_3_1796)">
<rect x="462" width="215" height="260" rx="24" fill="white"/>
</g>
<path d="M506.452 236H509.205V235.531H507.176V235.497L508.156 234.449C508.906 233.646 509.128 233.271 509.128 232.787C509.128 232.114 508.582 231.577 507.815 231.577C507.05 231.577 506.469 232.097 506.469 232.864H506.972C506.972 232.367 507.293 232.037 507.798 232.037C508.271 232.037 508.634 232.327 508.634 232.787C508.634 233.19 508.397 233.488 507.892 234.04L506.452 235.616V236ZM511.508 236.06C512.471 236.06 513.025 235.244 513.025 233.818C513.025 232.403 512.462 231.577 511.508 231.577C510.553 231.577 509.991 232.403 509.991 233.818C509.991 235.244 510.545 236.06 511.508 236.06ZM511.508 235.591C510.873 235.591 510.502 234.954 510.502 233.818C510.502 232.685 510.877 232.037 511.508 232.037C512.138 232.037 512.513 232.685 512.513 233.818C512.513 234.954 512.143 235.591 511.508 235.591ZM515.718 233.584H513.809V234.053H515.718V233.584ZM516.389 236H519.142V235.531H517.114V235.497L518.094 234.449C518.844 233.646 519.065 233.271 519.065 232.787C519.065 232.114 518.52 231.577 517.753 231.577C516.988 231.577 516.406 232.097 516.406 232.864H516.909C516.909 232.367 517.231 232.037 517.736 232.037C518.209 232.037 518.571 232.327 518.571 232.787C518.571 233.19 518.335 233.488 517.83 234.04L516.389 235.616V236ZM521.386 236.06C522.217 236.06 522.826 235.446 522.826 234.611C522.826 233.765 522.238 233.145 521.437 233.145C521.143 233.145 520.857 233.249 520.678 233.392H520.653L520.806 232.105H522.63V231.636H520.363L520.099 233.784L520.593 233.844C520.774 233.714 521.083 233.62 521.352 233.622C521.908 233.626 522.315 234.048 522.315 234.619C522.315 235.18 521.923 235.591 521.386 235.591C520.938 235.591 520.582 235.303 520.542 234.909H520.031C520.062 235.574 520.636 236.06 521.386 236.06ZM525.692 237.227C526.146 237.227 526.466 236.987 526.655 236.477L528.049 232.736L527.499 232.727L526.596 235.335H526.562L525.658 232.727H525.113L526.323 236.017L526.229 236.273C526.046 236.771 525.82 236.818 525.454 236.724L525.326 237.168C525.377 237.193 525.522 237.227 525.692 237.227ZM529.969 236.068C530.634 236.068 531.12 235.736 531.273 235.241L530.787 235.105C530.659 235.446 530.363 235.616 529.969 235.616C529.379 235.616 528.972 235.235 528.949 234.534H531.324V234.321C531.324 233.102 530.6 232.685 529.918 232.685C529.032 232.685 528.444 233.384 528.444 234.389C528.444 235.395 529.023 236.068 529.969 236.068ZM528.949 234.099C528.983 233.59 529.343 233.136 529.918 233.136C530.463 233.136 530.813 233.545 530.813 234.099H528.949ZM533.052 236.077C533.623 236.077 533.922 235.77 534.024 235.557H534.049V236H534.552V233.844C534.552 232.804 533.76 232.685 533.342 232.685C532.848 232.685 532.285 232.855 532.029 233.452L532.507 233.622C532.618 233.384 532.88 233.128 533.359 233.128C533.821 233.128 534.049 233.373 534.049 233.793V233.81C534.049 234.053 533.802 234.031 533.206 234.108C532.598 234.187 531.936 234.321 531.936 235.071C531.936 235.71 532.43 236.077 533.052 236.077ZM533.129 235.625C532.728 235.625 532.439 235.446 532.439 235.097C532.439 234.713 532.788 234.594 533.18 234.543C533.393 234.517 533.964 234.457 534.049 234.355V234.815C534.049 235.224 533.725 235.625 533.129 235.625ZM535.47 236H535.973V233.929C535.973 233.486 536.322 233.162 536.8 233.162C536.934 233.162 537.072 233.188 537.106 233.196V232.685C537.049 232.68 536.917 232.676 536.842 232.676C536.45 232.676 536.109 232.898 535.99 233.222H535.956V232.727H535.47V236Z" fill="#BDC2D8"/>
<path d="M519.239 224.099C520.759 224.114 521.767 223.02 521.763 221.624C521.767 220.232 520.755 219.234 519.494 219.234C518.727 219.234 518.063 219.604 517.69 220.218H517.637C517.641 218.567 518.266 217.587 519.331 217.587C520.031 217.587 520.471 218.013 520.62 218.616H521.703C521.536 217.466 520.631 216.628 519.331 216.628C517.641 216.628 516.586 218.08 516.586 220.609C516.582 223.286 517.946 224.089 519.239 224.099ZM519.235 223.176C518.39 223.176 517.772 222.466 517.772 221.649C517.776 220.836 518.422 220.126 519.26 220.126C520.091 220.126 520.702 220.797 520.698 221.638C520.702 222.498 520.066 223.176 519.235 223.176ZM525.458 224.099C526.921 224.099 527.965 223.066 527.961 221.649C527.965 220.243 526.985 219.22 525.66 219.22C525.12 219.22 524.619 219.426 524.335 219.703H524.293L524.524 217.668H527.61V216.727H523.611L523.203 220.392L524.208 220.541C524.481 220.296 524.971 220.129 525.411 220.129C526.274 220.136 526.899 220.783 526.899 221.67C526.899 222.544 526.292 223.176 525.458 223.176C524.754 223.176 524.197 222.729 524.14 222.104H523.075C523.117 223.261 524.122 224.099 525.458 224.099ZM533.054 222.636C533.058 223.457 533.573 224.149 534.535 224.149C535.487 224.149 536.009 223.457 536.009 222.636V222.253C536.009 221.429 535.501 220.74 534.535 220.74C533.587 220.74 533.058 221.433 533.054 222.253V222.636ZM529.397 218.474C529.397 219.295 529.915 219.987 530.877 219.987C531.826 219.987 532.351 219.298 532.348 218.474V218.091C532.351 217.267 531.84 216.578 530.877 216.578C529.933 216.578 529.397 217.267 529.397 218.091V218.474ZM529.695 224H530.544L535.544 216.727H534.695L529.695 224ZM533.882 222.253C533.885 221.844 534.063 221.45 534.535 221.45C535.025 221.45 535.178 221.844 535.178 222.253V222.636C535.178 223.045 535.011 223.439 534.535 223.439C534.052 223.439 533.885 223.041 533.882 222.636V222.253ZM530.228 218.091C530.228 217.686 530.405 217.288 530.877 217.288C531.368 217.288 531.52 217.683 531.52 218.091V218.474C531.52 218.883 531.353 219.277 530.877 219.277C530.395 219.277 530.228 218.883 530.228 218.474V218.091Z" fill="#0D1E3F"/>
<circle cx="508.943" cy="219.943" r="2.94321" fill="#276BF0"/>
<path d="M555.451 236H558.204V235.531H556.175V235.497L557.155 234.449C557.905 233.646 558.127 233.271 558.127 232.787C558.127 232.114 557.581 231.577 556.814 231.577C556.05 231.577 555.468 232.097 555.468 232.864H555.971C555.971 232.367 556.292 232.037 556.797 232.037C557.27 232.037 557.633 232.327 557.633 232.787C557.633 233.19 557.396 233.488 556.891 234.04L555.451 235.616V236ZM560.532 236.06C561.415 236.07 561.99 235.406 561.99 234.594C561.99 233.75 561.366 233.145 560.618 233.145C560.168 233.145 559.782 233.364 559.544 233.724H559.51C559.512 232.661 559.925 232.045 560.601 232.045C561.061 232.045 561.338 232.335 561.436 232.727H561.956C561.849 232.05 561.334 231.577 560.601 231.577C559.618 231.577 559.015 232.446 559.015 233.989C559.015 235.602 559.817 236.051 560.532 236.06ZM560.532 235.591C559.985 235.591 559.584 235.124 559.586 234.602C559.589 234.08 560.008 233.614 560.55 233.614C561.084 233.614 561.478 234.053 561.478 234.594C561.478 235.148 561.067 235.591 560.532 235.591ZM564.711 233.584H562.802V234.053H564.711V233.584ZM566.992 236.06C567.838 236.06 568.466 235.529 568.466 234.815C568.466 234.261 568.138 233.859 567.588 233.767V233.733C568.029 233.599 568.304 233.237 568.304 232.744C568.304 232.126 567.816 231.577 567.009 231.577C566.254 231.577 565.628 232.041 565.602 232.727H566.114C566.133 232.293 566.546 232.037 567 232.037C567.482 232.037 567.793 232.329 567.793 232.77C567.793 233.23 567.433 233.528 566.915 233.528H566.565V233.997H566.915C567.578 233.997 567.946 234.334 567.946 234.815C567.946 235.278 567.543 235.591 566.983 235.591C566.478 235.591 566.078 235.331 566.046 234.909H565.509C565.541 235.595 566.146 236.06 566.992 236.06ZM570.701 236.06C571.532 236.06 572.141 235.446 572.141 234.611C572.141 233.765 571.553 233.145 570.752 233.145C570.458 233.145 570.173 233.249 569.994 233.392H569.968L570.122 232.105H571.945V231.636H569.678L569.414 233.784L569.909 233.844C570.09 233.714 570.399 233.62 570.667 233.622C571.223 233.626 571.63 234.048 571.63 234.619C571.63 235.18 571.238 235.591 570.701 235.591C570.254 235.591 569.898 235.303 569.857 234.909H569.346C569.378 235.574 569.951 236.06 570.701 236.06ZM575.008 237.227C575.462 237.227 575.781 236.987 575.971 236.477L577.364 232.736L576.815 232.727L575.911 235.335H575.877L574.974 232.727H574.428L575.638 236.017L575.545 236.273C575.361 236.771 575.136 236.818 574.769 236.724L574.641 237.168C574.692 237.193 574.837 237.227 575.008 237.227ZM579.285 236.068C579.949 236.068 580.435 235.736 580.589 235.241L580.103 235.105C579.975 235.446 579.679 235.616 579.285 235.616C578.694 235.616 578.287 235.235 578.264 234.534H580.64V234.321C580.64 233.102 579.915 232.685 579.233 232.685C578.347 232.685 577.759 233.384 577.759 234.389C577.759 235.395 578.339 236.068 579.285 236.068ZM578.264 234.099C578.298 233.59 578.658 233.136 579.233 233.136C579.779 233.136 580.128 233.545 580.128 234.099H578.264ZM582.368 236.077C582.939 236.077 583.237 235.77 583.339 235.557H583.365V236H583.868V233.844C583.868 232.804 583.075 232.685 582.657 232.685C582.163 232.685 581.601 232.855 581.345 233.452L581.822 233.622C581.933 233.384 582.195 233.128 582.675 233.128C583.137 233.128 583.365 233.373 583.365 233.793V233.81C583.365 234.053 583.118 234.031 582.521 234.108C581.914 234.187 581.251 234.321 581.251 235.071C581.251 235.71 581.746 236.077 582.368 236.077ZM582.444 235.625C582.044 235.625 581.754 235.446 581.754 235.097C581.754 234.713 582.103 234.594 582.496 234.543C582.709 234.517 583.28 234.457 583.365 234.355V234.815C583.365 235.224 583.041 235.625 582.444 235.625ZM584.785 236H585.288V233.929C585.288 233.486 585.638 233.162 586.115 233.162C586.249 233.162 586.388 233.188 586.422 233.196V232.685C586.364 232.68 586.232 232.676 586.158 232.676C585.766 232.676 585.425 232.898 585.305 233.222H585.271V232.727H584.785V236Z" fill="#BDC2D8"/>
<path d="M565.699 224H570.486V223.059H567.211V223.006L568.657 221.493C569.988 220.147 570.368 219.504 570.368 218.691C570.368 217.523 569.417 216.628 568.046 216.628C566.686 216.628 565.692 217.509 565.692 218.837H566.739C566.736 218.055 567.24 217.544 568.025 217.544C568.763 217.544 569.324 217.999 569.324 218.723C569.324 219.366 568.941 219.827 568.16 220.655L565.699 223.205V224ZM574.363 224.121C576.043 224.121 577.027 222.75 577.027 220.367C577.027 218.002 576.029 216.628 574.363 216.628C572.694 216.628 571.7 217.999 571.697 220.367C571.697 222.746 572.68 224.117 574.363 224.121ZM574.363 223.173C573.38 223.173 572.787 222.185 572.787 220.367C572.79 218.556 573.383 217.558 574.363 217.558C575.34 217.558 575.937 218.556 575.937 220.367C575.937 222.185 575.344 223.173 574.363 223.173ZM582.083 222.636C582.086 223.457 582.601 224.149 583.564 224.149C584.515 224.149 585.037 223.457 585.037 222.636V222.253C585.037 221.429 584.529 220.74 583.564 220.74C582.615 220.74 582.086 221.433 582.083 222.253V222.636ZM578.425 218.474C578.425 219.295 578.944 219.987 579.906 219.987C580.854 219.987 581.38 219.298 581.376 218.474V218.091C581.38 217.267 580.868 216.578 579.906 216.578C578.961 216.578 578.425 217.267 578.425 218.091V218.474ZM578.723 224H579.572L584.572 216.727H583.723L578.723 224ZM582.91 222.253C582.914 221.844 583.091 221.45 583.564 221.45C584.054 221.45 584.206 221.844 584.206 222.253V222.636C584.206 223.045 584.039 223.439 583.564 223.439C583.081 223.439 582.914 223.041 582.91 222.636V222.253ZM579.256 218.091C579.256 217.686 579.434 217.288 579.906 217.288C580.396 217.288 580.549 217.683 580.549 218.091V218.474C580.549 218.883 580.382 219.277 579.906 219.277C579.423 219.277 579.256 218.883 579.256 218.474V218.091Z" fill="#0D1E3F"/>
<circle cx="557.942" cy="219.943" r="2.94321" fill="#F1F6FF"/>
<path d="M605.926 236.06C606.772 236.06 607.401 235.529 607.401 234.815C607.401 234.261 607.072 233.859 606.523 233.767V233.733C606.964 233.599 607.239 233.237 607.239 232.744C607.239 232.126 606.751 231.577 605.943 231.577C605.189 231.577 604.562 232.041 604.537 232.727H605.048C605.067 232.293 605.481 232.037 605.935 232.037C606.416 232.037 606.727 232.329 606.727 232.77C606.727 233.23 606.367 233.528 605.849 233.528H605.5V233.997H605.849C606.512 233.997 606.881 234.334 606.881 234.815C606.881 235.278 606.478 235.591 605.918 235.591C605.413 235.591 605.012 235.331 604.98 234.909H604.443C604.475 235.595 605.08 236.06 605.926 236.06ZM609.721 236.06C610.603 236.07 611.178 235.406 611.178 234.594C611.178 233.75 610.554 233.145 609.806 233.145C609.357 233.145 608.971 233.364 608.732 233.724H608.698C608.7 232.661 609.114 232.045 609.789 232.045C610.249 232.045 610.526 232.335 610.624 232.727H611.144C611.038 232.05 610.522 231.577 609.789 231.577C608.807 231.577 608.204 232.446 608.204 233.989C608.204 235.602 609.005 236.051 609.721 236.06ZM609.721 235.591C609.173 235.591 608.773 235.124 608.775 234.602C608.777 234.08 609.197 233.614 609.738 233.614C610.273 233.614 610.667 234.053 610.667 234.594C610.667 235.148 610.256 235.591 609.721 235.591ZM613.9 233.584H611.991V234.053H613.9V233.584ZM614.674 235.105H616.728V236H617.23V235.105H617.827V234.636H617.23V231.636H616.591L614.674 234.67V235.105ZM616.728 234.636H615.245V234.602L616.694 232.31H616.728V234.636ZM619.989 236.06C620.82 236.06 621.43 235.446 621.43 234.611C621.43 233.765 620.841 233.145 620.04 233.145C619.746 233.145 619.461 233.249 619.282 233.392H619.256L619.41 232.105H621.233V231.636H618.966L618.702 233.784L619.197 233.844C619.378 233.714 619.687 233.62 619.955 233.622C620.511 233.626 620.918 234.048 620.918 234.619C620.918 235.18 620.526 235.591 619.989 235.591C619.542 235.591 619.186 235.303 619.145 234.909H618.634C618.666 235.574 619.239 236.06 619.989 236.06ZM624.296 237.227C624.75 237.227 625.069 236.987 625.259 236.477L626.652 232.736L626.103 232.727L625.199 235.335H625.165L624.262 232.727H623.716L624.926 236.017L624.833 236.273C624.65 236.771 624.424 236.818 624.057 236.724L623.929 237.168C623.98 237.193 624.125 237.227 624.296 237.227ZM628.573 236.068C629.237 236.068 629.723 235.736 629.877 235.241L629.391 235.105C629.263 235.446 628.967 235.616 628.573 235.616C627.982 235.616 627.575 235.235 627.552 234.534H629.928V234.321C629.928 233.102 629.203 232.685 628.521 232.685C627.635 232.685 627.047 233.384 627.047 234.389C627.047 235.395 627.627 236.068 628.573 236.068ZM627.552 234.099C627.586 233.59 627.946 233.136 628.521 233.136C629.067 233.136 629.416 233.545 629.416 234.099H627.552ZM631.656 236.077C632.227 236.077 632.525 235.77 632.627 235.557H632.653V236H633.156V233.844C633.156 232.804 632.363 232.685 631.945 232.685C631.451 232.685 630.889 232.855 630.633 233.452L631.11 233.622C631.221 233.384 631.483 233.128 631.963 233.128C632.425 233.128 632.653 233.373 632.653 233.793V233.81C632.653 234.053 632.406 234.031 631.809 234.108C631.202 234.187 630.539 234.321 630.539 235.071C630.539 235.71 631.034 236.077 631.656 236.077ZM631.732 235.625C631.332 235.625 631.042 235.446 631.042 235.097C631.042 234.713 631.392 234.594 631.784 234.543C631.997 234.517 632.568 234.457 632.653 234.355V234.815C632.653 235.224 632.329 235.625 631.732 235.625ZM634.074 236H634.576V233.929C634.576 233.486 634.926 233.162 635.403 233.162C635.537 233.162 635.676 233.188 635.71 233.196V232.685C635.652 232.68 635.52 232.676 635.446 232.676C635.054 232.676 634.713 232.898 634.593 233.222H634.559V232.727H634.074V236Z" fill="#BDC2D8"/>
<path d="M617.349 216.727H616.281L614.466 217.913V218.964L616.206 217.828H616.249V224H617.349V216.727ZM619.562 224H620.709L623.873 217.7V216.727H619.065V217.668H622.737V217.722L619.562 224ZM628.904 222.636C628.907 223.457 629.422 224.149 630.385 224.149C631.336 224.149 631.858 223.457 631.858 222.636V222.253C631.858 221.429 631.351 220.74 630.385 220.74C629.437 220.74 628.907 221.433 628.904 222.253V222.636ZM625.246 218.474C625.246 219.295 625.765 219.987 626.727 219.987C627.675 219.987 628.201 219.298 628.197 218.474V218.091C628.201 217.267 627.689 216.578 626.727 216.578C625.782 216.578 625.246 217.267 625.246 218.091V218.474ZM625.545 224H626.393L631.393 216.727H630.545L625.545 224ZM629.731 222.253C629.735 221.844 629.912 221.45 630.385 221.45C630.875 221.45 631.028 221.844 631.028 222.253V222.636C631.028 223.045 630.861 223.439 630.385 223.439C629.902 223.439 629.735 223.041 629.731 222.636V222.253ZM626.077 218.091C626.077 217.686 626.255 217.288 626.727 217.288C627.217 217.288 627.37 217.683 627.37 218.091V218.474C627.37 218.883 627.203 219.277 626.727 219.277C626.244 219.277 626.077 218.883 626.077 218.474V218.091Z" fill="#0D1E3F"/>
<circle cx="606.943" cy="219.943" r="2.94321" fill="#FFC24E"/>
<circle cx="577.759" cy="115.765" r="52.9777" stroke="#276BF0" stroke-width="25"/>
<path d="M524.781 115.765C524.781 86.5063 548.5 62.7874 577.759 62.7874" stroke="#F1F6FF" stroke-width="25"/>
<path fill-rule="evenodd" clip-rule="evenodd" d="M536.947 104.831C538.548 105.259 539.487 106.902 539.184 108.53C538.75 110.865 538.522 113.282 538.522 115.766C538.522 126.969 543.199 137.069 550.759 144.24C551.961 145.38 552.164 147.262 551.118 148.546L532.606 171.282C531.56 172.567 529.666 172.765 528.424 171.668C512.983 158.029 503.203 138.034 503.203 115.766C503.203 110.163 503.824 104.687 505.007 99.4082C505.369 97.7915 507.02 96.8413 508.62 97.2687L536.947 104.831Z" fill="#FFC24E"/>
<path d="M517.916 28.012H513.842L513.142 30H511.476L514.962 20.256H516.81L520.296 30H518.616L517.916 28.012ZM517.468 26.71L515.886 22.188L514.29 26.71H517.468ZM524.92 22.16C525.517 22.16 526.044 22.2813 526.502 22.524C526.968 22.7573 527.332 23.0513 527.594 23.406V22.286H529.204V30.126C529.204 30.8353 529.054 31.4653 528.756 32.016C528.457 32.576 528.023 33.0147 527.454 33.332C526.894 33.6493 526.222 33.808 525.438 33.808C524.392 33.808 523.524 33.5607 522.834 33.066C522.143 32.5807 521.751 31.918 521.658 31.078H523.24C523.361 31.4793 523.618 31.8013 524.01 32.044C524.411 32.296 524.887 32.422 525.438 32.422C526.082 32.422 526.6 32.226 526.992 31.834C527.393 31.442 527.594 30.8727 527.594 30.126V28.838C527.323 29.202 526.954 29.51 526.488 29.762C526.03 30.0047 525.508 30.126 524.92 30.126C524.248 30.126 523.632 29.958 523.072 29.622C522.521 29.2767 522.082 28.8007 521.756 28.194C521.438 27.578 521.28 26.8827 521.28 26.108C521.28 25.3333 521.438 24.6473 521.756 24.05C522.082 23.4527 522.521 22.9907 523.072 22.664C523.632 22.328 524.248 22.16 524.92 22.16ZM527.594 26.136C527.594 25.604 527.482 25.142 527.258 24.75C527.043 24.358 526.758 24.0593 526.404 23.854C526.049 23.6487 525.666 23.546 525.256 23.546C524.845 23.546 524.462 23.6487 524.108 23.854C523.753 24.05 523.464 24.344 523.24 24.736C523.025 25.1187 522.918 25.576 522.918 26.108C522.918 26.64 523.025 27.1067 523.24 27.508C523.464 27.9093 523.753 28.2173 524.108 28.432C524.472 28.6373 524.854 28.74 525.256 28.74C525.666 28.74 526.049 28.6373 526.404 28.432C526.758 28.2267 527.043 27.928 527.258 27.536C527.482 27.1347 527.594 26.668 527.594 26.136ZM538.37 25.954C538.37 26.2433 538.351 26.5047 538.314 26.738H532.42C532.467 27.354 532.695 27.8487 533.106 28.222C533.517 28.5953 534.021 28.782 534.618 28.782C535.477 28.782 536.083 28.4227 536.438 27.704H538.16C537.927 28.4133 537.502 28.9967 536.886 29.454C536.279 29.902 535.523 30.126 534.618 30.126C533.881 30.126 533.218 29.9627 532.63 29.636C532.051 29.3 531.594 28.8333 531.258 28.236C530.931 27.6293 530.768 26.9293 530.768 26.136C530.768 25.3427 530.927 24.6473 531.244 24.05C531.571 23.4433 532.023 22.9767 532.602 22.65C533.19 22.3233 533.862 22.16 534.618 22.16C535.346 22.16 535.995 22.3187 536.564 22.636C537.133 22.9533 537.577 23.4013 537.894 23.98C538.211 24.5493 538.37 25.2073 538.37 25.954ZM536.704 25.45C536.695 24.862 536.485 24.3907 536.074 24.036C535.663 23.6813 535.155 23.504 534.548 23.504C533.997 23.504 533.526 23.6813 533.134 24.036C532.742 24.3813 532.509 24.8527 532.434 25.45H536.704ZM546.923 30.126C546.195 30.126 545.537 29.9627 544.949 29.636C544.361 29.3 543.899 28.8333 543.563 28.236C543.227 27.6293 543.059 26.9293 543.059 26.136C543.059 25.352 543.232 24.6567 543.577 24.05C543.923 23.4433 544.394 22.9767 544.991 22.65C545.589 22.3233 546.256 22.16 546.993 22.16C547.731 22.16 548.398 22.3233 548.995 22.65C549.593 22.9767 550.064 23.4433 550.409 24.05C550.755 24.6567 550.927 25.352 550.927 26.136C550.927 26.92 550.75 27.6153 550.395 28.222C550.041 28.8287 549.555 29.3 548.939 29.636C548.333 29.9627 547.661 30.126 546.923 30.126ZM546.923 28.74C547.334 28.74 547.717 28.642 548.071 28.446C548.435 28.25 548.729 27.956 548.953 27.564C549.177 27.172 549.289 26.696 549.289 26.136C549.289 25.576 549.182 25.1047 548.967 24.722C548.753 24.33 548.468 24.036 548.113 23.84C547.759 23.644 547.376 23.546 546.965 23.546C546.555 23.546 546.172 23.644 545.817 23.84C545.472 24.036 545.197 24.33 544.991 24.722C544.786 25.1047 544.683 25.576 544.683 26.136C544.683 26.9667 544.893 27.6107 545.313 28.068C545.743 28.516 546.279 28.74 546.923 28.74ZM555.739 23.588H554.311V30H552.701V23.588H551.791V22.286H552.701V21.74C552.701 20.8533 552.934 20.2093 553.401 19.808C553.877 19.3973 554.619 19.192 555.627 19.192V20.522C555.142 20.522 554.801 20.6153 554.605 20.802C554.409 20.9793 554.311 21.292 554.311 21.74V22.286H555.739V23.588ZM566.656 28.012H562.582L561.882 30H560.216L563.702 20.256H565.55L569.036 30H567.356L566.656 28.012ZM566.208 26.71L564.626 22.188L563.03 26.71H566.208ZM577.538 22.286V30H575.942V29.09C575.69 29.4073 575.359 29.6593 574.948 29.846C574.547 30.0233 574.117 30.112 573.66 30.112C573.053 30.112 572.507 29.986 572.022 29.734C571.546 29.482 571.168 29.1087 570.888 28.614C570.617 28.1193 570.482 27.522 570.482 26.822V22.286H572.064V26.584C572.064 27.2747 572.237 27.8067 572.582 28.18C572.927 28.544 573.399 28.726 573.996 28.726C574.593 28.726 575.065 28.544 575.41 28.18C575.765 27.8067 575.942 27.2747 575.942 26.584V22.286H577.538ZM579.112 26.108C579.112 25.3333 579.27 24.6473 579.588 24.05C579.914 23.4527 580.353 22.9907 580.904 22.664C581.464 22.328 582.084 22.16 582.766 22.16C583.27 22.16 583.764 22.272 584.25 22.496C584.744 22.7107 585.136 23 585.426 23.364V19.64H587.036V30H585.426V28.838C585.164 29.2113 584.8 29.5193 584.334 29.762C583.876 30.0047 583.349 30.126 582.752 30.126C582.08 30.126 581.464 29.958 580.904 29.622C580.353 29.2767 579.914 28.8007 579.588 28.194C579.27 27.578 579.112 26.8827 579.112 26.108ZM585.426 26.136C585.426 25.604 585.314 25.142 585.09 24.75C584.875 24.358 584.59 24.0593 584.236 23.854C583.881 23.6487 583.498 23.546 583.088 23.546C582.677 23.546 582.294 23.6487 581.94 23.854C581.585 24.05 581.296 24.344 581.072 24.736C580.857 25.1187 580.75 25.576 580.75 26.108C580.75 26.64 580.857 27.1067 581.072 27.508C581.296 27.9093 581.585 28.2173 581.94 28.432C582.304 28.6373 582.686 28.74 583.088 28.74C583.498 28.74 583.881 28.6373 584.236 28.432C584.59 28.2267 584.875 27.928 585.09 27.536C585.314 27.1347 585.426 26.668 585.426 26.136ZM589.944 21.264C589.655 21.264 589.412 21.166 589.216 20.97C589.02 20.774 588.922 20.5313 588.922 20.242C588.922 19.9527 589.02 19.71 589.216 19.514C589.412 19.318 589.655 19.22 589.944 19.22C590.224 19.22 590.462 19.318 590.658 19.514C590.854 19.71 590.952 19.9527 590.952 20.242C590.952 20.5313 590.854 20.774 590.658 20.97C590.462 21.166 590.224 21.264 589.944 21.264ZM590.728 22.286V30H589.132V22.286H590.728ZM599.893 25.954C599.893 26.2433 599.875 26.5047 599.837 26.738H593.943C593.99 27.354 594.219 27.8487 594.629 28.222C595.04 28.5953 595.544 28.782 596.141 28.782C597 28.782 597.607 28.4227 597.961 27.704H599.683C599.45 28.4133 599.025 28.9967 598.409 29.454C597.803 29.902 597.047 30.126 596.141 30.126C595.404 30.126 594.741 29.9627 594.153 29.636C593.575 29.3 593.117 28.8333 592.781 28.236C592.455 27.6293 592.291 26.9293 592.291 26.136C592.291 25.3427 592.45 24.6473 592.767 24.05C593.094 23.4433 593.547 22.9767 594.125 22.65C594.713 22.3233 595.385 22.16 596.141 22.16C596.869 22.16 597.518 22.3187 598.087 22.636C598.657 22.9533 599.1 23.4013 599.417 23.98C599.735 24.5493 599.893 25.2073 599.893 25.954ZM598.227 25.45C598.218 24.862 598.008 24.3907 597.597 24.036C597.187 23.6813 596.678 23.504 596.071 23.504C595.521 23.504 595.049 23.6813 594.657 24.036C594.265 24.3813 594.032 24.8527 593.957 25.45H598.227ZM605.356 22.16C605.963 22.16 606.504 22.286 606.98 22.538C607.465 22.79 607.843 23.1633 608.114 23.658C608.385 24.1527 608.52 24.75 608.52 25.45V30L606.938 30V25.688C606.938 24.9973 606.765 24.47 606.42 24.106C606.075 23.7327 605.603 23.546 605.006 23.546C604.409 23.546 603.933 23.7327 603.578 24.106C603.233 24.47 603.06 24.9973 603.06 25.688V30H601.464V22.286H603.06V23.168C603.321 22.8507 603.653 22.6033 604.054 22.426C604.465 22.2487 604.899 22.16 605.356 22.16ZM610.024 26.136C610.024 25.3427 610.183 24.6473 610.5 24.05C610.827 23.4433 611.275 22.9767 611.844 22.65C612.413 22.3233 613.067 22.16 613.804 22.16C614.737 22.16 615.507 22.384 616.114 22.832C616.73 23.2707 617.145 23.9007 617.36 24.722H615.638C615.498 24.3393 615.274 24.0407 614.966 23.826C614.658 23.6113 614.271 23.504 613.804 23.504C613.151 23.504 612.628 23.7373 612.236 24.204C611.853 24.6613 611.662 25.3053 611.662 26.136C611.662 26.9667 611.853 27.6153 612.236 28.082C612.628 28.5487 613.151 28.782 613.804 28.782C614.728 28.782 615.339 28.376 615.638 27.564H617.36C617.136 28.348 616.716 28.9733 616.1 29.44C615.484 29.8973 614.719 30.126 613.804 30.126C613.067 30.126 612.413 29.9627 611.844 29.636C611.275 29.3 610.827 28.8333 610.5 28.236C610.183 27.6293 610.024 26.9293 610.024 26.136ZM626.02 25.954C626.02 26.2433 626.002 26.5047 625.964 26.738H620.07C620.117 27.354 620.346 27.8487 620.756 28.222C621.167 28.5953 621.671 28.782 622.268 28.782C623.127 28.782 623.734 28.4227 624.088 27.704H625.81C625.577 28.4133 625.152 28.9967 624.536 29.454C623.93 29.902 623.174 30.126 622.268 30.126C621.531 30.126 620.868 29.9627 620.28 29.636C619.702 29.3 619.244 28.8333 618.908 28.236C618.582 27.6293 618.418 26.9293 618.418 26.136C618.418 25.3427 618.577 24.6473 618.894 24.05C619.221 23.4433 619.674 22.9767 620.252 22.65C620.84 22.3233 621.512 22.16 622.268 22.16C622.996 22.16 623.645 22.3187 624.214 22.636C624.784 22.9533 625.227 23.4013 625.544 23.98C625.862 24.5493 626.02 25.2073 626.02 25.954ZM624.354 25.45C624.345 24.862 624.135 24.3907 623.724 24.036C623.314 23.6813 622.805 23.504 622.198 23.504C621.648 23.504 621.176 23.6813 620.784 24.036C620.392 24.3813 620.159 24.8527 620.084 25.45H624.354Z" fill="#0D1E3F"/>
<path d="M321 344.5C380.5 365.5 504.5 388 568.5 259.5" stroke="#FF98A1" stroke-width="2"/>
<circle cx="320.5" cy="343.5" r="7.5" fill="#FF98A1"/>
<circle cx="570.5" cy="255.5" r="13.5" fill="white"/>
<circle cx="570.5" cy="255.5" r="4.5" fill="#FF98A1"/>
<defs>
<filter id="filter0_f_3_1796" x="81.5031" y="174.423" width="443.701" height="130.403" filterUnits="userSpaceOnUse" color-interpolation-filters="sRGB">
<feFlood flood-opacity="0" result="BackgroundImageFix"/>
<feBlend mode="normal" in="SourceGraphic" in2="BackgroundImageFix" result="shape"/>
<feGaussianBlur stdDeviation="8.10454" result="effect1_foregroundBlur_3_1796"/>
</filter>
<filter id="filter1_d_3_1796" x="412" y="0" width="315" height="380" filterUnits="userSpaceOnUse" color-interpolation-filters="sRGB">
<feFlood flood-opacity="0" result="BackgroundImageFix"/>
<feColorMatrix in="SourceAlpha" type="matrix" values="0 0 0 0 0 0 0 0 0 0 0 0 0 0 0 0 0 0 127 0" result="hardAlpha"/>
<feMorphology radius="30" operator="erode" in="SourceAlpha" result="effect1_dropShadow_3_1796"/>
<feOffset dy="70"/>
<feGaussianBlur stdDeviation="40"/>
<feColorMatrix type="matrix" values="0 0 0 0 0.313726 0 0 0 0 0.529412 0 0 0 0 0.952941 0 0 0 0.05 0"/>
<feBlend mode="normal" in2="BackgroundImageFix" result="effect1_dropShadow_3_1796"/>
<feBlend mode="normal" in="SourceGraphic" in2="effect1_dropShadow_3_1796" result="shape"/>
</filter>
</defs>
</svg>
