<svg width="64" height="64" viewBox="0 0 64 64" fill="none" xmlns="http://www.w3.org/2000/svg">
<circle cx="32" cy="32" r="32" fill="#D4E1FC"/>
<path fill-rule="evenodd" clip-rule="evenodd" d="M26.0325 18H38.315C43.1175 18 46.3333 21.3717 46.3333 26.3867V37.9622C46.3333 42.9617 43.1175 46.3333 38.315 46.3333H26.0325C21.23 46.3333 18 42.9617 18 37.9622V26.3867C18 21.3717 21.23 18 26.0325 18ZM31.3582 36.4025L38.0874 29.6733C38.5691 29.1917 38.5691 28.4125 38.0874 27.9167C37.6057 27.435 36.8124 27.435 36.3307 27.9167L30.4799 33.7675L28.0007 31.2883C27.5191 30.8067 26.7257 30.8067 26.2441 31.2883C25.7624 31.77 25.7624 32.5492 26.2441 33.045L29.6157 36.4025C29.8566 36.6433 30.1682 36.7567 30.4799 36.7567C30.8057 36.7567 31.1174 36.6433 31.3582 36.4025Z" fill="#3A78F1"/>
</svg>
