<svg width="64" height="64" viewBox="0 0 64 64" fill="none" xmlns="http://www.w3.org/2000/svg">
<circle cx="32" cy="32" r="32" fill="#CFF7ED"/>
<path fill-rule="evenodd" clip-rule="evenodd" d="M44.3617 34.405C44.8684 34.6742 45.2593 35.0992 45.5344 35.5242C46.07 36.4025 46.0266 37.4792 45.5054 38.4283L44.492 40.1283C43.9563 41.035 42.9573 41.6017 41.9294 41.6017C41.4227 41.6017 40.858 41.46 40.3948 41.1767C40.0183 40.9358 39.584 40.8508 39.1207 40.8508C37.6874 40.8508 36.4858 42.0267 36.4423 43.4292C36.4423 45.0583 35.1104 46.3333 33.4454 46.3333H31.4765C29.7971 46.3333 28.4651 45.0583 28.4651 43.4292C28.4362 42.0267 27.2345 40.8508 25.8012 40.8508C25.3234 40.8508 24.8891 40.9358 24.5272 41.1767C24.0639 41.46 23.4848 41.6017 22.9925 41.6017C21.9501 41.6017 20.9512 41.035 20.4155 40.1283L19.4165 38.4283C18.8809 37.5075 18.8519 36.4025 19.3876 35.5242C19.6192 35.0992 20.0535 34.6742 20.5458 34.405C20.9512 34.2067 21.2118 33.8808 21.4579 33.4983C22.1818 32.28 21.7474 30.6792 20.5168 29.9567C19.0835 29.1492 18.6203 27.35 19.4455 25.9475L20.4155 24.2758C21.2552 22.8733 23.0504 22.3775 24.4982 23.1992C25.7578 23.8792 27.3938 23.4258 28.1321 22.2217C28.3638 21.825 28.4941 21.4 28.4651 20.975C28.4362 20.4225 28.5954 19.8983 28.8705 19.4733C29.4062 18.595 30.3762 18.0283 31.433 18H33.4744C34.5458 18 35.5158 18.595 36.0514 19.4733C36.312 19.8983 36.4858 20.4225 36.4423 20.975C36.4134 21.4 36.5437 21.825 36.7753 22.2217C37.5137 23.4258 39.1497 23.8792 40.4237 23.1992C41.857 22.3775 43.6667 22.8733 44.492 24.2758L45.462 25.9475C46.3017 27.35 45.8384 29.1492 44.3906 29.9567C43.16 30.6792 42.7257 32.28 43.464 33.4983C43.6957 33.8808 43.9563 34.2067 44.3617 34.405ZM28.3636 32.1808C28.3636 34.405 30.2023 36.1758 32.4753 36.1758C34.7483 36.1758 36.5435 34.405 36.5435 32.1808C36.5435 29.9567 34.7483 28.1717 32.4753 28.1717C30.2023 28.1717 28.3636 29.9567 28.3636 32.1808Z" fill="#0DD8A7"/>
</svg>
