<svg width="28" height="28" viewBox="0 0 28 28" fill="none" xmlns="http://www.w3.org/2000/svg">
<path opacity="0.2" d="M3.5 0.5H24.5C26.1541 0.5 27.5 1.84589 27.5 3.5V24.5C27.5 26.1541 26.1541 27.5 24.5 27.5H3.5C1.84589 27.5 0.5 26.1541 0.5 24.5V3.5C0.5 1.84589 1.84589 0.5 3.5 0.5Z" stroke="#B7BCCB"/>
<path fill-rule="evenodd" clip-rule="evenodd" d="M17.7025 12.4068H15.4077V10.5911C15.4077 10.09 15.8189 10.1372 16.3256 10.1372H17.2435V7.86768H15.4077C14.6774 7.86768 13.977 8.15461 13.4605 8.66536C12.9441 9.17611 12.654 9.86883 12.654 10.5911V12.4068H10.8182V14.6763H12.654V19.6693H15.4077V14.6763H16.7846L17.7025 12.4068Z" fill="#B7BCCB"/>
</svg>
