<svg width="29" height="28" viewBox="0 0 29 28" fill="none" xmlns="http://www.w3.org/2000/svg">
<path opacity="0.2" d="M7.22222 0.5H22.6528C25.8476 0.5 28.4375 3.08991 28.4375 6.28472V21.7153C28.4375 24.9101 25.8476 27.5 22.6528 27.5H7.22222C4.02741 27.5 1.4375 24.9101 1.4375 21.7153V6.28472C1.4375 3.08991 4.02741 0.5 7.22222 0.5Z" stroke="#B7BCCB"/>
<path d="M11.6674 12.1116H9.42697V18.6728H11.6674V12.1116Z" fill="#B7BCCB"/>
<path d="M11.2908 9.04962C11.0772 8.92032 10.8263 8.85132 10.5696 8.85132C10.3983 8.85132 10.2287 8.88204 10.0706 8.94174C9.91244 9.00143 9.76885 9.08891 9.64809 9.19915C9.52732 9.30938 9.43176 9.4402 9.3669 9.58407C9.30203 9.72795 9.26915 9.88204 9.27013 10.0375C9.27161 10.2705 9.34907 10.4978 9.49275 10.6909C9.63644 10.8839 9.8399 11.034 10.0775 11.1223C10.315 11.2105 10.5761 11.2329 10.8277 11.1866C11.0792 11.1403 11.3101 11.0275 11.4911 10.8623C11.6721 10.6971 11.7951 10.4869 11.8446 10.2583C11.8942 10.0297 11.868 9.79294 11.7694 9.57782C11.6709 9.36271 11.5043 9.17892 11.2908 9.04962Z" fill="#B7BCCB"/>
<path d="M15.2638 12.1113H13.1055L13.098 18.686H15.3385V15.4393C15.3385 14.5853 15.5177 13.7583 16.6828 13.7583C17.8478 13.7583 17.8478 14.7412 17.8478 15.5003V18.6725H20.0883V15.0733C20.0883 13.3042 19.6327 11.9486 17.3923 11.9486C16.9652 11.9334 16.5417 12.0238 16.1668 12.21C15.792 12.3962 15.4799 12.6713 15.2638 13.006V12.1113Z" fill="#B7BCCB"/>
</svg>
