<svg width="125" height="35" viewBox="0 0 125 35" fill="none" xmlns="http://www.w3.org/2000/svg">
<path d="M34.0826 17.1723C34.0826 26.6509 26.4656 34.3349 17.0697 34.3349C7.67373 34.3349 0.0568085 26.6509 0.0568085 17.1723C0.0568085 7.69356 7.67373 0.00957108 17.0697 0.00957108C26.4656 0.00957108 34.0826 7.69356 34.0826 17.1723Z" fill="#276BF0"/>
<path d="M27.5392 13.7597C27.5392 17.3435 24.6324 20.2488 21.0467 20.2488H17.6885C17.3588 20.2488 17.0915 20.5159 17.0915 20.8455V24.1785C17.0915 24.3368 17.0286 24.4885 16.9166 24.6004L13.8697 27.6457C13.6817 27.8337 13.3602 27.7006 13.3602 27.4348V20.4959C13.3602 20.3377 13.4231 20.1859 13.535 20.074L16.9166 16.6942C17.0286 16.5823 17.1804 16.5194 17.3388 16.5194H21.0467C22.5716 16.5194 23.8079 15.2838 23.8079 13.7597C23.8079 12.9809 23.4851 12.2775 22.9661 11.7757C22.6738 11.4932 22.5938 11.0034 22.8823 10.717L24.6311 8.98104C24.8433 8.77038 25.1809 8.74705 25.4026 8.94768C26.7148 10.135 27.5392 11.8511 27.5392 13.7597Z" fill="white"/>
<path d="M12.7631 10.9999H6.24503C5.97909 10.9999 5.8459 10.6785 6.03395 10.4906L9.08083 7.4453C9.1928 7.3334 9.34465 7.27053 9.50299 7.27053H21.0467C21.9497 7.27053 22.8096 7.45478 23.5909 7.78773C23.7756 7.8664 23.8168 8.10414 23.6781 8.24913L21.223 10.8156C21.1104 10.9333 20.9545 10.9999 20.7915 10.9999H17.6885C17.3588 10.9999 17.0915 11.2671 17.0915 11.5966V14.6381C17.0915 14.7923 17.0318 14.9406 16.9248 15.0517L13.8738 18.2231C13.6875 18.4167 13.3602 18.2849 13.3602 18.0163V11.5966C13.3602 11.2671 13.0929 10.9999 12.7631 10.9999Z" fill="white"/>
<path d="M40.8307 11.0148H45.7564V25.2487H48.7027V11.0148H53.6284V8.27485H40.8307V11.0148Z" fill="#152646"/>
<path d="M56.9167 25.5506C58.689 25.5506 60.2312 24.7379 60.7145 23.5537L60.9217 25.2487H63.3846V18.2827C63.3846 15.1016 61.4971 13.4297 58.4358 13.4297C55.3515 13.4297 53.3259 15.0551 53.3259 17.5397H55.7198C55.7198 16.3322 56.6405 15.6356 58.2977 15.6356C59.7248 15.6356 60.6455 16.2626 60.6455 17.8183V18.0737L57.2389 18.3292C54.5459 18.5381 53.0267 19.8617 53.0267 21.9747C53.0267 24.1342 54.4998 25.5506 56.9167 25.5506ZM57.8374 23.4144C56.5714 23.4144 55.8809 22.9035 55.8809 21.8586C55.8809 20.9298 56.5484 20.3493 58.2977 20.1868L60.6685 20.001V20.6047C60.6685 22.3695 59.5637 23.4144 57.8374 23.4144Z" fill="#152646"/>
<path d="M65.2686 21.7657C65.2686 24.0181 67.0639 25.5506 69.8951 25.5506C72.7032 25.5506 74.6597 24.111 74.6597 21.7889C74.6597 20.0242 73.6929 19.1419 71.7825 18.7007L69.7339 18.2131C68.7672 17.9809 68.2608 17.5629 68.2608 16.9127C68.2608 16.0536 68.9053 15.5427 70.0102 15.5427C71.092 15.5427 71.7365 16.1697 71.7595 17.1449H74.4295C74.4065 14.9158 72.6802 13.4297 70.1252 13.4297C67.5013 13.4297 65.6138 14.7765 65.6138 17.0288C65.6138 18.8632 66.6036 19.8385 68.6521 20.3029L70.7007 20.7905C71.7134 21.0227 72.0127 21.4406 72.0127 22.0212C72.0127 22.8571 71.2991 23.3911 69.9871 23.3911C68.6982 23.3911 67.9616 22.7642 67.9386 21.7657H65.2686Z" fill="#152646"/>
<path d="M79.6289 25.2487V22.1605L81.2862 20.419L84.2554 25.2487H87.4779L83.2427 18.3292L87.5699 13.778H84.0483L79.6289 18.5846V7.97299H76.8438V25.2487H79.6289Z" fill="#152646"/>
<path d="M96.2495 19.3973C99.61 19.3973 101.82 17.0985 101.82 13.8245C101.82 10.504 99.633 8.27485 96.2495 8.27485H89.5974V25.2487H92.5437V19.3973H96.2495ZM95.674 10.9219C97.6305 10.9219 98.7354 11.9436 98.7354 13.8012C98.7354 15.6588 97.6535 16.7502 95.628 16.7502H92.5437V10.9219H95.674Z" fill="#152646"/>
<path d="M111.019 13.7316C110.559 13.6155 110.167 13.569 109.776 13.569C108.257 13.569 107.175 14.3353 106.692 15.4731L106.531 13.8012H103.884V25.2487H106.692V19.6759C106.692 17.4468 107.958 16.3554 109.983 16.3554H111.019V13.7316Z" fill="#152646"/>
<path d="M111.87 19.4902C111.87 23.0661 114.425 25.5274 117.947 25.5274C121.468 25.5274 124.023 23.0661 124.023 19.4902C124.023 15.9143 121.468 13.4529 117.947 13.4529C114.425 13.4529 111.87 15.9143 111.87 19.4902ZM114.678 19.4902C114.678 17.4004 116.013 15.9839 117.947 15.9839C119.88 15.9839 121.215 17.4004 121.215 19.4902C121.215 21.58 119.88 22.9964 117.947 22.9964C116.013 22.9964 114.678 21.58 114.678 19.4902Z" fill="#152646"/>
</svg>
