<svg width="64" height="64" viewBox="0 0 64 64" fill="none" xmlns="http://www.w3.org/2000/svg">
<circle cx="32" cy="32" r="32" fill="#FFD2D5"/>
<path fill-rule="evenodd" clip-rule="evenodd" d="M39.5039 21.4142C39.5039 19.53 41.0339 18 42.9181 18C44.8022 18 46.3322 19.53 46.3322 21.4142C46.3322 23.2983 44.8022 24.8283 42.9181 24.8283C41.0339 24.8283 39.5039 23.2983 39.5039 21.4142ZM34.0508 36.0757L38.145 30.7929L38.0883 30.8212C38.315 30.5096 38.3575 30.1129 38.2016 29.7587C38.0472 29.4046 37.7058 29.1637 37.3389 29.1354C36.955 29.0929 36.5739 29.2629 36.3458 29.5746L32.9189 34.0087L28.9933 30.9204C28.7525 30.7362 28.4691 30.664 28.1858 30.6937C27.9039 30.7362 27.6489 30.8907 27.4775 31.1173L23.2856 36.5729L23.1991 36.7004C22.9583 37.1523 23.0716 37.7332 23.4966 38.0462C23.695 38.1737 23.9075 38.2587 24.1483 38.2587C24.4756 38.2729 24.7858 38.1015 24.9841 37.8337L28.54 33.2565L32.5775 36.2896L32.705 36.3732C33.1583 36.614 33.725 36.5021 34.0508 36.0757ZM37.0542 20.5221C36.9975 20.8762 36.9692 21.2304 36.9692 21.5846C36.9692 24.7721 39.5475 27.349 42.7208 27.349C43.075 27.349 43.415 27.3079 43.7692 27.2512V38.6823C43.7692 43.4862 40.9358 46.3337 36.1192 46.3337H25.6514C20.8333 46.3337 18 43.4862 18 38.6823V28.2004C18 23.3837 20.8333 20.5221 25.6514 20.5221H37.0542Z" fill="#FF98A1"/>
</svg>
