<svg width="96" height="96" viewBox="0 0 96 96" fill="none" xmlns="http://www.w3.org/2000/svg">
<g filter="url(#filter0_d_3_1859)">
<circle cx="48" cy="38" r="23" fill="#108AF9"/>
</g>
<path d="M54.5077 36.4986C54.4324 36.4213 54.1479 36.0906 53.8829 35.8186C52.3294 34.1079 48.2768 31.3079 46.1557 30.4533C45.8336 30.3159 45.0192 30.0253 44.584 30.0066C44.1671 30.0066 43.7696 30.1026 43.3903 30.2973C42.9175 30.5693 42.5382 30.9973 42.3304 31.5026C42.1966 31.8533 41.9888 32.9026 41.9888 32.9213C41.781 34.0693 41.6667 35.9346 41.6667 37.9959C41.6667 39.9599 41.781 41.7493 41.9511 42.9146C41.9706 42.9333 42.1784 44.2373 42.4057 44.6839C42.8227 45.4999 43.6371 46.0066 44.5087 46.0066H44.584C45.1516 45.9866 46.3453 45.4799 46.3453 45.4613C48.3522 44.6053 52.3113 41.9426 53.9024 40.1733C53.9024 40.1733 54.3505 39.7186 54.5454 39.4346C54.8493 39.0266 55 38.5213 55 38.0159C55 37.4519 54.8298 36.9266 54.5077 36.4986Z" fill="#FEFEFF"/>
<defs>
<filter id="filter0_d_3_1859" x="0" y="0" width="96" height="96" filterUnits="userSpaceOnUse" color-interpolation-filters="sRGB">
<feFlood flood-opacity="0" result="BackgroundImageFix"/>
<feColorMatrix in="SourceAlpha" type="matrix" values="0 0 0 0 0 0 0 0 0 0 0 0 0 0 0 0 0 0 127 0" result="hardAlpha"/>
<feOffset dy="10"/>
<feGaussianBlur stdDeviation="12.5"/>
<feColorMatrix type="matrix" values="0 0 0 0 0.0627451 0 0 0 0 0.541176 0 0 0 0 0.976471 0 0 0 0.05 0"/>
<feBlend mode="normal" in2="BackgroundImageFix" result="effect1_dropShadow_3_1859"/>
<feBlend mode="normal" in="SourceGraphic" in2="effect1_dropShadow_3_1859" result="shape"/>
</filter>
</defs>
</svg>
