<svg width="29" height="28" viewBox="0 0 29 28" fill="none" xmlns="http://www.w3.org/2000/svg">
<path opacity="0.2" d="M27.9688 24.1111C27.9688 25.0099 27.6117 25.8719 26.9762 26.5074C26.3406 27.143 25.4787 27.5 24.5799 27.5H4.35764C3.45885 27.5 2.59687 27.143 1.96133 26.5074C1.32579 25.8719 0.96875 25.0099 0.96875 24.1111V3.88889C0.96875 2.9901 1.32579 2.12812 1.96133 1.49258C2.59687 0.857043 3.45885 0.5 4.35764 0.5H24.5799C25.4787 0.5 26.3406 0.857043 26.9762 1.49258C27.6117 2.12812 27.9688 2.9901 27.9688 3.88889V24.1111Z" stroke="#B7BCCB"/>
<path d="M19.8769 10.8223C19.4794 11.0045 18.9759 11.1754 18.5247 11.2323C18.9835 10.9509 19.7115 10.3649 19.8769 9.83472C19.4483 10.0951 18.673 10.3732 18.1672 10.4739C17.7633 10.0313 17.1873 9.83472 16.549 9.83472C15.3229 9.83472 14.4678 10.9085 14.4678 12.164V13.0957C12.6648 13.0957 10.9069 11.6762 9.81286 10.3006C9.61505 10.6473 9.5112 11.0427 9.51221 11.4452C9.51221 12.2926 10.2654 13.1525 10.8618 13.5616C10.498 13.5499 9.80926 13.2629 9.5095 13.0957V13.1223C9.5095 14.2249 10.2582 14.9736 11.2729 15.1823C11.0876 15.2349 10.8618 15.425 9.99272 15.425C10.2749 16.3264 11.6934 16.803 12.6648 16.8225C11.9048 17.4314 10.5499 17.7542 9.5095 17.7542C9.32965 17.7542 9.23229 17.7645 9.05875 17.7435C10.0405 18.3864 11.4117 18.686 12.6648 18.686C16.7473 18.686 18.9754 15.4632 18.9754 12.4575C18.9754 12.3587 18.9723 12.028 18.9673 11.9311C19.4036 11.6134 19.5803 11.2807 19.8769 10.8223Z" fill="#B7BCCB"/>
</svg>
