<svg width="238" height="24" viewBox="0 0 238 24" fill="none" xmlns="http://www.w3.org/2000/svg">
<path opacity="0.4" d="M85 0H53C51.3 0 50 1.3 50 3V21C50 22.7 51.4 24 53 24H85C86.7 24 88 22.7 88 21V3C88 1.3 86.6 0 85 0Z" fill="#ED9D2A"/>
<path d="M85 1C86.1 1 87 1.9 87 3V21C87 22.1 86.1 23 85 23H53C51.9 23 51 22.1 51 21V3C51 1.9 51.9 1 53 1H85Z" fill="white"/>
<path d="M65 19C68.866 19 72 15.866 72 12C72 8.13401 68.866 5 65 5C61.134 5 58 8.13401 58 12C58 15.866 61.134 19 65 19Z" fill="#EB001B"/>
<path d="M73 19C76.866 19 80 15.866 80 12C80 8.13401 76.866 5 73 5C69.134 5 66 8.13401 66 12C66 15.866 69.134 19 73 19Z" fill="#F79E1B"/>
<path d="M72 11.9998C72 9.5998 70.8 7.4998 69 6.2998C67.2 7.5998 66 9.6998 66 11.9998C66 14.2998 67.2 16.4998 69 17.6998C70.8 16.4998 72 14.3998 72 11.9998Z" fill="#FF5F00"/>
<path opacity="0.4" d="M35 0H3C1.3 0 0 1.3 0 3V21C0 22.7 1.4 24 3 24H35C36.7 24 38 22.7 38 21V3C38 1.3 36.6 0 35 0Z" fill="#ED9D2A"/>
<path d="M35 1C36.1 1 37 1.9 37 3V21C37 22.1 36.1 23 35 23H3C1.9 23 1 22.1 1 21V3C1 1.9 1.9 1 3 1H35Z" fill="white"/>
<path d="M28.3 10.1H28C27.6 11.1 27.3 11.6 27 13.1H28.9C28.6 11.6 28.6 10.9 28.3 10.1ZM31.2 16H29.5C29.4 16 29.4 16 29.3 15.9L29.1 15L29 14.8H26.6C26.5 14.8 26.4 14.8 26.4 15L26.1 15.9C26.1 16 26 16 26 16H23.9L24.1 15.5L27 8.7C27 8.2 27.3 8 27.8 8H29.3C29.4 8 29.5 8 29.5 8.2L30.9 14.7C31 15.1 31.1 15.4 31.1 15.8C31.2 15.9 31.2 15.9 31.2 16ZM17.8 15.7L18.2 13.9C18.3 13.9 18.4 14 18.4 14C19.1 14.3 19.8 14.5 20.5 14.4C20.7 14.4 21 14.3 21.2 14.2C21.7 14 21.7 13.5 21.3 13.1C21.1 12.9 20.8 12.8 20.5 12.6C20.1 12.4 19.7 12.2 19.4 11.9C18.2 10.9 18.6 9.5 19.3 8.8C19.9 8.4 20.2 8 21 8C22.2 8 23.5 8 24.1 8.2H24.2C24.1 8.8 24 9.3 23.8 9.9C23.3 9.7 22.8 9.5 22.3 9.5C22 9.5 21.7 9.5 21.4 9.6C21.2 9.6 21.1 9.7 21 9.8C20.8 10 20.8 10.3 21 10.5L21.5 10.9C21.9 11.1 22.3 11.3 22.6 11.5C23.1 11.8 23.6 12.3 23.7 12.9C23.9 13.8 23.6 14.6 22.8 15.2C22.3 15.6 22.1 15.8 21.4 15.8C20 15.8 18.9 15.9 18 15.6C17.9 15.8 17.9 15.8 17.8 15.7ZM14.3 16C14.4 15.3 14.4 15.3 14.5 15C15 12.8 15.5 10.5 15.9 8.3C16 8.1 16 8 16.2 8H18C17.8 9.2 17.6 10.1 17.3 11.2C17 12.7 16.7 14.2 16.3 15.7C16.3 15.9 16.2 15.9 16 15.9L14.3 16ZM5 8.2C5 8.1 5.2 8 5.3 8H8.7C9.2 8 9.6 8.3 9.7 8.8L10.6 13.2C10.6 13.3 10.6 13.3 10.7 13.4C10.7 13.3 10.8 13.3 10.8 13.3L12.9 8.2C12.8 8.1 12.9 8 13 8H15.1C15.1 8.1 15.1 8.1 15 8.2L11.9 15.5C11.8 15.7 11.8 15.8 11.7 15.9C11.6 16 11.4 15.9 11.2 15.9H9.7C9.6 15.9 9.5 15.9 9.5 15.7L7.9 9.5C7.7 9.3 7.4 9 7 8.9C6.4 8.6 5.3 8.4 5.1 8.4L5 8.2Z" fill="#142688"/>
<path opacity="0.4" d="M135 0H103C101.3 0 100 1.3 100 3V21C100 22.7 101.4 24 103 24H135C136.7 24 138 22.7 138 21V3C138 1.3 136.6 0 135 0Z" fill="#ED9D2A"/>
<path d="M135 1C136.1 1 137 1.9 137 3V21C137 22.1 136.1 23 135 23H103C101.9 23 101 22.1 101 21V3C101 1.9 101.9 1 103 1H135Z" fill="#006FCF"/>
<path d="M108.971 10.268L109.745 12.144H108.203L108.971 10.268ZM125.046 10.346H122.069V11.173H124.998V12.412H122.075V13.334H125.052V14.073L127.129 11.828L125.052 9.488L125.046 10.346ZM110.983 8.006H114.978L115.865 9.941L116.687 8H127.057L128.135 9.19L129.25 8H134.013L130.494 11.852L133.977 15.68H129.143L128.065 14.49L126.94 15.68H110.03L109.536 14.49H108.406L107.911 15.68H104L107.286 8H110.716L110.983 8.006ZM119.646 9.084H117.407L115.907 12.62L114.282 9.084H112.06V13.894L110 9.084H108.007L105.625 14.596H107.18L107.674 13.406H110.27L110.764 14.596H113.484V10.661L115.235 14.602H116.425L118.165 10.673V14.603H119.623L119.647 9.083L119.646 9.084ZM128.986 11.852L131.517 9.084H129.695L128.094 10.81L126.546 9.084H120.652V14.602H126.462L128.076 12.864L129.624 14.602H131.499L128.987 11.852H128.986Z" fill="white"/>
<path opacity="0.4" d="M185 0H153C151.3 0 150 1.3 150 3V21C150 22.7 151.4 24 153 24H185C186.7 24 188 22.7 188 21V3C188 1.3 186.6 0 185 0Z" fill="#ED9D2A"/>
<path d="M185 1C186.1 1 187 1.9 187 3V21C187 22.1 186.1 23 185 23H153C151.9 23 151 22.1 151 21V3C151 1.9 151.9 1 153 1H185Z" fill="white"/>
<path d="M173.9 8.3C174.1 7.3 173.9 6.6 173.3 6C172.7 5.3 171.6 5 170.2 5H166.1C165.8 5 165.6 5.2 165.5 5.5L164 15.6C164 15.8 164.1 16 164.3 16H167L167.4 12.6L169.2 10.4L173.9 8.3Z" fill="#003087"/>
<path d="M173.9 8.2998L173.7 8.4998C173.2 11.2998 171.5 12.2998 169.1 12.2998H168C167.7 12.2998 167.5 12.4998 167.4 12.7998L166.8 16.6998L166.6 17.6998C166.6 17.8998 166.7 18.0998 166.9 18.0998H169C169.3 18.0998 169.5 17.8998 169.5 17.6998V17.5998L169.9 15.1998V15.0998C169.9 14.8998 170.2 14.6998 170.4 14.6998H170.7C172.8 14.6998 174.4 13.8998 174.8 11.4998C175 10.4998 174.9 9.6998 174.4 9.0998C174.3 8.5998 174.1 8.3998 173.9 8.2998Z" fill="#3086C8"/>
<path d="M173.3 8.0998C173.2 7.9998 173.1 7.9998 173 7.9998C172.9 7.9998 172.8 7.9998 172.7 7.8998C172.4 7.7998 172 7.7998 171.6 7.7998H168.6C168.5 7.7998 168.4 7.7998 168.4 7.8998C168.2 7.9998 168.1 8.0998 168.1 8.2998L167.4 12.6998V12.7998C167.4 12.4998 167.7 12.2998 168 12.2998H169.3C171.8 12.2998 173.4 11.2998 173.9 8.4998V8.2998C173.8 8.1998 173.6 8.0998 173.4 8.0998H173.3Z" fill="#012169"/>
<path opacity="0.4" d="M235 0H203C201.3 0 200 1.3 200 3V21C200 22.7 201.4 24 203 24H235C236.7 24 238 22.7 238 21V3C238 1.3 236.6 0 235 0Z" fill="#ED9D2A"/>
<path d="M235 1C236.1 1 237 1.9 237 3V21C237 22.1 236.1 23 235 23H203C201.9 23 201 22.1 201 21V3C201 1.9 201.9 1 203 1H235Z" fill="white"/>
<path d="M237.001 16.9502V21.0002C237.001 22.1002 236.101 23.0002 235.001 23.0002H223.229C231.125 21.1852 235.272 18.3992 237.001 16.9502Z" fill="#EDA024"/>
<path d="M209 11H229V13H209V11Z" fill="#494949"/>
<path d="M222 12C222 13.7 220.7 15 219 15C217.3 15 216 13.6 216 12C216 10.4 217.4 9 219 9C220.7 9 222 10.3 222 12Z" fill="#EDA024"/>
</svg>
