<?xml version="1.0" encoding="iso-8859-1"?>
<!-- Generator: Adobe Illustrator 18.1.1, SVG Export Plug-In . SVG Version: 6.00 Build 0)  -->
<svg version="1.1" id="Capa_1" xmlns="http://www.w3.org/2000/svg" xmlns:xlink="http://www.w3.org/1999/xlink" x="0px" y="0px"
	 viewBox="0 0 52.257 52.257" style="enable-background:new 0 0 52.257 52.257;" xml:space="preserve">
<g>
	<path style="fill:#010002;" d="M49.757,23.109h-8.058c-1.754,0-2.609-1.304-1.908-2.913l5.003-11.488
		c0.467-1.072-0.024-2.32-1.096-2.788c-1.073-0.468-2.32,0.024-2.787,1.096l-5.74,13.181c-0.701,1.609-2.691,2.913-4.445,2.913
		h-9.368c-1.754,0-3.745-1.304-4.445-2.913l-5.74-13.181C10.707,5.945,9.457,5.454,8.386,5.92C7.314,6.388,6.823,7.636,7.29,8.708
		l5.003,11.488c0.7,1.609-0.154,2.913-1.909,2.913H2.546c-1.754,0-2.859,1.387-2.467,3.096l3.943,17.213
		c0.392,1.709,2.132,3.096,3.886,3.096h36.004c1.754,0,3.521-1.38,3.947-3.082l4.305-17.24
		C52.589,24.489,51.512,23.109,49.757,23.109z M14.422,41.379c0,0.828-0.671,1.5-1.5,1.5s-1.5-0.672-1.5-1.5v-13.5
		c0-0.828,0.671-1.5,1.5-1.5s1.5,0.672,1.5,1.5V41.379z M22.922,41.379c0,0.828-0.671,1.5-1.5,1.5s-1.5-0.672-1.5-1.5v-13.5
		c0-0.828,0.671-1.5,1.5-1.5s1.5,0.672,1.5,1.5V41.379z M31.422,41.379c0,0.828-0.671,1.5-1.5,1.5s-1.5-0.672-1.5-1.5v-13.5
		c0-0.828,0.671-1.5,1.5-1.5s1.5,0.672,1.5,1.5V41.379z M39.922,41.379c0,0.828-0.671,1.5-1.5,1.5s-1.5-0.672-1.5-1.5v-13.5
		c0-0.828,0.671-1.5,1.5-1.5s1.5,0.672,1.5,1.5V41.379z"/>
</g>
<g>
</g>
<g>
</g>
<g>
</g>
<g>
</g>
<g>
</g>
<g>
</g>
<g>
</g>
<g>
</g>
<g>
</g>
<g>
</g>
<g>
</g>
<g>
</g>
<g>
</g>
<g>
</g>
<g>
</g>
</svg>
