<svg width="67" height="67" viewBox="0 0 67 67" fill="none" xmlns="http://www.w3.org/2000/svg">
<g filter="url(#filter0_d_2_109)">
<path fill-rule="evenodd" clip-rule="evenodd" d="M43.1766 15.6018C44.1392 15.1958 45.0687 14.7446 45.8653 14.2514C46.6843 13.7444 47.4877 13.1179 47.9957 12.3459C48.557 11.493 48.7791 10.399 48.2155 9.29797C47.7303 8.34996 46.7704 7.63148 45.6077 7.0425C43.1411 5.79306 40.9166 5.72826 39.0042 6.52084C37.157 7.2864 35.7935 8.77259 34.8157 10.2585C34.2924 11.0537 33.857 11.8832 33.5 12.669C33.143 11.8832 32.7076 11.0537 32.1843 10.2585C31.2065 8.77259 29.843 7.2864 27.9958 6.52084C26.0834 5.72826 23.8589 5.79306 21.3923 7.0425C20.2296 7.63148 19.2697 8.34996 18.7845 9.29797C18.2209 10.399 18.443 11.493 19.0043 12.3459C19.5123 13.1179 20.3158 13.7444 21.1348 14.2514C21.9313 14.7446 22.8608 15.1958 23.8234 15.6018H13.4333C12.6417 15.6018 12 16.2519 12 17.0539V24.3144C12 25.1163 12.6417 25.7665 13.4333 25.7665H14.8667V47.5479C14.8667 48.3499 15.5084 49 16.3 49H50.7C51.4916 49 52.1333 48.3499 52.1333 47.5479V25.7665H53.5667C54.3583 25.7665 55 25.1163 55 24.3144V17.0539C55 16.2519 54.3583 15.6018 53.5667 15.6018H43.1766ZM32.0667 18.506V22.8623H14.8667V18.506H32.0667ZM34.9333 22.8623V18.506H52.1333V22.8623H34.9333ZM32.0667 25.7665H17.7333V46.0958H32.0667V25.7665ZM34.9333 46.0958V25.7665H49.2667V46.0958H34.9333ZM31.3754 15.0384C31.0006 14.0485 30.4806 12.9051 29.7991 11.8695C28.9852 10.6327 28.0195 9.66846 26.9104 9.20881C25.8666 8.77619 24.5078 8.71138 22.6743 9.64009C21.6982 10.1345 21.3996 10.5024 21.3316 10.6305C21.3405 10.6519 21.3575 10.6864 21.3895 10.735C21.5533 10.984 21.9369 11.3445 22.6296 11.7733C23.2964 12.1862 24.1384 12.5951 25.0844 12.9872C26.9747 13.7706 29.1486 14.433 30.8716 14.903C31.0447 14.9502 31.2129 14.9954 31.3754 15.0384ZM35.6246 15.0384C35.7871 14.9954 35.9553 14.9502 36.1284 14.903C37.8514 14.433 40.0253 13.7706 41.9156 12.9872C42.8616 12.5951 43.7036 12.1862 44.3704 11.7733C45.0632 11.3445 45.4467 10.984 45.6105 10.735C45.6425 10.6864 45.6595 10.6519 45.6684 10.6305C45.6004 10.5024 45.3018 10.1345 44.3257 9.64009C42.4922 8.71138 41.1334 8.77619 40.0896 9.20881C38.9805 9.66846 38.0148 10.6327 37.2009 11.8695C36.5194 12.9051 35.9994 14.0485 35.6246 15.0384Z" fill="#ED9C2A"/>
</g>
<defs>
<filter id="filter0_d_2_109" x="0" y="0" width="67" height="67" filterUnits="userSpaceOnUse" color-interpolation-filters="sRGB">
<feFlood flood-opacity="0" result="BackgroundImageFix"/>
<feColorMatrix in="SourceAlpha" type="matrix" values="0 0 0 0 0 0 0 0 0 0 0 0 0 0 0 0 0 0 127 0" result="hardAlpha"/>
<feOffset dy="6"/>
<feGaussianBlur stdDeviation="6"/>
<feColorMatrix type="matrix" values="0 0 0 0 0.929412 0 0 0 0 0.611765 0 0 0 0 0.164706 0 0 0 0.24 0"/>
<feBlend mode="normal" in2="BackgroundImageFix" result="effect1_dropShadow_2_109"/>
<feBlend mode="normal" in="SourceGraphic" in2="effect1_dropShadow_2_109" result="shape"/>
</filter>
</defs>
</svg>
