<svg width="15" height="15" viewBox="0 0 15 15" fill="none" xmlns="http://www.w3.org/2000/svg">
<path d="M11.1789 4.74351C11.6511 4.74351 12.0339 4.36071 12.0339 3.88851C12.0339 3.4163 11.6511 3.03351 11.1789 3.03351C10.7067 3.03351 10.3239 3.4163 10.3239 3.88851C10.3239 4.36071 10.7067 4.74351 11.1789 4.74351Z" fill="#ED9D2A"/>
<path fill-rule="evenodd" clip-rule="evenodd" d="M7.37707 4.03314C6.65345 4.03314 5.94608 4.24772 5.34442 4.64974C4.74275 5.05176 4.2738 5.62317 3.99689 6.29171C3.71997 6.96025 3.64752 7.69589 3.78869 8.4056C3.92986 9.11532 4.27831 9.76724 4.78999 10.2789C5.30167 10.7906 5.95358 11.139 6.6633 11.2802C7.37302 11.4214 8.10865 11.3489 8.77719 11.072C9.44573 10.7951 10.0171 10.3262 10.4192 9.72449C10.8212 9.12282 11.0358 8.41545 11.0358 7.69183C11.0358 6.72149 10.6503 5.79088 9.96416 5.10475C9.27802 4.41861 8.34742 4.03314 7.37707 4.03314ZM7.37707 10.0668C6.90734 10.0668 6.44816 9.92754 6.05759 9.66657C5.66703 9.4056 5.36262 9.03468 5.18286 8.6007C5.0031 8.16673 4.95607 7.6892 5.04771 7.22849C5.13935 6.76779 5.36554 6.3446 5.69769 6.01245C6.02984 5.6803 6.45303 5.4541 6.91373 5.36246C7.37444 5.27082 7.85197 5.31786 8.28595 5.49762C8.71992 5.67737 9.09085 5.98178 9.35181 6.37235C9.61278 6.76292 9.75207 7.2221 9.75207 7.69183C9.75207 8.32172 9.50185 8.92581 9.05645 9.37121C8.61105 9.81661 8.00696 10.0668 7.37707 10.0668Z" fill="#ED9D2A"/>
<path fill-rule="evenodd" clip-rule="evenodd" d="M4.4381 0.609645C5.1981 0.575207 5.44095 0.566895 7.37598 0.566895C9.3116 0.566895 9.55326 0.574613 10.3133 0.610238C10.9043 0.621913 11.4892 0.733738 12.0429 0.940957C12.5162 1.12401 12.9461 1.40395 13.305 1.76284C13.6639 2.12172 13.9439 2.55164 14.1269 3.02502C14.3343 3.57849 14.4463 4.1631 14.4582 4.75402C14.4927 5.51402 14.501 5.75627 14.501 7.6919C14.501 9.62752 14.4927 9.86918 14.4582 10.6292C14.4466 11.2203 14.3347 11.8051 14.1275 12.3588C13.9445 12.8322 13.6645 13.2621 13.3056 13.621C12.9467 13.9798 12.5168 14.2598 12.0434 14.4428C11.4898 14.6503 10.905 14.7623 10.3139 14.7741C9.55385 14.8086 9.31101 14.8169 7.37598 14.8169C5.44095 14.8169 5.1987 14.8086 4.4387 14.7741C3.84758 14.7623 3.26276 14.6503 2.7091 14.4428C2.23572 14.2598 1.80581 13.9798 1.44692 13.621C1.08803 13.2621 0.808091 12.8322 0.625039 12.3588C0.417683 11.8053 0.305659 11.2207 0.293727 10.6298C0.259289 9.86977 0.250977 9.62752 0.250977 7.6919C0.250977 5.75627 0.259289 5.51461 0.293727 4.75461C0.305592 4.1635 0.417618 3.57868 0.625039 3.02502C0.808091 2.55164 1.08803 2.12172 1.44692 1.76284C1.80581 1.40395 2.23572 1.12401 2.7091 0.940957C3.26257 0.733601 3.84719 0.621577 4.4381 0.609645ZM10.2551 1.89214C9.50398 1.85771 9.27835 1.85058 7.37598 1.85058C5.4736 1.85058 5.24798 1.85771 4.49688 1.89214C4.04513 1.89751 3.59767 1.98045 3.17401 2.13736C2.86665 2.25593 2.58751 2.43753 2.35456 2.67048C2.12161 2.90343 1.94001 3.18256 1.82145 3.48993C1.66454 3.91358 1.58159 4.36105 1.57623 4.8128C1.54179 5.5639 1.53466 5.78952 1.53466 7.6919C1.53466 9.59427 1.54179 9.8199 1.57623 10.571C1.58159 11.0227 1.66454 11.4702 1.82145 11.8939C1.94001 12.2012 2.12161 12.4804 2.35456 12.7133C2.58751 12.9463 2.86665 13.1279 3.17401 13.2464C3.59767 13.4033 4.04513 13.4863 4.49688 13.4916C5.24798 13.5261 5.4736 13.5332 7.37598 13.5332C9.27835 13.5332 9.50398 13.5261 10.2551 13.4916C10.7068 13.4863 11.1543 13.4033 11.5779 13.2464C11.8853 13.1279 12.1644 12.9463 12.3974 12.7133C12.6303 12.4804 12.8119 12.2012 12.9305 11.8939C13.0874 11.4702 13.1704 11.0227 13.1757 10.571C13.2102 9.8199 13.2173 9.59546 13.2173 7.69249C13.2173 5.78952 13.2102 5.5639 13.1757 4.8128C13.1704 4.36105 13.0874 3.91358 12.9305 3.48993C12.8119 3.18256 12.6303 2.90343 12.3974 2.67048C12.1644 2.43753 11.8853 2.25593 11.5779 2.13736C11.1543 1.98045 10.7068 1.89751 10.2551 1.89214Z" fill="#ED9D2A"/>
</svg>
