<svg width="75" height="25" viewBox="0 0 75 25" fill="none" xmlns="http://www.w3.org/2000/svg">
<rect width="4.80769" height="25" fill="#121236"/>
<path d="M17.1908 11.5101C18.4454 10.302 18.9879 8.85906 18.9879 7.31544C18.9879 2.71812 15.9023 0 10.6807 0H5.76923V4.36242H11.0537C12.6812 4.36242 13.7323 5.36913 13.7323 6.8792C13.7323 8.38926 12.6812 9.39597 11.0537 9.39597H5.76923V13.9262H11.291C13.3932 13.9262 14.7834 15.2349 14.7834 17.2148C14.7834 19.1611 13.3932 20.4698 11.291 20.4698H5.76923V25H10.6807C16.5466 25 20.039 22.1476 20.039 17.2148C20.039 15.0336 19.4287 13.0201 17.1908 11.5101Z" fill="#ED9D2A"/>
<path d="M50.0771 0L45.7709 18.1544L41.7021 0H35.3276L31.2587 18.1544L26.9526 0H21.2223L27.4612 25H34.3104L38.3453 7.24832L42.3802 25H49.2294L55.4683 0H50.0771Z" fill="#ED9D2A"/>
<path d="M74.9661 25H58.0126V0H75V4.5302H63.2682V10.2013H74.3219V14.7315H63.2682V20.4698H75L74.9661 25Z" fill="#ED9D2A"/>
</svg>
