<svg width="70" height="55" viewBox="0 0 70 55" fill="none" xmlns="http://www.w3.org/2000/svg">
<g filter="url(#filter0_d_2_121)">
<path fill-rule="evenodd" clip-rule="evenodd" d="M34.9971 22.9048C37.112 22.9048 39.378 20.782 39.378 17.4286C39.378 14.0753 37.112 11.9524 34.9971 11.9524C32.8822 11.9524 30.6161 14.0753 30.6161 17.4286C30.6161 20.782 32.8822 22.9048 34.9971 22.9048ZM34.9971 25.0953C38.6264 25.0953 41.5685 21.6628 41.5685 17.4286C41.5685 13.1944 38.6264 9.76196 34.9971 9.76196C31.3678 9.76196 28.4257 13.1944 28.4257 17.4286C28.4257 21.6628 31.3678 25.0953 34.9971 25.0953Z" fill="#ED9C2A"/>
<path d="M25.1407 16.334C25.1407 17.5438 24.16 18.5245 22.9502 18.5245C21.7405 18.5245 20.7598 17.5438 20.7598 16.334C20.7598 15.1243 21.7405 14.1436 22.9502 14.1436C24.16 14.1436 25.1407 15.1243 25.1407 16.334Z" fill="#ED9C2A"/>
<path d="M49.239 16.334C49.239 17.5438 48.2583 18.5245 47.0486 18.5245C45.8388 18.5245 44.8581 17.5438 44.8581 16.334C44.8581 15.1243 45.8388 14.1436 47.0486 14.1436C48.2583 14.1436 49.239 15.1243 49.239 16.334Z" fill="#ED9C2A"/>
<path fill-rule="evenodd" clip-rule="evenodd" d="M55.8095 3.19048H14.1905V29.4762H55.8095V3.19048ZM12 1V31.6667H58V1H12Z" fill="#ED9C2A"/>
<path d="M16.381 3.19048C16.381 4.40024 15.4002 5.38095 14.1905 5.38095C12.9807 5.38095 12 4.40024 12 3.19048C12 1.98071 12.9807 1 14.1905 1C15.4002 1 16.381 1.98071 16.381 3.19048Z" fill="#ED9C2A"/>
<path d="M16.381 29.4759C16.381 30.6856 15.4002 31.6664 14.1905 31.6664C12.9807 31.6664 12 30.6856 12 29.4759C12 28.2661 12.9807 27.2854 14.1905 27.2854C15.4002 27.2854 16.381 28.2661 16.381 29.4759Z" fill="#ED9C2A"/>
<path d="M57.9988 29.4759C57.9988 30.6856 57.0181 31.6664 55.8083 31.6664C54.5986 31.6664 53.6179 30.6856 53.6179 29.4759C53.6179 28.2661 54.5986 27.2854 55.8083 27.2854C57.0181 27.2854 57.9988 28.2661 57.9988 29.4759Z" fill="#ED9C2A"/>
<path d="M57.9988 3.19048C57.9988 4.40024 57.0181 5.38095 55.8083 5.38095C54.5986 5.38095 53.6179 4.40024 53.6179 3.19048C53.6179 1.98071 54.5986 1 55.8083 1C57.0181 1 57.9988 1.98071 57.9988 3.19048Z" fill="#ED9C2A"/>
</g>
<defs>
<filter id="filter0_d_2_121" x="0" y="0" width="70" height="54.6667" filterUnits="userSpaceOnUse" color-interpolation-filters="sRGB">
<feFlood flood-opacity="0" result="BackgroundImageFix"/>
<feColorMatrix in="SourceAlpha" type="matrix" values="0 0 0 0 0 0 0 0 0 0 0 0 0 0 0 0 0 0 127 0" result="hardAlpha"/>
<feOffset dy="11"/>
<feGaussianBlur stdDeviation="6"/>
<feColorMatrix type="matrix" values="0 0 0 0 0.929412 0 0 0 0 0.611765 0 0 0 0 0.164706 0 0 0 0.2 0"/>
<feBlend mode="normal" in2="BackgroundImageFix" result="effect1_dropShadow_2_121"/>
<feBlend mode="normal" in="SourceGraphic" in2="effect1_dropShadow_2_121" result="shape"/>
</filter>
</defs>
</svg>
