<svg width="18" height="15" viewBox="0 0 18 15" fill="none" xmlns="http://www.w3.org/2000/svg">
<path d="M6.17539 14.8167C7.49983 14.8252 8.81274 14.5662 10.038 14.0549C11.2632 13.5435 12.3764 12.7899 13.3129 11.8378C14.2495 10.8858 14.9907 9.7541 15.4937 8.50852C15.9967 7.26295 16.2514 5.92823 16.2431 4.5818V4.11151C16.9297 3.60015 17.5239 2.97178 17.9995 2.25424C17.353 2.54168 16.669 2.73231 15.9687 2.82019C16.7112 2.37045 17.2682 1.66252 17.5369 0.827417C16.8449 1.24944 16.0862 1.54612 15.2944 1.70424C14.7611 1.12662 14.0555 0.743765 13.2867 0.614896C12.5178 0.486027 11.7287 0.618334 11.0413 0.991345C10.3538 1.36436 9.80651 1.95728 9.48395 2.67837C9.16139 3.39946 9.08158 4.20852 9.25687 4.98036C7.85023 4.91017 6.4739 4.53957 5.21751 3.89271C3.96112 3.24584 2.85283 2.33721 1.96482 1.22597C1.51705 2.01605 1.38132 2.94958 1.58513 3.83756C1.78894 4.72554 2.31706 5.50161 3.06255 6.00863C2.5126 5.98707 1.97537 5.83415 1.49437 5.56225V5.6021C1.48948 6.42778 1.76309 7.23021 2.2696 7.87568C2.77611 8.52114 3.48492 8.97063 4.27789 9.14924C3.76638 9.2891 3.23057 9.31089 2.70971 9.21301C2.93928 9.91717 3.37751 10.5319 3.96429 10.9729C4.55108 11.4138 5.25768 11.6595 5.98721 11.6761C4.73989 12.6968 3.18964 13.2586 1.58846 13.2703C1.30772 13.262 1.02764 13.2381 0.749481 13.1986C2.37016 14.2483 4.25374 14.8017 6.17539 14.7928" fill="#ED9D2A"/>
</svg>
