<svg width="73" height="56" viewBox="0 0 73 56" fill="none" xmlns="http://www.w3.org/2000/svg">
<g filter="url(#filter0_d_2_115)">
<path d="M12 6V8.90909H41.0938V30.7273H31.6674C30.9844 28.2269 28.6171 26.3636 25.7812 26.3636C22.9454 26.3636 20.5781 28.2269 19.8951 30.7273H18.125V23.4545H15.0625V33.6364H19.8951C20.5781 36.1367 22.9454 38 25.7812 38C28.6171 38 30.9844 36.1367 31.6674 33.6364H44.3951C45.0781 36.1367 47.4454 38 50.2812 38C53.1171 38 55.4844 36.1367 56.1674 33.6364H61V21.7731L60.9035 21.5447L57.841 12.8175L57.5087 11.8182H44.1562V6H12ZM13.5312 11.8182V14.7273H27.3125V11.8182H13.5312ZM44.1562 14.7273H55.3053L57.9375 22.1818V30.7273H56.1674C55.4844 28.2269 53.1171 26.3636 50.2812 26.3636C47.4454 26.3636 45.0781 28.2269 44.3951 30.7273H44.1562V14.7273ZM15.0625 17.6364V20.5455H24.25V17.6364H15.0625ZM25.7812 29.2727C27.4917 29.2727 28.8438 30.5571 28.8438 32.1818C28.8438 33.8065 27.4917 35.0909 25.7812 35.0909C24.0708 35.0909 22.7188 33.8065 22.7188 32.1818C22.7188 30.5571 24.0708 29.2727 25.7812 29.2727ZM50.2812 29.2727C51.9917 29.2727 53.3438 30.5571 53.3438 32.1818C53.3438 33.8065 51.9917 35.0909 50.2812 35.0909C48.5708 35.0909 47.2188 33.8065 47.2188 32.1818C47.2188 30.5571 48.5708 29.2727 50.2812 29.2727Z" fill="#ED9C2A"/>
</g>
<defs>
<filter id="filter0_d_2_115" x="0" y="0" width="73" height="56" filterUnits="userSpaceOnUse" color-interpolation-filters="sRGB">
<feFlood flood-opacity="0" result="BackgroundImageFix"/>
<feColorMatrix in="SourceAlpha" type="matrix" values="0 0 0 0 0 0 0 0 0 0 0 0 0 0 0 0 0 0 127 0" result="hardAlpha"/>
<feOffset dy="6"/>
<feGaussianBlur stdDeviation="6"/>
<feColorMatrix type="matrix" values="0 0 0 0 0.929412 0 0 0 0 0.611765 0 0 0 0 0.164706 0 0 0 0.24 0"/>
<feBlend mode="normal" in2="BackgroundImageFix" result="effect1_dropShadow_2_115"/>
<feBlend mode="normal" in="SourceGraphic" in2="effect1_dropShadow_2_115" result="shape"/>
</filter>
</defs>
</svg>
