<svg width="95" height="35" viewBox="0 0 95 35" fill="none" xmlns="http://www.w3.org/2000/svg">
<path d="M16.3795 16.1537C18.0857 14.5107 18.8235 12.5483 18.8235 10.449C18.8235 4.19665 14.6272 0.5 7.52574 0.5H0.846161V6.43289H8.03298C10.2464 6.43289 11.6759 7.80201 11.6759 9.85571C11.6759 11.9094 10.2464 13.2785 8.03298 13.2785H0.846161V19.4396H8.35578C11.2148 19.4396 13.1055 21.2195 13.1055 23.9121C13.1055 26.5591 11.2148 28.3389 8.35578 28.3389H0.846161V34.5H7.52574C15.5034 34.5 20.253 30.6208 20.253 23.9121C20.253 20.9456 19.423 18.2074 16.3795 16.1537Z" fill="#ED9D2A"/>
<path d="M61.1048 0.5L55.2484 25.1899L49.7148 0.5H41.0455L35.5119 25.1899L29.6555 0.5H21.8623L30.3472 34.5H39.6621L45.1496 10.3577L50.6371 34.5H59.952L68.4369 0.5H61.1048Z" fill="#ED9D2A"/>
<path d="M94.9539 34.5H71.8972V0.5H95V6.66108H79.0448V14.3738H94.0777V20.5349H79.0448V28.3389H95L94.9539 34.5Z" fill="#ED9D2A"/>
</svg>
