<svg width="175" height="34" viewBox="0 0 175 34" fill="none" xmlns="http://www.w3.org/2000/svg">
<path d="M15.0071 0.923218C16.4973 0.923218 17.8721 1.03747 19.1314 1.37675C20.3908 1.60178 21.4227 2.05531 22.3393 2.62309C23.2558 3.19086 23.9414 3.98367 24.3997 5.00498C24.8579 6.02629 25.0853 7.27263 25.0853 8.63321C25.0853 10.2188 24.7425 11.5794 23.9414 12.6007C23.2558 13.622 22.1084 14.5291 20.7336 15.2077C22.6821 15.7754 24.1688 16.7933 25.0853 18.1539C26.0018 19.5145 26.5755 21.2143 26.5755 23.1427C26.5755 24.7283 26.2327 26.0889 25.659 27.2245C25.0853 28.3565 24.1688 29.3779 23.1403 30.0599C22.1084 30.7384 20.849 31.3062 19.4743 31.6455C18.0995 31.9848 16.7247 32.2133 15.3499 32.2133H0V0.923218H15.0071ZM14.0906 13.622C15.3499 13.622 16.3819 13.2828 17.183 12.715C17.984 12.1472 18.3269 11.1294 18.3269 9.87955C18.3269 9.20099 18.2114 8.51897 17.984 8.06544C17.7567 7.61191 17.4103 7.27263 16.9521 6.93335C16.4938 6.70831 16.0356 6.47982 15.4619 6.36557C14.8882 6.25132 14.318 6.25132 13.6288 6.25132H6.98932V13.622H14.0906ZM14.4334 26.9994C15.119 26.9994 15.8082 26.8852 16.3819 26.7744C16.9556 26.6636 17.5258 26.4351 17.984 26.0958C18.4423 25.7565 18.7851 25.4173 19.1279 24.8495C19.3623 24.2782 19.5897 23.5997 19.5897 22.8034C19.5897 21.2178 19.1314 20.0822 18.2149 19.2894C17.2984 18.6109 16.0391 18.2681 14.5489 18.2681H6.98932V26.9994H14.4334Z" fill="#7E97B2"/>
<path d="M36.5453 26.8852C37.4618 27.7923 38.8366 28.2458 40.6696 28.2458C41.929 28.2458 43.0764 27.9065 43.9929 27.3388C44.9094 26.6602 45.4831 25.9782 45.7105 25.2996H51.325C50.4085 28.0208 49.0337 29.9492 47.2007 31.1955C45.3676 32.3276 43.1918 33.0096 40.5577 33.0096C38.7246 33.0096 37.1225 32.6703 35.6323 32.1026C34.1421 31.5348 32.9982 30.742 31.9662 29.6099C30.9342 28.5886 30.1332 27.3422 29.6749 25.8674C29.1012 24.3926 28.8738 22.8069 28.8738 20.9928C28.8738 19.293 29.1012 17.7039 29.6749 16.2325C30.2486 14.7577 31.0497 13.5113 32.0816 12.3792C33.1136 11.3579 34.3729 10.4509 35.7477 9.88655C37.2379 9.31877 38.7246 8.97949 40.5577 8.97949C42.5062 8.97949 44.2237 9.31877 45.714 10.1116C47.2042 10.9044 48.3481 11.8115 49.2646 13.172C50.1811 14.4184 50.8668 15.8932 51.325 17.4788C51.5524 19.0645 51.6678 20.6535 51.5524 22.4677H34.9396C34.9396 24.2783 35.6288 25.9782 36.5453 26.8852ZM43.762 14.9827C42.9609 14.1899 41.7016 13.7364 40.2114 13.7364C39.1794 13.7364 38.3783 13.9614 37.6927 14.3041C37.007 14.6434 36.5488 15.0969 36.0905 15.5505C35.6323 16.004 35.4049 16.5718 35.2894 17.1361C35.174 17.7039 35.0621 18.1574 35.0621 18.6109H45.3711C45.1368 16.9111 44.5631 15.7755 43.762 14.9827Z" fill="#7E97B2"/>
<path d="M60.4867 0.923218V12.715H60.6021C61.4032 11.3544 62.4351 10.4473 63.6945 9.87955C64.9538 9.31178 66.1012 8.9725 67.3605 8.9725C69.0781 8.9725 70.4529 9.19753 71.4849 9.65106C72.5168 10.1046 73.4333 10.7832 74.0035 11.5794C74.5772 12.3722 75.0355 13.3935 75.2629 14.5256C75.4903 15.6577 75.6057 16.9075 75.6057 18.3789V32.3241H69.3055V19.5179C69.3055 17.5896 68.9627 16.229 68.389 15.3219C67.8153 14.4148 66.7868 13.9613 65.2966 13.9613C63.579 13.9613 62.3197 14.5291 61.6305 15.4362C60.8295 16.4575 60.4867 18.1573 60.4867 20.425V32.331H54.1865V0.923218H60.4867Z" fill="#7E97B2"/>
<path d="M80.1918 12.94C80.8775 11.9187 81.6821 11.2402 82.7105 10.5582C83.7425 9.99038 84.8864 9.53685 86.1457 9.31182C87.405 9.08678 88.6644 8.97253 89.9272 8.97253C91.0711 8.97253 92.2185 9.08678 93.4779 9.19757C94.6217 9.31182 95.7692 9.6511 96.6857 10.1046C97.7176 10.5582 98.4033 11.2367 99.0924 12.033C99.6661 12.8258 100.009 13.9614 100.009 15.3219V27.2279C100.009 28.2493 100.124 29.2671 100.236 30.1742C100.352 31.0812 100.695 31.874 101.037 32.3276H94.6252C94.3979 32.1025 94.2824 31.649 94.167 31.3062C94.0516 30.967 94.0515 30.5134 94.0515 30.1742C93.0196 31.1955 91.8757 31.874 90.5009 32.3276C89.1261 32.7811 87.7514 32.8953 86.3766 32.8953C85.2327 32.8953 84.3162 32.7811 83.2842 32.4418C82.3677 32.2168 81.5666 31.7632 80.7655 31.1955C80.0799 30.6277 79.5062 29.9491 79.0479 29.0421C78.7051 28.135 78.4742 27.2279 78.4742 25.9816C78.4742 24.7353 78.7016 23.5997 79.1599 22.8069C79.6181 22.0141 80.1918 21.3321 80.8775 20.7678C81.5631 20.3142 82.4796 19.8607 83.3962 19.6357C84.3127 19.4106 85.2292 19.1821 86.2611 19.0679C87.1777 18.9536 88.0942 18.8429 89.0107 18.7286C89.9272 18.6144 90.7283 18.5036 91.4174 18.3893C92.1031 18.1643 92.6768 17.9358 93.135 17.5965C93.5933 17.2572 93.7087 16.8037 93.7087 16.1217C93.7087 15.4431 93.5933 14.8753 93.3659 14.5361C93.1385 14.1968 92.7922 13.8575 92.4494 13.629C92.1066 13.404 91.6483 13.2897 91.1901 13.1755C90.7318 13.0612 90.1581 13.0612 89.5879 13.0612C88.3286 13.0612 87.412 13.2863 86.7229 13.854C86.0373 14.4218 85.579 15.3289 85.4636 16.461H79.1634C79.1599 15.0969 79.6181 13.8471 80.1918 12.94ZM92.6803 21.7856C92.3375 21.8998 91.8792 22.0106 91.4209 22.1249C90.9627 22.2391 90.5044 22.2391 89.9307 22.3499C89.4725 22.4642 88.8988 22.4642 88.4405 22.5749C87.9822 22.6892 87.524 22.8 87.0657 22.9142C86.6075 23.0285 86.1492 23.2535 85.9218 23.482C85.579 23.707 85.3481 24.0498 85.1207 24.3891C84.7779 24.8426 84.7779 25.2961 84.7779 25.8639C84.7779 26.4317 84.8934 26.8852 85.1207 27.2245C85.3481 27.5638 85.579 27.903 85.9218 28.1315C86.2646 28.3566 86.7229 28.4708 87.1812 28.5851C87.6394 28.6993 88.0977 28.6993 88.6714 28.6993C89.9307 28.6993 90.8472 28.4743 91.5364 28.1315C92.222 27.678 92.6803 27.2245 93.0266 26.6567C93.3694 26.0889 93.6003 25.5246 93.6003 24.9568C93.7157 24.3891 93.7157 23.9355 93.7157 23.5963V21.2144C93.3659 21.4429 93.0231 21.6714 92.6803 21.7856Z" fill="#7E97B2"/>
<path d="M109.52 9.54031V12.715H109.636C110.437 11.3544 111.469 10.4474 112.728 9.87959C113.988 9.31182 115.362 8.97253 116.622 8.97253C118.339 8.97253 119.714 9.19757 120.746 9.6511C121.89 10.1046 122.694 10.7832 123.265 11.5795C123.838 12.3723 124.297 13.3936 124.639 14.5257C124.867 15.6578 124.982 16.9076 124.982 18.3789V32.3241H118.682V19.518C118.682 17.5896 118.339 16.229 117.766 15.3219C117.192 14.4149 116.163 13.8471 114.558 13.8471C112.84 13.8471 111.581 14.5257 110.776 15.547C109.975 16.5683 109.632 18.2682 109.632 20.5358V32.4418H103.332V9.54031H109.52Z" fill="#7E97B2"/>
<path d="M139.076 13.6221C138.044 13.6221 137.243 13.8471 136.558 14.3006C135.872 14.7542 135.298 15.3219 134.84 16.1148C134.382 16.7933 134.154 17.5896 133.924 18.4966C133.693 19.4037 133.696 20.1965 133.696 21.1036C133.696 21.8964 133.812 22.8034 133.924 23.5963C134.151 24.5033 134.382 25.1819 134.84 25.8639C135.298 26.5425 135.757 27.1102 136.442 27.5638C137.128 28.0173 137.932 28.2423 138.961 28.2423C140.451 28.2423 141.595 27.7888 142.512 26.996C143.313 26.2032 143.886 25.0676 144.002 23.5963H150.075C149.616 26.6567 148.472 28.9244 146.524 30.5134C144.575 32.0991 142.057 32.8953 138.964 32.8953C137.247 32.8953 135.641 32.5561 134.266 31.9883C132.776 31.4205 131.632 30.6277 130.6 29.6064C129.568 28.5851 128.767 27.3387 128.194 25.9781C127.62 24.5033 127.392 23.0319 127.392 21.3286C127.392 19.5145 127.62 17.9289 128.194 16.454C128.767 14.9792 129.453 13.6186 130.485 12.4865C131.517 11.3544 132.776 10.5582 134.151 9.87959C135.641 9.31182 137.243 8.97253 139.076 8.97253C140.451 8.97253 141.71 9.19757 142.97 9.54031C144.229 9.87959 145.377 10.4474 146.293 11.1259C147.325 11.8045 148.126 12.7116 148.7 13.8471C149.273 14.8684 149.616 16.229 149.732 17.7004H143.547C143.313 14.9827 141.826 13.6221 139.076 13.6221Z" fill="#7E97B2"/>
<path d="M46.5115 3.07666H33.6803V6.13712H46.5115V3.07666Z" fill="#7E97B2"/>
<path d="M159.583 26.8852C160.499 27.7923 161.989 28.2458 163.707 28.2458C164.966 28.2458 166.114 27.9065 167.03 27.3388C167.947 26.6602 168.52 25.9782 168.748 25.2996H174.247C173.33 28.0208 171.956 29.9492 170.122 31.1955C168.289 32.3276 166.114 33.0096 163.479 33.0096C161.646 33.0096 160.044 32.6703 158.554 32.1026C157.064 31.5348 155.92 30.742 154.888 29.6099C153.856 28.5886 153.055 27.3422 152.597 25.8674C152.023 24.3926 151.796 22.8069 151.796 20.9928C151.796 19.293 152.023 17.7039 152.597 16.2325C153.17 14.7611 153.971 13.5113 155.003 12.3792C156.035 11.3579 157.295 10.4509 158.67 9.88655C160.16 9.31877 161.762 8.97949 163.479 8.97949C165.428 8.97949 167.146 9.31877 168.52 10.1116C170.011 10.9044 171.154 11.8115 172.071 13.172C172.987 14.4184 173.673 15.8932 174.131 17.4788C174.59 19.0645 174.705 20.7678 174.59 22.5819H157.977C157.977 24.2783 158.666 25.9782 159.583 26.8852ZM166.915 14.9827C166.114 14.1899 164.854 13.7364 163.364 13.7364C162.332 13.7364 161.531 13.9614 160.845 14.3041C160.16 14.6434 159.586 15.0969 159.243 15.5505C158.9 16.004 158.558 16.5718 158.442 17.1361C158.327 17.7039 158.215 18.1574 158.215 18.6109H168.524C168.174 16.9111 167.6 15.7755 166.915 14.9827Z" fill="#7E97B2"/>
</svg>
