<svg width="149" height="45" viewBox="0 0 149 45" fill="none" xmlns="http://www.w3.org/2000/svg">
<path d="M31.7316 4.45007C32.1736 3.21372 32.9956 2.14531 34.0822 1.39467C35.1688 0.644042 36.4656 0.248833 37.7906 0.264479C40.8086 0.214038 42.6514 1.82715 43.8217 4.5371C43.9796 4.21566 44.0955 3.97632 44.2214 3.73796C44.7638 2.76927 45.5389 1.94765 46.4782 1.34567C47.4174 0.743691 48.4921 0.379865 49.6071 0.286316C50.7221 0.192767 51.8433 0.372371 52.8716 0.809279C53.8998 1.24619 54.8036 1.92696 55.503 2.79146C56.2392 3.81772 56.6394 5.04294 56.6493 6.30152C56.7052 7.51012 56.6772 8.72267 56.6772 9.93126V24.5976C56.6772 25.5253 56.4264 25.7785 55.493 25.7844C54.1559 25.7891 52.8188 25.7891 51.4817 25.7844C50.6322 25.7844 50.3534 25.5045 50.3534 24.65C50.3534 19.7794 50.3534 14.9091 50.3534 10.0391C50.362 9.48747 50.3287 8.93601 50.2535 8.38938C50.2402 7.92463 50.0817 7.47536 49.7998 7.10342C49.518 6.73148 49.1266 6.45513 48.6795 6.31241C48.1697 6.13232 47.6206 6.08972 47.0887 6.18896C46.5567 6.2882 46.061 6.52571 45.6525 6.87714C45.2077 7.31209 44.8662 7.83941 44.6526 8.42096C44.439 9.00252 44.3586 9.62378 44.4173 10.2398C44.3663 12.5927 44.3893 14.9447 44.3893 17.2976C44.3893 19.7237 44.3893 22.1498 44.3893 24.5758C44.3893 25.4858 44.1065 25.7755 43.2011 25.7795C41.8639 25.7841 40.5268 25.7841 39.1897 25.7795C38.2983 25.7795 38.0385 25.5085 38.0385 24.6174C38.0385 19.7474 38.0475 14.8764 38.0245 10.0064C38.0104 9.34604 37.912 8.69007 37.7317 8.05409C37.6384 7.51245 37.3556 7.02051 36.9329 6.66434C36.5102 6.30816 35.9743 6.11041 35.4192 6.1057C34.8334 6.03173 34.2395 6.15221 33.7304 6.44826C33.2213 6.7443 32.8258 7.19918 32.606 7.74156C32.1675 8.91625 31.9764 10.1673 32.0444 11.4178C32.0351 15.8104 32.0351 20.203 32.0444 24.5956C32.0444 25.5144 31.7846 25.7765 30.8512 25.7765C29.514 25.7811 28.1769 25.7811 26.8398 25.7765C25.9764 25.7765 25.7115 25.5055 25.7115 24.651V1.93001C25.7115 1.02505 25.9624 0.771852 26.8488 0.771852C28.148 0.771852 29.4471 0.771852 30.7462 0.771852C31.4458 0.771852 31.7166 1.0478 31.7216 1.74111C31.7316 2.653 31.7316 3.54906 31.7316 4.45007Z" fill="#7E97B2"/>
<path d="M13.8703 9.89868C13.9173 9.07493 13.9109 8.24905 13.8513 7.4261C13.8165 7.03839 13.7004 6.6621 13.5105 6.32123C13.3206 5.98037 13.061 5.68241 12.7483 5.44634C12.4356 5.21027 12.0766 5.04127 11.6942 4.95012C11.3118 4.85897 10.9145 4.84767 10.5275 4.91693C9.71802 4.90234 8.92965 5.17276 8.30295 5.67997C7.67624 6.18717 7.25195 6.89818 7.1057 7.68622C6.9668 8.32909 6.64101 8.50415 5.96845 8.43492C4.75191 8.30305 3.53537 8.17908 2.31883 8.06304C1.24154 7.95721 0.995708 7.61303 1.25154 6.57949C1.52183 5.31432 2.11401 4.13838 2.97199 3.16308C3.82997 2.18778 4.92533 1.44542 6.15432 1.00631C7.76845 0.341997 9.49935 0 11.2475 0C12.9956 0 14.7265 0.341997 16.3406 1.00631C17.5211 1.43671 18.5382 2.21804 19.2523 3.24311C19.9663 4.26819 20.3424 5.48681 20.329 6.73181C20.436 9.92539 20.4499 13.1229 20.389 16.3165C20.2712 18.1274 20.8539 19.9148 22.0189 21.3161C22.6035 21.9965 22.5186 22.3773 21.847 22.9519C20.835 23.8157 19.8244 24.6794 18.815 25.5432C18.1654 26.099 17.7607 26.1455 17.1711 25.5521C16.3446 24.7203 15.5881 23.8203 14.7897 22.9381C14.256 23.3881 13.6844 23.935 13.0488 24.3988C11.8539 25.2827 10.4561 25.8596 8.98067 26.0778C7.50522 26.296 5.99815 26.1486 4.59435 25.649C3.44825 25.2923 2.43986 24.5971 1.70458 23.6567C0.969309 22.7163 0.54235 21.5758 0.481034 20.3883C0.202931 18.991 0.311085 17.5452 0.794077 16.2037C1.27707 14.8621 2.11699 13.6744 3.22524 12.7659C4.59657 11.6847 6.23452 10.9851 7.97013 10.7394C9.92884 10.409 11.8976 10.1746 13.8703 9.89868ZM13.9542 13.6016C13.2207 13.6471 12.5891 13.6609 11.9675 13.7391C11.4341 13.8042 10.9063 13.9087 10.3885 14.0516C7.43148 14.8607 6.69097 17.2768 7.32456 19.5566C7.48163 20.1889 7.87639 20.7381 8.42842 21.0924C8.98044 21.4467 9.6482 21.5794 10.2956 21.4634C10.8651 21.3744 11.4057 21.1548 11.8742 20.8222C12.3427 20.4895 12.7262 20.0531 12.9938 19.5477C14.1401 17.712 13.9122 15.6746 13.9542 13.6026V13.6016Z" fill="#7E97B2"/>
<path d="M75.158 22.8563C74.6334 23.3162 74.1457 23.7612 73.635 24.1796C72.2294 25.3787 70.4391 26.0447 68.5834 26.0587C67.5502 26.1004 66.5156 26.0234 65.5004 25.8293C64.3782 25.6104 63.3475 25.0657 62.5396 24.2645C61.7316 23.4634 61.1832 22.4421 60.9643 21.3312C60.5431 19.9604 60.4942 18.5039 60.8226 17.1085C61.151 15.713 61.8452 14.4278 62.8351 13.3823C64.2892 11.9368 66.1875 11.0107 68.2316 10.7495C70.1123 10.4281 72.0111 10.2353 73.8998 9.98206C73.9928 9.96821 74.0807 9.95437 74.2856 9.91777C74.266 8.97062 74.1899 8.02544 74.0578 7.08717C73.909 6.38404 73.492 5.76476 72.8935 5.35819C72.2951 4.95162 71.5613 4.78908 70.8449 4.90438C70.0378 4.89592 69.2529 5.16536 68.6245 5.66658C67.9961 6.1678 67.5632 6.86963 67.4001 7.6519C67.2612 8.33631 66.9264 8.51136 66.2349 8.43718C65.0357 8.30531 63.8365 8.18268 62.6372 8.06927C61.514 7.95949 61.2771 7.64201 61.538 6.56694C61.8291 5.24936 62.4642 4.03033 63.3798 3.03144C64.2955 2.03255 65.4598 1.2887 66.7565 0.874065C69.4392 -0.108363 72.3638 -0.243128 75.1271 0.488344C78.8087 1.43979 80.6425 3.76007 80.6794 7.53223C80.7121 10.7301 80.7167 13.928 80.6934 17.1258C80.6558 18.4215 81.0705 19.6905 81.8676 20.719C83.2327 22.4784 82.7591 22.3865 81.5149 23.4665C80.6934 24.1786 79.8669 24.8907 79.0355 25.5939C78.4359 26.1042 78.0231 26.1319 77.4805 25.5751C76.775 24.8541 76.1344 24.0678 75.4748 23.3053C75.3619 23.1688 75.2689 23.0125 75.158 22.8563ZM74.2296 13.5792C73.2923 13.6662 72.4188 13.6988 71.5694 13.8413C68.5653 14.3358 67.1493 16.0923 67.4561 18.8853C67.4753 19.3715 67.6245 19.8439 67.8884 20.2544C68.1523 20.665 68.5215 20.9989 68.9583 21.2222C69.3951 21.4455 69.8839 21.5501 70.3749 21.5255C70.8659 21.5009 71.3415 21.3478 71.7533 21.0819C72.6384 20.5601 73.3165 19.7542 73.675 18.7983C74.3686 17.1456 74.2197 15.4128 74.2296 13.5792Z" fill="#7E97B2"/>
<path d="M136.111 4.90502C136.427 4.3116 136.72 3.70533 137.068 3.13169C137.655 2.10674 138.547 1.28595 139.623 0.781189C140.699 0.276424 141.906 0.112225 143.08 0.310971C144.556 0.368245 145.958 0.972333 147.006 2.00358C148.054 3.03482 148.672 4.41802 148.739 5.87922C148.902 7.37481 148.984 8.87798 148.985 10.3823C149.013 15.1059 148.994 19.8295 148.994 24.5521C148.994 25.5491 148.757 25.7884 147.75 25.7884C146.45 25.793 145.151 25.793 143.852 25.7884C142.896 25.7884 142.645 25.5312 142.645 24.566C142.645 19.6584 142.645 14.7518 142.612 9.84919C142.602 9.16938 142.486 8.49515 142.268 7.85035C142.145 7.43916 141.918 7.0656 141.61 6.76452C141.301 6.46345 140.92 6.24466 140.503 6.12862C140.086 6.01257 139.646 6.00303 139.224 6.10089C138.802 6.19876 138.412 6.40082 138.09 6.68824C137.259 7.43983 136.74 8.46952 136.632 9.5782C136.493 10.3551 136.422 11.1422 136.418 11.9311C136.399 16.1394 136.409 20.3487 136.409 24.5571C136.409 25.5174 136.149 25.7835 135.202 25.7835C133.865 25.7881 132.529 25.7881 131.195 25.7835C130.36 25.7835 130.062 25.4798 130.062 24.6391V1.81727C130.062 1.08242 130.369 0.783735 131.111 0.77879C132.43 0.774174 133.747 0.774174 135.062 0.77879C135.804 0.77879 136.055 1.03593 136.055 1.77573C136.055 2.80531 136.055 3.83391 136.064 4.86349C136.069 4.87734 136.088 4.89019 136.111 4.90502Z" fill="#7E97B2"/>
<path d="M105.767 13.0834C105.728 10.205 106.455 7.36705 107.875 4.85466C108.767 3.42032 110.022 2.24175 111.517 1.43591C113.011 0.630064 114.693 0.224938 116.394 0.260726C118.096 0.296514 119.758 0.771975 121.217 1.63993C122.675 2.50788 123.879 3.73818 124.709 5.20873C126.025 7.66722 126.702 10.4118 126.677 13.1942C126.802 16.2225 126.003 19.2179 124.384 21.7908C123.021 23.9391 120.858 25.4693 118.363 26.0499C115.868 26.6304 113.242 26.2146 111.055 24.8924C108.838 23.4325 107.238 21.2194 106.558 18.6714C106.008 16.8595 105.741 14.975 105.767 13.0834ZM119.793 13.4513C119.84 12.6447 119.834 11.8359 119.774 11.0302C119.613 9.66815 119.359 8.31858 119.012 6.99095C118.87 6.45088 118.551 5.9722 118.107 5.62856C117.662 5.28492 117.116 5.09537 116.552 5.08906C115.959 4.99054 115.35 5.08785 114.819 5.366C114.288 5.64414 113.864 6.08764 113.613 6.62799C113.214 7.47181 112.939 8.36768 112.795 9.28848C112.5 11.4918 112.466 13.7218 112.696 15.9328C112.744 17.2935 113.081 18.6288 113.685 19.8523C113.9 20.3039 114.235 20.6893 114.654 20.9678C115.073 21.2463 115.56 21.4075 116.064 21.4344C116.568 21.4613 117.07 21.3528 117.517 21.1204C117.963 20.888 118.338 20.5404 118.602 20.1144C118.875 19.7002 119.092 19.2523 119.247 18.7822C119.746 17.0508 119.931 15.2456 119.793 13.4503V13.4513Z" fill="#7E97B2"/>
<path d="M58.8988 44.4267C45.8943 44.2615 32.9418 39.5379 21.869 29.888C21.8562 29.8745 21.8422 29.8623 21.8271 29.8514C21.3114 29.3964 21.1675 28.9741 21.4043 28.625C21.6412 28.2758 22.0959 28.2709 22.7085 28.5884C24.6072 29.5774 26.488 30.6238 28.4287 31.5248C35.2217 34.6552 42.4369 36.7956 49.8497 37.8793C54.6173 38.609 59.4444 38.8859 64.2652 38.7062C73.468 38.3424 82.5314 36.3569 91.0297 32.8432C91.2495 32.7446 91.478 32.6662 91.7122 32.6088C91.9757 32.548 92.2519 32.5712 92.5012 32.6751C92.7505 32.779 92.9602 32.9583 93.1003 33.1874C93.2285 33.4267 93.2629 33.7044 93.1969 33.9673C93.1309 34.2301 92.9691 34.4596 92.7426 34.6116C92.009 35.1674 91.2435 35.6995 90.4681 36.1871C85.0107 39.5403 78.9873 41.8922 72.6867 43.1301C68.1537 44.068 63.5291 44.5028 58.8988 44.4267Z" fill="#7E97B2"/>
<path d="M95.0001 5.76446H87.525C86.4897 5.76446 86.2759 5.55281 86.2759 4.55587C86.2759 3.60046 86.2759 2.64408 86.2759 1.68769C86.2759 1.00328 86.5637 0.70854 87.2512 0.70854C92.2046 0.703924 97.1584 0.703924 102.112 0.70854C102.823 0.70854 103.129 0.998326 103.148 1.71043C103.205 2.55375 103.198 3.40018 103.125 4.24234C103.032 4.8169 102.81 5.36348 102.475 5.84161C100.676 8.44672 98.8306 11.0241 97.0018 13.6114C96.0914 14.8972 95.182 16.1888 94.2256 17.5349C95.131 17.5854 95.9525 17.6081 96.77 17.6773C98.8086 17.8289 100.795 18.387 102.61 19.3181C102.914 19.4574 103.17 19.6826 103.345 19.9654C103.52 20.2483 103.607 20.576 103.594 20.9075C103.603 21.9954 103.613 23.0765 103.594 24.1604C103.58 25.0377 103.024 25.3413 102.211 24.9645C99.8094 23.7667 97.1556 23.147 94.4659 23.1558C91.7762 23.1646 89.1266 23.8016 86.7326 25.015C86.008 25.3641 85.4284 24.9556 85.4184 24.4037C85.3954 22.9706 85.3675 21.5355 85.4744 20.1074C85.5522 19.4906 85.7851 18.9029 86.1519 18.3983C88.9751 14.3275 91.8342 10.2883 94.6853 6.23326C94.7773 6.09974 94.8662 5.96623 95.0001 5.76446Z" fill="#7E97B2"/>
</svg>
