<svg width="184" height="45" viewBox="0 0 184 45" fill="none" xmlns="http://www.w3.org/2000/svg">
<path fill-rule="evenodd" clip-rule="evenodd" d="M181.462 31.1245C180.895 30.7248 180.446 30.6677 180.075 31.4291C173.704 44.848 162.974 38.1481 164.049 38.7381C166.434 37.6722 172.688 32.7995 171.749 26.0424C171.183 21.912 167.547 20.0848 163.678 20.7509C156.936 21.893 154.473 28.9737 155.724 35.2359C155.939 36.3208 156.33 37.1964 156.74 38.072C149.138 44.1057 146.109 32.6853 145.757 31.3149C145.738 31.2387 151.64 26.4612 153.281 15.0598C155.001 3.12541 151.092 0.936498 147.086 1.01263C139.68 1.14587 137.686 16.2018 140.363 28.7453C140.148 28.8023 139.093 29.3734 137.412 29.4305C136.201 25.7188 131.022 22.464 129.673 23.7203C126.292 26.8609 130.494 32.9898 133.465 33.4657C131.686 44.1438 120.547 41.4981 122.618 28.1171C126.234 21.5694 129.009 11.8049 128.501 5.9234C128.325 3.84871 126.742 1.0507 123.165 1.18394C116.286 1.45042 115.544 16.5063 116.345 27.2035C116.306 26.937 115.915 28.4978 113.101 29.2782C112.436 25.6808 106.476 22.0453 105.069 23.7964C102.45 27.0513 107.004 32.8566 109.153 33.2563C107.375 43.9345 96.2354 41.2887 98.3068 27.9078C101.942 21.3601 104.698 11.6146 104.209 5.7331C104.033 3.65837 102.45 0.860362 98.8734 0.9936C91.9943 1.26008 91.2517 16.316 92.0533 27.0132C92.014 26.7467 91.623 28.3646 88.6915 29.1259C88.5941 24.4436 82.614 22.3117 81.1677 23.7964C78.6075 26.4612 81.7539 31.9239 84.6658 33.2563C82.8875 43.9345 71.7481 41.2887 73.8195 27.9078C77.4351 21.3601 80.2102 11.5956 79.7022 5.71404C79.5458 3.65837 77.9628 0.860362 74.3861 0.9936C67.507 1.26008 66.9601 17.0774 67.7612 27.7745C65.4941 37.2344 57.8921 49.0357 58.8885 25.3762C58.9864 23.7203 59.0842 23.0921 58.2438 22.464C57.599 21.9882 56.1527 22.2166 55.3708 22.2356C54.4133 22.2737 54.1595 22.8257 53.9638 23.6441C53.4754 25.7759 53.3776 27.8507 53.2994 30.6867C53.2605 32.0191 53.143 32.6282 52.6153 34.4365C52.0876 36.2447 49.1172 39.5376 47.4757 38.9856C45.2086 38.2242 45.9512 32.0001 46.381 27.7174C46.7331 24.3294 45.5995 22.8257 42.7071 22.2737C41.0069 21.9311 39.9711 21.9882 38.2123 21.4362C36.5315 20.9223 36.1602 17.8388 32.6034 18.8666C30.6491 19.4376 31.8999 23.4538 31.4308 26.4421C29.1248 41.1174 24.3368 41.5171 22.1088 34.3984C32.1148 10.4916 24.9817 1.06974 20.819 1.06974C16.4805 1.06974 11.5166 3.98195 13.6076 22.6353C12.5914 22.3498 12.2787 22.1975 11.1452 22.1975C4.83285 22.1785 0.513855 27.1654 0.513855 33.3134C0.513855 39.4614 4.83285 44.4484 11.1648 44.4484C14.8975 44.4484 17.5162 42.7924 19.5096 40.2418C20.7995 42.0501 22.3825 44.4864 25.2748 44.3722C33.8737 44.0486 36.3752 26.8609 36.6684 25.8902C37.5869 26.0234 38.4663 26.2899 39.3067 26.4231C40.7138 26.6325 40.831 27.1845 40.7919 28.5549C40.4206 40.2418 42.629 44.3342 47.6517 44.3342C50.4461 44.3342 52.9477 41.6504 54.6675 39.747C55.9574 42.3356 57.9895 44.258 60.7454 44.3342C67.3899 44.4864 69.9501 34.17 69.7156 35.5214C69.5395 36.5873 71.8652 44.258 78.725 44.2961C87.2063 44.3342 88.7894 35.2549 88.9654 33.7322C89.0043 33.4657 88.9851 33.4276 88.9654 33.7322C88.9654 33.7512 88.9654 33.7893 88.9654 33.8273C91.6624 33.3325 93.0497 31.943 93.0497 31.943C93.0497 31.943 95.219 44.4484 103.212 44.3152C111.518 44.1628 113.101 35.9592 113.296 34.3603C113.335 34.0177 113.316 33.9796 113.296 34.3603C113.296 34.3794 113.296 34.3984 113.296 34.3984C116.501 33.2563 117.342 32.1333 117.342 32.1333C117.342 32.1333 119.062 44.3913 127.504 44.5055C135.028 44.6008 137.823 37.0822 137.842 33.9416C139.113 33.9606 141.458 33.1992 141.399 33.1612C141.399 33.1612 144.155 43.8774 151.855 44.4293C155.47 44.6957 158.186 42.4498 159.731 41.4219C163.365 44.2961 175.463 47.9508 183.104 35.331C184.198 33.5419 181.873 31.391 181.462 31.1245ZM10.8521 40.2799C7.15848 40.2799 4.79377 36.949 4.79377 33.3705C4.79377 29.7921 6.96305 26.4612 10.6567 26.4612C12.3178 26.4612 13.2363 26.6325 14.5457 27.7365C14.7802 28.6311 15.4447 30.7058 15.7769 31.6575C16.2068 32.9137 16.7345 33.9987 17.2426 35.1598C16.4805 38.1671 14.0571 40.2799 10.8521 40.2799ZM19.8419 27.8316C19.6855 27.5842 19.7246 27.7365 19.5487 27.5081C18.8843 25.7188 17.5749 21.7217 17.4185 17.1726C17.2426 12.0334 18.1221 5.99956 20.7213 5.99956C22.4802 5.99956 24.3563 18.2194 19.8419 27.8316ZM71.8455 22.4831C71.4353 19.4376 71.4157 5.82827 74.7578 6.20892C76.6143 6.93222 73.5849 19.7612 71.8455 22.4831ZM96.3328 22.4831C95.9227 19.4376 95.903 5.82827 99.2451 6.20892C101.102 6.93222 98.0723 19.7612 96.3328 22.4831ZM120.625 22.6734C120.214 19.6279 120.195 6.01857 123.537 6.39926C125.393 7.10355 122.364 19.9515 120.625 22.6734ZM147.438 5.39049C150.506 5.08592 150.369 18.1243 144.233 26.347C143.431 23.3776 142.22 6.41833 147.438 5.39049ZM160.336 33.4657C159.359 28.612 161.9 25.4333 164.519 25.0907C165.437 24.9575 166.766 25.5285 167.02 26.6135C167.45 28.6501 166.961 31.6765 161.079 35.5024C161.099 35.5214 160.551 34.5316 160.336 33.4657ZM56.3873 18.5049C58.4783 18.5049 60.1784 16.849 60.1784 14.8123C60.1784 12.7757 58.4783 11.1197 56.3873 11.1197C54.2962 11.1197 52.5956 12.7757 52.5956 14.8123C52.5956 16.849 54.2962 18.5049 56.3873 18.5049Z" fill="#7E97B2"/>
</svg>
