<svg width="139" height="45" viewBox="0 0 139 45" fill="none" xmlns="http://www.w3.org/2000/svg">
<path d="M106.074 27.3962C106.784 26.8957 107.539 26.4497 108.198 25.8879C112.353 22.3449 116.131 18.3903 119.472 14.0858C119.682 13.7383 119.995 13.464 120.37 13.3014C120.744 13.1388 121.16 13.096 121.56 13.1789C121.411 13.4093 121.28 13.6289 121.131 13.8336C118.492 17.4003 115.556 20.7418 112.352 23.8228C110.032 26.086 107.529 28.1577 104.868 30.0171C104.692 30.1323 104.548 30.2882 104.446 30.4711C103.278 32.7817 102.427 35.2364 101.915 37.7701C101.84 38.2627 101.87 38.7652 102.002 39.2458C102.027 39.371 102.084 39.4879 102.167 39.5858C102.25 39.6837 102.356 39.7593 102.476 39.8059C102.597 39.8525 102.727 39.8684 102.855 39.8523C102.983 39.8362 103.105 39.7885 103.209 39.7136C103.638 39.4842 104.02 39.1781 104.336 38.8106C105.336 37.5545 106.335 36.2945 107.224 34.9633C108.902 32.2729 110.754 29.6931 112.77 27.2399C114.159 25.5408 115.83 24.0876 117.712 22.9426C118.444 22.5545 119.235 22.2873 120.054 22.1514C120.46 22.0667 120.882 22.1036 121.267 22.2574C121.652 22.4111 121.982 22.6748 122.215 23.0148C122.375 23.2304 122.552 23.4282 122.793 23.717C123.008 22.5302 123.823 22.4936 124.739 22.544C125.655 22.5944 126.608 22.5549 127.667 22.5549C127.532 22.818 127.445 23.0158 127.339 23.2027C124.903 27.439 122.469 31.6764 120.037 35.9147C119.52 36.8177 119.066 37.7612 118.638 38.7077C118.538 38.9382 118.664 39.2655 118.685 39.5504C118.975 39.553 119.264 39.5041 119.536 39.406C120.911 38.5147 122.102 37.3736 123.046 36.0433C123.716 35.169 124.373 34.2798 124.966 33.3511C125.071 33.1174 125.253 32.9257 125.482 32.8073C125.711 32.689 125.974 32.6509 126.228 32.6994C126.404 32.7139 126.58 32.7139 126.756 32.6994C126.745 32.7983 126.756 32.8616 126.734 32.8972C124.957 35.851 122.799 38.5636 120.315 40.9667C119.26 41.8137 118.148 42.5892 116.987 43.2879C116.936 43.3163 116.882 43.3404 116.827 43.3601C114.784 44.271 113.401 43.3849 113.429 41.1843C113.429 40.9538 113.429 40.7234 113.429 40.3931C113.244 40.5582 113.106 40.6987 112.95 40.8173C111.935 41.5947 110.939 42.3998 109.892 43.1277C109.483 43.3895 109.023 43.5646 108.543 43.642C108.188 43.7217 107.819 43.7207 107.464 43.6391C107.11 43.5575 106.778 43.3974 106.495 43.1709C106.212 42.9443 105.984 42.6572 105.829 42.3311C105.674 42.005 105.596 41.6484 105.601 41.2881C105.554 40.7016 105.594 40.1112 105.594 39.4485C104.946 40.1408 104.4 40.8124 103.75 41.3781C102.998 42.076 102.171 42.6903 101.284 43.2098C99.0948 44.3867 97.0872 43.1989 96.9383 40.7224C96.9144 39.1396 97.1767 37.5654 97.7128 36.0739C98.1015 34.803 98.5272 33.547 98.9599 32.2167C98.1784 32.3028 97.4509 32.3572 96.7344 32.4798C96.5815 32.5045 96.4506 32.7676 96.3486 32.9437C95.0109 35.3216 93.4184 37.5502 91.5988 39.5909C90.4062 40.9221 88.9978 42.0472 87.4315 42.92C86.9049 43.2101 86.3426 43.4315 85.7586 43.5787C85.3477 43.7141 84.91 43.7503 84.4822 43.6842C84.0543 43.6181 83.6486 43.4516 83.299 43.1986C82.9494 42.9456 82.666 42.6136 82.4726 42.2301C82.2791 41.8467 82.1812 41.4229 82.1869 40.9944C82.0673 39.5081 82.2795 38.014 82.8085 36.6179C84.5053 31.8648 87.4574 27.6482 91.3579 24.4064C92.5314 23.3788 93.9294 22.6341 95.4423 22.2305C97.1222 21.8092 98.4403 22.3383 98.868 23.6774C99.0555 24.3434 99.1292 25.0357 99.0859 25.7257C98.9408 27.264 98.4998 28.7605 97.7867 30.1348L97.387 31.025C97.9033 31.1525 98.4482 31.1019 98.9316 30.8814C99.415 30.661 99.8078 30.2838 100.045 29.8124C103.147 23.3003 107.056 17.1958 111.683 11.64C114.115 8.74337 116.849 6.10855 119.839 3.77914C121.111 2.65547 122.656 1.87898 124.323 1.52613C125.756 1.31349 126.411 1.88218 126.44 3.30639C126.431 4.607 126.018 5.87346 125.258 6.93415C125.018 7.29416 124.33 7.35844 123.847 7.5602C123.807 7.50976 123.771 7.4613 123.731 7.40888C123.978 6.90546 124.258 6.41194 124.458 5.88973C124.736 5.21738 124.956 4.52246 125.113 3.81276C125.229 3.18275 124.902 2.96021 124.327 3.28363C123.565 3.70809 122.847 4.20495 122.182 4.76717C119.488 7.11836 117.078 9.76937 114.999 12.6676C111.767 17.0881 108.87 21.7401 106.333 26.5852C106.209 26.8226 106.122 27.0797 106.02 27.327C106.02 27.3705 106.009 27.413 106.005 27.4605C106.03 27.4409 106.053 27.4194 106.074 27.3962ZM110.918 38.6711C110.889 38.8316 110.91 38.9972 110.981 39.1447C111.051 39.2923 111.166 39.4145 111.31 39.4941C111.453 39.5738 111.619 39.607 111.783 39.589C111.946 39.5711 112.101 39.503 112.223 39.3941C112.937 38.9319 113.573 38.3611 114.107 37.7029C117.114 33.8664 119.204 29.4682 121.748 25.3469C121.826 25.2454 121.87 25.123 121.875 24.9958C121.881 24.8687 121.847 24.743 121.778 24.6355C121.709 24.528 121.609 24.4438 121.491 24.3942C121.372 24.3446 121.241 24.3319 121.115 24.3579C120.642 24.4393 120.193 24.6223 119.799 24.8939C119.324 25.2297 118.883 25.6106 118.483 26.0313C115.796 28.7997 113.567 31.9707 111.878 35.4271C111.321 36.4252 110.994 37.5337 110.922 38.6721L110.918 38.6711ZM91.6687 28.9282C89.8837 31.168 88.4919 33.6889 87.5514 36.3855C87.3653 37.0307 87.2976 37.7036 87.3515 38.3725C87.3485 38.5738 87.3986 38.7724 87.4969 38.9486C87.5952 39.1249 87.7383 39.2727 87.912 39.3774C88.0858 39.4821 88.2841 39.5401 88.4875 39.5456C88.6908 39.5511 88.8921 39.504 89.0714 39.409C89.6133 39.1972 90.115 38.8962 90.5554 38.5188C92.5018 36.7597 94.0765 34.6362 95.1884 32.2711C95.2034 32.2424 95.1884 32.1989 95.1734 32.1168C93.6597 31.502 92.4183 30.3712 91.6737 28.9292L91.6687 28.9282ZM93.1887 27.5713C93.2116 28.2604 93.4385 28.9277 93.8413 29.4904C94.244 30.053 94.8049 30.4862 95.4542 30.7361C95.825 30.8944 96.0648 30.8835 96.2257 30.4731C96.6585 29.3851 97.1861 28.3209 97.5249 27.2013C97.6979 26.5131 97.7386 25.7988 97.6448 25.0957C97.5538 24.2056 96.9972 23.8792 96.1178 24.0523C95.3329 24.2863 94.6359 24.7458 94.1153 25.3725C93.5947 25.9992 93.2739 26.7648 93.1937 27.5722L93.1887 27.5713Z" fill="#7E97B2"/>
<path d="M59.3609 12.8335C59.5538 12.0235 60.1104 11.977 60.76 12.0018C61.8073 12.0413 62.8586 12.0126 64.0298 12.0126C63.8839 12.2965 63.783 12.5071 63.6621 12.7148C60.8506 17.5598 58.0398 22.4037 55.2296 27.2467C55.0407 27.5594 54.9101 27.9031 54.8439 28.2614C54.7679 28.7619 55.1057 29.0141 55.5604 28.7905C56.0624 28.5797 56.5219 28.2809 56.9165 27.9083C58.3426 26.3822 59.7896 24.8631 61.0698 23.2223C61.2974 22.9184 61.6133 22.6905 61.9752 22.5689C62.3371 22.4473 62.7279 22.4379 63.0954 22.5418C62.6118 23.2183 62.186 23.8276 61.7463 24.4319C60.0672 26.8746 58.0827 29.0974 55.8402 31.0475C55.0915 31.6615 54.2908 32.2105 53.4468 32.6883C52.9499 32.951 52.402 33.1058 51.8398 33.1423C51.5818 33.1658 51.3216 33.1358 51.0758 33.0543C50.8301 32.9727 50.6043 32.8414 50.4127 32.6687C50.2211 32.496 50.0679 32.2857 49.963 32.0512C49.858 31.8167 49.8036 31.5631 49.8032 31.3066C49.7812 30.9031 49.8032 30.5006 49.8032 29.9675C49.6173 30.1475 49.5034 30.284 49.3635 30.3918C48.3641 31.1583 47.3847 31.9426 46.3594 32.6665C46.0081 32.8739 45.6207 33.0144 45.2172 33.0809C44.8358 33.2127 44.4271 33.248 44.0285 33.1835C43.6298 33.1191 43.2538 32.9569 42.9346 32.7118C42.6154 32.4667 42.3633 32.1465 42.2012 31.7803C42.039 31.4142 41.972 31.0137 42.0063 30.6153C42.0609 29.8499 42.1728 29.0895 42.3411 28.3405C42.37 28.1605 42.417 27.9875 42.49 27.671C41.5266 28.567 40.6911 29.3731 39.8207 30.1435C38.4768 31.4713 36.8211 32.4483 35.0019 32.987C34.0647 33.2803 33.0589 33.2803 32.1218 32.987C31.431 32.7117 30.833 32.2487 30.3968 31.6514C29.9605 31.0541 29.7039 30.3469 29.6564 29.6114C29.4103 28.0386 29.642 26.429 30.3219 24.9867C30.9115 23.6258 31.5661 22.2946 32.2347 20.8625C31.3003 21.2047 30.282 21.0425 29.6674 22.1729C28.2405 24.9693 26.3456 27.5064 24.063 29.6767C22.962 30.6525 21.7933 31.5508 20.5653 32.3649C19.9863 32.7194 19.3465 32.9658 18.6776 33.0918C18.324 33.1912 17.9538 33.2189 17.5891 33.1731C17.2245 33.1274 16.873 33.0092 16.5556 32.8257C16.2383 32.6421 15.9617 32.397 15.7425 32.105C15.5232 31.8131 15.3659 31.4803 15.2798 31.1266C14.9231 29.7554 14.9459 28.3144 15.3458 26.9549C16.2027 23.7378 17.7731 20.7501 19.9427 18.2089C21.4754 16.23 23.3138 14.5027 25.3902 13.0907C26.4263 12.3658 27.6002 11.8564 28.8409 11.5933C29.2661 11.4696 29.7151 11.4491 30.15 11.5334C30.5849 11.6176 30.9929 11.8043 31.3396 12.0775C31.6863 12.3508 31.9614 12.7026 32.1417 13.1032C32.322 13.5039 32.4022 13.9416 32.3756 14.3794C32.3748 15.8085 32.0778 17.2222 31.5032 18.5333C31.3683 18.8893 31.2194 19.2385 31.0035 19.7676C31.4333 19.6498 31.8549 19.5045 32.2657 19.3324C33.8737 18.4221 35.3411 17.2876 36.6228 15.9638C37.877 14.7831 39.1968 13.6726 40.5762 12.6377C41.543 11.8995 42.7341 11.5076 43.955 11.526C44.4015 11.4912 44.85 11.5612 45.264 11.7303C45.6781 11.8995 46.0459 12.163 46.3376 12.4994C46.6293 12.8358 46.8366 13.2355 46.9426 13.6662C47.0487 14.0969 47.0506 14.5462 46.948 14.9777C46.7197 16.4397 46.0117 17.7868 44.9334 18.8112C44.2208 19.4946 43.4973 19.646 42.9477 19.2751C42.6572 19.0246 42.4699 18.6771 42.4216 18.2989C42.3733 17.9206 42.4674 17.5379 42.6858 17.2238C42.8728 16.6804 43.2142 16.2019 43.669 15.8456C44.1238 15.4893 44.6728 15.2704 45.2502 15.2151C45.3261 15.1935 45.3959 15.155 45.4545 15.1025C45.513 15.0501 45.5587 14.9851 45.5879 14.9125C45.6585 14.7507 45.6809 14.5724 45.6526 14.3984C45.6242 14.2245 45.5462 14.0622 45.4278 13.9306C45.3093 13.7991 45.1554 13.7037 44.984 13.6559C44.8127 13.608 44.6311 13.6095 44.4607 13.6604C43.7849 13.8248 43.1516 14.1281 42.6019 14.5505C39.3675 17.2783 36.8882 20.7763 35.3976 24.7147C35.0411 25.7056 34.7736 26.7256 34.5981 27.7629C34.5636 28.1282 34.6199 28.4962 34.762 28.835C34.8782 29.25 35.1531 29.6039 35.5285 29.8216C35.9038 30.0393 36.3501 30.1037 36.7727 30.0011C37.8973 29.734 38.9278 29.1704 39.7548 28.3702C41.9926 26.3273 43.9796 24.0308 45.6749 21.5281C47.5159 18.7506 49.7045 16.2147 52.1886 13.9808C53.0284 13.2626 53.9413 12.6328 54.9128 12.1016C56.7606 11.1136 57.8279 11.3233 59.3609 12.8335ZM47.3018 27.8401C47.2728 28.8944 47.9524 29.3444 48.589 28.8914C49.3676 28.3507 50.0814 27.7239 50.7166 27.0231C51.371 26.2573 51.9505 25.4317 52.4474 24.5575C54.4041 21.268 56.3239 17.9636 58.2436 14.6523C58.3496 14.4684 58.4185 14.1123 58.3196 13.9976C58.1255 13.7953 57.8597 13.6754 57.5781 13.6633C57.2658 13.6749 56.9637 13.7763 56.7086 13.9551C56.1326 14.343 55.597 14.7866 55.1097 15.2794C54.3862 16.0568 53.7316 16.9024 53.073 17.7411C50.9447 20.2577 49.1944 23.0652 47.8764 26.0766C47.6106 26.7304 47.4347 27.4217 47.3018 27.8401ZM24.6886 18.2623C23.2982 20.095 22.1266 22.0807 21.1969 24.1797C20.8326 25.1089 20.554 26.0689 20.3645 27.0479C20.2814 27.3613 20.2994 27.6925 20.4161 27.9953C20.5327 28.298 20.7422 28.5571 21.015 28.7361C21.2847 28.8773 21.5912 28.9346 21.8943 28.9006C22.1974 28.8665 22.4831 28.7427 22.7139 28.5453C23.265 28.1848 23.7844 27.7792 24.2669 27.3327C25.9602 25.5752 27.3972 23.5921 28.5361 21.441C28.5707 21.36 28.5962 21.2754 28.6121 21.1889C26.9826 20.7261 25.5846 19.6815 24.6886 18.2574V18.2623ZM30.8306 15.3862C30.8306 15.2319 30.8416 15.0766 30.8306 14.9253C30.8514 14.6962 30.8108 14.4656 30.7129 14.257C30.615 14.0483 30.4632 13.8689 30.2729 13.7368C30.0826 13.6047 29.8604 13.5246 29.6288 13.5046C29.3972 13.4846 29.1644 13.5253 28.9538 13.6228C28.2201 13.9045 27.58 14.3825 27.1048 15.0033C26.6296 15.6242 26.338 16.3635 26.2626 17.1388C26.2476 18.5234 27.9505 19.7162 29.2776 19.7518C29.3318 19.7482 29.3844 19.732 29.4311 19.7045C29.4778 19.677 29.5174 19.639 29.5464 19.5935C30.2702 18.2939 30.7079 16.8573 30.8306 15.3783V15.3862Z" fill="#7E97B2"/>
<path d="M94.5458 3.13559C93.5207 2.80941 92.4066 2.89868 91.4478 3.38384C89.3145 4.38696 87.3305 5.67552 85.5517 7.21336C81.9692 10.3503 78.7988 13.9199 76.1149 17.8385C73.1509 21.7467 70.8806 26.1257 69.4013 30.7879C68.8223 32.5293 68.5228 34.3498 68.5139 36.183C68.5384 36.7983 68.6573 37.4062 68.8666 37.986C69.0012 38.4434 69.2324 38.8671 69.5449 39.2294C69.8574 39.5916 70.2441 39.884 70.6794 40.0872C71.1147 40.2904 71.5886 40.3997 72.0698 40.408C72.551 40.4163 73.0285 40.3233 73.4706 40.1352C74.5239 39.7326 75.503 39.1612 76.3687 38.444C79.7325 35.7278 82.1193 32.0085 83.1733 27.8406C83.3412 27.069 83.4024 26.2785 83.3552 25.4906C83.3192 24.5155 82.7156 24.1337 81.7562 24.375C81.0047 24.6066 80.3507 25.0756 79.8944 25.7102C78.6495 27.2032 77.7897 28.9733 77.3891 30.868C77.3394 31.0805 77.2073 31.2652 77.0213 31.3823C75.1291 32.3484 73.4229 33.6359 71.9806 35.1861C71.9296 35.2405 71.8717 35.285 71.7258 35.4126C71.874 33.8784 72.2061 32.3671 72.7151 30.9105C73.5546 28.1393 75.228 25.6872 77.512 23.8815C78.7103 22.9424 80.145 22.345 81.6613 22.1537C82.2451 22.0606 82.8433 22.1765 83.3484 22.4807C83.8536 22.7849 84.2326 23.2573 84.4175 23.8132C84.8891 25.2164 84.9055 26.7304 84.4644 28.1432C83.2523 32.6026 80.7719 36.6237 77.3181 39.7287C75.8198 41.2295 74.023 42.4062 72.0416 43.1844C70.8413 43.665 69.5348 43.8263 68.2521 43.6522C65.328 43.1775 63.768 41.2627 63.0295 38.5992C62.4286 36.0876 62.5624 33.4585 63.4152 31.0193C65.228 25.4259 68.0714 20.2129 71.8017 15.6439C75.0102 11.3505 78.9341 7.62933 83.4051 4.6399C85.6973 3.09851 88.2454 1.96798 90.9332 1.29995C91.6102 1.06905 92.3295 0.984884 93.0423 1.05314C93.7551 1.1214 94.4447 1.34049 95.0645 1.69557C95.4022 1.94426 95.8042 2.09316 96.2239 2.12502C96.6436 2.15688 97.0638 2.07038 97.4359 1.87556C99.026 1.27227 100.73 1.02057 102.429 1.13812C104.128 1.25567 105.78 1.73962 107.269 2.55602C109.819 3.87736 112.284 5.36684 114.783 6.78511C114.87 6.84167 114.953 6.90309 115.033 6.96908L111.783 10.4059C111.283 10.1221 110.749 9.84418 110.248 9.52769C108.291 8.3003 106.35 7.04028 104.385 5.82773C102.795 4.81062 101.024 4.10115 99.1668 3.73692C98.5321 3.6594 97.891 3.64845 97.254 3.70428C96.9482 3.71516 96.8033 3.88824 96.8173 4.24429C96.8425 7.11547 96.0019 9.92883 94.4029 12.3247C93.4071 14.1255 92.0567 15.7104 90.4315 16.986C89.7583 17.4762 89.0266 17.8825 88.253 18.1956C86.1184 19.0629 84.7322 17.792 84.8552 15.6112C84.9305 14.826 85.1329 14.058 85.4548 13.3364C87.1572 9.32131 90.0757 5.92739 93.8083 3.6222C94.0112 3.4778 94.222 3.34427 94.5458 3.13559ZM95.5532 4.26901C95.2004 4.44506 95.0255 4.52419 94.8626 4.61815C91.1933 6.79007 88.3038 10.0451 86.6 13.9259C86.3507 14.4894 86.2043 15.0921 86.1673 15.7062C86.0874 16.8287 86.9278 17.3766 87.9751 16.9078C88.4879 16.6753 88.9693 16.3802 89.4082 16.0296C92.4717 13.6806 94.5608 10.3034 95.2813 6.53488C95.4182 5.83465 95.4512 5.11463 95.5532 4.26901Z" fill="#7E97B2"/>
<path d="M58.8372 44.3738C56.74 42.9872 54.3573 42.0797 51.8618 41.7172C50.397 41.5308 48.9152 41.5152 47.4467 41.6707C46.61 41.788 45.8111 42.0916 45.11 42.5586C44.409 43.0256 43.8241 43.6438 43.3993 44.3668C43.3414 44.3273 43.2794 44.3055 43.2534 44.262C42.546 43.1006 41.5808 42.1137 40.431 41.376C39.2812 40.6384 37.9769 40.1693 36.6168 40.0042C33.2104 39.5328 29.7429 39.7495 26.4235 40.6412C22.6519 41.5046 18.8954 42.4412 15.1169 43.2829C12.8225 43.8803 10.4124 43.8915 8.11248 43.3155C6.23534 42.8814 4.5414 41.8795 3.26594 40.449C1.99047 39.0185 1.1968 37.2304 0.995149 35.333C0.518949 31.6412 1.02783 27.8904 2.47118 24.4537C4.85651 18.3081 8.68235 12.8109 13.6339 8.41459C16.3886 5.75541 19.6116 3.61723 23.1436 2.10557C24.7374 1.41925 26.4498 1.04284 28.1873 0.996866C28.7167 0.960954 29.2473 1.04856 29.7363 1.25264C30.2252 1.45671 30.659 1.77153 31.0025 2.17179C31.3461 2.57205 31.5899 3.04655 31.7144 3.55709C31.8388 4.06764 31.8404 4.59997 31.719 5.11124C31.4791 6.50925 30.832 7.80753 29.8572 8.8468C29.4435 9.24705 28.9307 9.53255 28.3702 9.67462C27.5517 9.90506 27.0281 9.47681 26.9012 8.63416C26.8802 7.86166 27.1172 7.10388 27.5753 6.47811C28.0335 5.85234 28.6873 5.39347 29.4355 5.17255C29.6973 5.12607 30.135 5.03904 30.166 4.8986C30.2823 4.51819 30.2604 4.10949 30.1041 3.7434C29.994 3.57132 29.8478 3.42475 29.6753 3.31364C29.5029 3.20253 29.3083 3.12951 29.1047 3.09955C28.4288 3.07351 27.7537 3.16866 27.112 3.38043C24.9109 4.18788 22.9131 5.45871 21.2569 7.10511C15.8329 12.0466 11.5455 18.0842 8.68511 24.8088C7.39089 27.6056 6.72696 30.6477 6.73938 33.7239C6.77584 34.609 6.90988 35.4875 7.13911 36.3438C7.88463 39.122 10.0372 40.3672 12.6305 41.0447C14.5965 41.5032 16.6456 41.4822 18.6016 40.9834C23.2126 39.9538 27.8066 38.8421 32.4066 37.7552C35.3396 37.0421 38.3331 36.5998 41.3487 36.4338C46.589 36.1134 51.744 37.8618 55.6843 41.2959C56.8046 42.2424 57.8479 43.2789 58.9282 44.2758C58.896 44.3067 58.8656 44.3394 58.8372 44.3738Z" fill="#7E97B2"/>
<path d="M116.258 12.165C117.291 10.9416 118.247 9.80024 119.218 8.67769C119.279 8.6217 119.352 8.57877 119.43 8.55155C119.509 8.52434 119.593 8.51341 119.676 8.51944C124.942 8.87549 129.226 6.62643 133.175 3.51692C133.975 2.88394 134.721 2.1669 135.536 1.44788C135.535 1.54409 135.52 1.63967 135.492 1.73172C132.434 6.93599 128.153 10.6182 122.171 12.1472C120.235 12.661 118.197 12.6671 116.258 12.165Z" fill="#7E97B2"/>
<path d="M71.1691 12.0136C70.4016 13.2994 69.7141 14.4575 69.0085 15.6088C68.9698 15.6699 68.9183 15.7221 68.8574 15.7619C68.7966 15.8016 68.7278 15.828 68.6558 15.8392C67.4156 15.857 66.1724 15.8501 64.8223 15.8501C65.5828 14.5792 66.2843 13.3924 67.0039 12.2115C67.0404 12.159 67.0879 12.1149 67.143 12.0819C67.1981 12.049 67.2597 12.0281 67.3237 12.0206C68.5619 12.0097 69.802 12.0136 71.1691 12.0136Z" fill="#7E97B2"/>
<path d="M129.608 38.6335H130.957C131.215 39.7779 131.47 40.9152 131.727 42.0566L131.843 42.0783C132.101 40.937 132.36 39.7966 132.622 38.6444H133.989V43.4204H133.124V39.9588C133.088 39.9588 133.048 39.948 133.011 39.944C132.756 41.0992 132.505 42.2514 132.254 43.3918C131.327 43.5362 131.327 43.5362 131.145 42.6935C130.985 41.8406 130.76 41.0008 130.472 40.1814V43.4313H129.611C129.608 41.837 129.608 40.2635 129.608 38.6335Z" fill="#7E97B2"/>
<path d="M138.095 41.1279C138.801 41.8202 138.532 42.6213 138.514 43.4205H137.572C137.572 43.0357 137.561 42.6579 137.572 42.2791C137.594 41.7609 137.339 41.5373 136.83 41.5482C136.539 41.5551 136.248 41.5482 135.896 41.5482V43.4017H134.953V38.6217C135.808 38.6217 136.644 38.6039 137.478 38.6286C137.754 38.6423 138.017 38.749 138.223 38.9311C138.429 39.1132 138.567 39.3596 138.612 39.6295C138.703 39.9008 138.702 40.1943 138.609 40.465C138.516 40.7356 138.335 40.9685 138.095 41.1279ZM135.903 40.7214C136.313 40.7214 136.677 40.7214 137.041 40.7214C137.456 40.7214 137.707 40.5592 137.707 40.1131C137.718 40.0265 137.71 39.9384 137.683 39.8552C137.656 39.772 137.611 39.6957 137.551 39.6317C137.491 39.5677 137.417 39.5177 137.335 39.4852C137.253 39.4527 137.165 39.4384 137.077 39.4436C136.695 39.4258 136.313 39.4436 135.903 39.4436C135.903 39.8797 135.903 40.2526 135.903 40.7214Z" fill="#7E97B2"/>
</svg>
