<svg width="522" height="565" viewBox="0 0 522 565" fill="none" xmlns="http://www.w3.org/2000/svg">
<path fill-rule="evenodd" clip-rule="evenodd" d="M152.178 498.588C165.217 461.247 146.209 431.68 138.088 421.589L136.593 422.792C144.566 432.697 163.077 461.557 150.366 497.955L152.178 498.588Z" fill="white"/>
<path d="M73.1875 442.019C73.1875 444.443 75.1524 446.408 77.5765 446.408C80.0007 446.408 81.9662 444.443 81.9662 442.019C81.9662 439.595 80.0007 437.629 77.5765 437.629C75.1524 437.629 73.1875 439.595 73.1875 442.019Z" fill="#FE845F"/>
<path d="M-0.000971794 372.61C-0.000971794 373.698 0.88107 374.58 1.96906 374.58C3.05704 374.58 3.93909 373.698 3.93909 372.61C3.93909 371.522 3.05704 370.64 1.96906 370.64C0.88107 370.64 -0.000971794 371.522 -0.000971794 372.61Z" fill="#FED36A"/>
<path d="M14.1861 319.805C14.1861 320.892 15.0681 321.775 16.1568 321.775C17.2448 321.775 18.1268 320.892 18.1268 319.805C18.1268 318.717 17.2448 317.834 16.1568 317.834C15.0681 317.834 14.1861 318.717 14.1861 319.805Z" fill="#FED36A"/>
<path d="M33.1031 379.703C33.1031 380.791 33.9858 381.673 35.0738 381.673C36.1618 381.673 37.0438 380.791 37.0438 379.703C37.0438 378.615 36.1618 377.733 35.0738 377.733C33.9858 377.733 33.1031 378.615 33.1031 379.703Z" fill="#FE845F"/>
<path d="M14.1861 403.346C14.1861 404.435 15.0681 405.317 16.1568 405.317C17.2448 405.317 18.1268 404.435 18.1268 403.346C18.1268 402.258 17.2448 401.376 16.1568 401.376C15.0681 401.376 14.1861 402.258 14.1861 403.346Z" fill="#FED36A"/>
<path d="M60.685 380.491C60.685 381.579 61.5677 382.461 62.6557 382.461C63.7437 382.461 64.6257 381.579 64.6257 380.491C64.6257 379.403 63.7437 378.52 62.6557 378.52C61.5677 378.52 60.685 379.403 60.685 380.491Z" fill="#FED36A"/>
<path d="M23.6411 417.533C23.6411 418.621 24.5237 419.503 25.6117 419.503C26.6997 419.503 27.5817 418.621 27.5817 417.533C27.5817 416.445 26.6997 415.562 25.6117 415.562C24.5237 415.562 23.6411 416.445 23.6411 417.533Z" fill="#FE845F"/>
<path d="M42.558 419.11C42.558 420.198 43.44 421.08 44.528 421.08C45.616 421.08 46.4987 420.198 46.4987 419.11C46.4987 418.022 45.616 417.14 44.528 417.14C43.44 417.14 42.558 418.022 42.558 419.11Z" fill="#FED36A"/>
<path d="M12.61 341.083C12.61 341.736 13.1389 342.265 13.7919 342.265C14.445 342.265 14.974 341.736 14.974 341.083C14.974 340.43 14.445 339.901 13.7919 339.901C13.1389 339.901 12.61 340.43 12.61 341.083Z" fill="#FED36A"/>
<path d="M28.3699 363.152C28.3699 363.805 28.8995 364.334 29.5525 364.334C30.2056 364.334 30.7345 363.805 30.7345 363.152C30.7345 362.499 30.2056 361.969 29.5525 361.969C28.8995 361.969 28.3699 362.499 28.3699 363.152Z" fill="#FED36A"/>
<path d="M50.4397 368.669C50.4397 369.321 50.9693 369.851 51.6223 369.851C52.2747 369.851 52.8044 369.321 52.8044 368.669C52.8044 368.016 52.2747 367.486 51.6223 367.486C50.9693 367.486 50.4397 368.016 50.4397 368.669Z" fill="#FED36A"/>
<path d="M1.57508 411.228C1.57508 411.881 2.10401 412.41 2.75706 412.41C3.41011 412.41 3.93909 411.881 3.93909 411.228C3.93909 410.575 3.41011 410.046 2.75706 410.046C2.10401 410.046 1.57508 410.575 1.57508 411.228Z" fill="#FED36A"/>
<path d="M25.2177 399.405C25.2177 400.058 25.7467 400.588 26.3997 400.588C27.0528 400.588 27.5817 400.058 27.5817 399.405C27.5817 398.753 27.0528 398.223 26.3997 398.223C25.7467 398.223 25.2177 398.753 25.2177 399.405Z" fill="#FE845F"/>
<path d="M44.924 400.195C44.924 400.848 45.4536 401.377 46.1067 401.377C46.7591 401.377 47.2887 400.848 47.2887 400.195C47.2887 399.542 46.7591 399.013 46.1067 399.013C45.4536 399.013 44.924 399.542 44.924 400.195Z" fill="#FED36A"/>
<path d="M76.4494 434.085C76.4494 434.738 76.9784 435.267 77.6314 435.267C78.2845 435.267 78.8134 434.738 78.8134 434.085C78.8134 433.432 78.2845 432.903 77.6314 432.903C76.9784 432.903 76.4494 433.432 76.4494 434.085Z" fill="#FED36A"/>
<path d="M58.3224 438.812C58.3224 439.465 58.8514 439.994 59.5044 439.994C60.1575 439.994 60.6864 439.465 60.6864 438.812C60.6864 438.159 60.1575 437.629 59.5044 437.629C58.8514 437.629 58.3224 438.159 58.3224 438.812Z" fill="#FED36A"/>
<path d="M62.2617 412.015C62.2617 412.668 62.7906 413.198 63.4437 413.198C64.0967 413.198 64.6257 412.668 64.6257 412.015C64.6257 411.362 64.0967 410.833 63.4437 410.833C62.7906 410.833 62.2617 411.362 62.2617 412.015Z" fill="#FED36A"/>
<path d="M23.5358 353.75C23.5358 356.174 25.5007 358.139 27.9248 358.139C30.349 358.139 32.3145 356.174 32.3145 353.75C32.3145 351.326 30.349 349.361 27.9248 349.361C25.5007 349.361 23.5358 351.326 23.5358 353.75Z" fill="#FE845F"/>
<path d="M393.305 533.642V508.324C405.938 502.114 416.481 498.686 419.707 502.511C422.419 505.725 418.827 515.121 420.403 523.396C416.305 530.016 399.873 532.722 393.305 533.642Z" fill="#FBA186"/>
<path d="M420.406 523.397C416.307 530.017 399.875 532.723 393.308 533.643V519.456L420.12 515.121C419.928 517.828 419.887 520.673 420.406 523.397Z" fill="#E2E0FA"/>
<path d="M424.738 385.717C419.379 339.69 400.174 293.769 391.242 276.561C374.297 276.035 337.886 274.984 327.798 274.984C330.162 280.502 376.268 385.717 381.391 400.298C381.785 420.789 390.454 498.026 390.454 509.454C403.379 517.336 416.069 512.738 420.797 509.454C422.111 479.111 424.738 411.883 424.738 385.717Z" fill="#3B3679"/>
<path fill-rule="evenodd" clip-rule="evenodd" d="M339.317 286.706C339.054 285.792 338.908 285.028 338.908 284.441H339.547C339.547 284.938 339.674 285.633 339.932 286.529C340.187 287.42 340.566 288.488 341.056 289.725C342.036 292.198 343.451 295.321 345.193 298.995C346.798 302.382 348.678 306.23 350.745 310.463C350.921 310.823 351.098 311.186 351.276 311.552C353.553 316.215 356.042 321.32 358.628 326.765C368.974 348.54 380.907 375.756 387.22 401.798L387.223 401.809L387.225 401.82C389.961 417.935 392.385 456.382 394.314 486.984C394.887 496.08 395.416 504.484 395.898 511.402L395.26 511.446C394.777 504.511 394.246 496.093 393.673 486.985C391.744 456.394 389.325 418.023 386.596 401.938C380.298 375.966 368.392 348.806 358.051 327.039C355.465 321.598 352.978 316.495 350.702 311.832C350.523 311.466 350.346 311.103 350.17 310.743C348.103 306.511 346.222 302.658 344.615 299.27C342.872 295.593 341.449 292.453 340.461 289.961C339.967 288.714 339.58 287.624 339.317 286.706Z" fill="white"/>
<path d="M137.763 456.864C135.353 451.196 129.409 442.305 126.69 438.501L120.44 442.968L131.631 462.072L134.892 459.741C136.849 458.342 138.313 464.275 140.098 468.748C150.295 494.308 174.186 513.773 175.138 514.324C175.899 514.765 178.172 512.565 179.214 511.411C173.726 509.454 167.871 503.98 162.337 497.196C150.094 482.187 139.422 460.768 137.763 456.864Z" fill="#E2E0FA"/>
<path d="M172.252 485.586C185.584 503.32 182.473 509.078 179.213 511.409C161.581 505.124 140.17 462.531 137.761 456.863C135.352 451.195 129.408 442.304 126.689 438.499C127.735 433.645 148.313 425.096 156.078 421.599C158.801 436.897 167.151 439.962 169.675 440.621C176.478 442.328 176.55 447.751 175.735 450.249C174.559 453.965 171.826 463.391 170.306 471.375C168.406 481.355 170.892 483.684 172.252 485.586Z" fill="#1D1C55"/>
<path d="M172.252 485.587C185.584 503.32 182.473 509.078 179.213 511.409C173.724 509.453 167.87 503.978 162.336 497.194C169.277 494.204 171.839 488.21 172.252 485.587Z" fill="#0B0A3E"/>
<path d="M126.688 438.499C127.735 433.645 148.312 425.095 156.077 421.598C156.233 422.473 156.407 423.307 156.598 424.104C138.013 432.049 143.114 436.204 144.085 437.563C149.151 445.11 141.98 453.574 137.76 456.862C135.351 451.193 129.407 442.303 126.688 438.499Z" fill="#0B0A3E"/>
<path fill-rule="evenodd" clip-rule="evenodd" d="M156.817 459.22L169.934 440.808L169.414 440.437L156.297 458.849L156.817 459.22Z" fill="white"/>
<path fill-rule="evenodd" clip-rule="evenodd" d="M165.519 438.713L153.266 456.914L153.796 457.272L166.049 439.07L165.519 438.713Z" fill="white"/>
<path fill-rule="evenodd" clip-rule="evenodd" d="M161.881 435.569L149.841 454.437L150.38 454.781L162.421 435.913L161.881 435.569Z" fill="white"/>
<path d="M152.761 423.139L177.095 414.988C194.151 434.488 185.981 437.492 169.845 444.264C162.389 442.019 155.349 429.246 152.761 423.139Z" fill="#FBA186"/>
<path d="M169.85 444.266C162.394 442.021 155.355 429.248 152.767 423.141L161.507 420.214L175.693 441.775C173.905 442.572 171.944 443.387 169.85 444.266Z" fill="#E2E0FA"/>
<path d="M183.573 441.673C173.485 434.423 170.7 420 170.569 413.694C175.691 410.674 193.424 400.454 223.373 383.746C253.322 367.037 266.326 322.928 269.085 302.962L283.665 255.674L347.898 273.013C339.36 302.568 320.471 366.092 313.22 383.746C302.974 402.267 196.971 437.339 183.573 441.673Z" fill="#3B3679"/>
<path fill-rule="evenodd" clip-rule="evenodd" d="M293.395 276.389C293.77 272.959 294.074 270.179 294.383 268.234L295.015 268.335C294.71 270.25 294.41 273.002 294.037 276.407C292.734 288.332 290.557 308.265 284.266 328.328C276.179 354.118 261.261 380.244 232.558 389.953C211.944 399.966 195.905 408.058 185.124 413.498C178.608 416.785 174.014 419.103 171.493 420.289L171.22 419.711C173.744 418.522 178.332 416.208 184.839 412.925C195.612 407.489 211.648 399.399 232.297 389.369L232.315 389.36L232.334 389.354C260.757 379.749 275.588 353.864 283.656 328.136C289.924 308.146 292.09 288.326 293.395 276.389Z" fill="white"/>
<path d="M410.987 556.023C404.974 554.686 394.285 554.353 389.609 554.353V562.035L411.658 564.037V560.033C411.658 557.628 417.336 559.886 422.013 561.031C448.736 567.6 478.464 559.483 479.467 559.029C480.268 558.664 479.8 555.536 479.467 554.021C474.684 557.347 466.825 558.926 458.088 559.483C438.758 560.717 415.128 556.944 410.987 556.023Z" fill="#E2E0FA"/>
<path d="M454.41 544.663C476.589 544.132 479.465 550.01 479.466 554.02C464.1 564.708 416.998 557.359 410.986 556.022C404.973 554.686 394.284 554.353 389.607 554.353C386.267 550.675 391.277 528.965 392.948 520.615C406.977 527.295 414.326 522.285 416.331 520.615C421.675 516.071 426.129 519.167 427.688 521.282C430.025 524.4 436.105 532.105 441.717 537.984C448.732 545.334 452.072 544.663 454.41 544.663Z" fill="#1D1C55"/>
<path d="M454.41 544.663C476.589 544.132 479.465 550.01 479.466 554.014C474.682 557.346 466.824 558.926 458.087 559.482C459.691 552.095 456.304 546.524 454.41 544.663Z" fill="#0B0A3E"/>
<path d="M389.609 554.353C386.268 550.675 391.279 528.966 392.949 520.615C393.751 520.997 394.531 521.341 395.29 521.649C390.947 541.388 397.294 539.655 398.964 539.655C408.05 539.924 410.765 550.675 410.987 556.023C404.974 554.686 394.285 554.353 389.609 554.353Z" fill="#0B0A3E"/>
<path fill-rule="evenodd" clip-rule="evenodd" d="M423.984 541.887L416.633 520.51L416.028 520.718L423.379 542.098L423.984 541.887Z" fill="#E2E0FA"/>
<path fill-rule="evenodd" clip-rule="evenodd" d="M412.36 522.888L420.042 543.441L420.642 543.217L412.959 522.664L412.36 522.888Z" fill="#E2E0FA"/>
<path fill-rule="evenodd" clip-rule="evenodd" d="M407.69 524.017L416.038 544.784L416.631 544.548L408.283 523.778L407.69 524.017Z" fill="#E2E0FA"/>
<path d="M249.378 270.648C234.246 269.387 240.446 252.521 245.438 244.246H262.776C263.959 263.161 268.294 272.225 249.378 270.648Z" fill="#FBA186"/>
<path d="M263.571 250.946C253.483 254.729 245.444 250.158 242.685 247.399C242.817 246.611 243.159 244.799 243.473 243.853C252.616 250.158 260.944 248.582 263.965 247.005C263.965 247.793 263.886 249.685 263.571 250.946Z" fill="#F6FBFE"/>
<path d="M263.959 247.793C254.816 252.207 246.226 247.531 243.074 244.641C246.226 212.485 252.531 165.577 256.078 161.493C260.412 156.502 273.338 141.317 290.361 120.51C307.385 99.703 320.705 91.349 324.645 91.743C326.484 99.6244 327.483 119.406 323.069 132.332C286.184 163.857 281.589 172.527 280.116 178.832C275.387 199.061 265.85 241.489 263.959 247.793Z" fill="#2177F2"/>
<path d="M280.119 177.255C275.39 197.484 265.854 241.488 263.962 247.793C258.753 250.308 253.723 249.871 249.775 248.496C264.75 246.441 269.479 198.929 271.844 182.772C274.208 166.615 306.127 142.183 314.008 129.967C319.052 123.662 322.153 110.263 323.072 104.353C324.045 113.26 326.005 123.741 323.072 132.331C291.941 162.674 281.593 170.95 280.119 177.255Z" fill="#0069FF"/>
<path d="M249.774 240.061C249.774 240.931 249.068 241.637 248.198 241.637C247.327 241.637 246.621 240.931 246.621 240.061C246.621 239.19 247.327 238.485 248.198 238.485C249.068 238.485 249.774 239.19 249.774 240.061Z" fill="white"/>
<path d="M250.564 233.756C250.564 234.627 249.858 235.332 248.987 235.332C248.117 235.332 247.411 234.627 247.411 233.756C247.411 232.886 248.117 232.18 248.987 232.18C249.858 232.18 250.564 232.886 250.564 233.756Z" fill="white"/>
<path d="M252.14 227.45C252.14 228.321 251.435 229.027 250.564 229.027C249.694 229.027 248.988 228.321 248.988 227.45C248.988 226.58 249.694 225.874 250.564 225.874C251.435 225.874 252.14 226.58 252.14 227.45Z" fill="white"/>
<path d="M388.463 107.384V82.845L361.47 63.2139L360.506 102.927L388.463 107.384Z" fill="#FB8F6A"/>
<path d="M388.463 82.845L361.47 63.2139L361.091 77.9781C369.434 90.7378 382.942 94.2967 388.463 95.1147V82.845Z" fill="#FF9879"/>
<path d="M362.874 88.7392L349.476 87.9512L300.612 276.315C305.997 282.883 339.624 297.201 376.667 286.167C391.168 238.879 394.793 137.735 394.793 93.0745C391.641 92.1285 386.387 91.1038 384.154 90.7098C382.84 93.0745 378.951 99.0549 373.907 104.414C366.971 100.316 363.662 92.2858 362.874 88.7392Z" fill="white"/>
<path d="M376.667 286.166C339.624 297.2 305.998 282.883 300.612 276.315L301.941 271.192C315.586 275.133 347.12 289.477 379.819 277.497C379.275 279.548 377.245 284.28 376.667 286.166Z" fill="#5F1812"/>
<path d="M317.948 130.361C309.12 177.334 287.998 240.569 278.541 266.314C299.396 281.136 309.895 285.895 327.799 287.743L358.931 162.824C359.246 157.465 353.676 111.708 348.291 88.1962C333.315 86.7685 324.922 90.9177 321.494 92.5308C321.232 93.5817 321.731 102.304 317.948 130.361Z" fill="#2177F2"/>
<path d="M405.432 182.378C408.584 153.612 417.648 133.12 425.135 116.964C421.865 104.12 407.294 96.8253 395.1 93.3196C397.131 108.974 392.034 132.9 382.182 149.032L352.233 290.502C372.043 290.444 384.676 284.495 393.216 279.319C396.236 256.594 402.91 205.392 405.432 182.378Z" fill="#2177F2"/>
<path d="M393.215 279.318C396.236 256.593 403.303 204.998 405.825 181.984L408.978 152.823C399.914 159.522 368.652 277.54 359.719 290.107C376.01 288.901 385.781 283.824 393.215 279.318Z" fill="#0069FF"/>
<path d="M339.621 87.9512H346.714C364.841 142.727 360.9 164.4 359.718 175.434C359.169 180.557 349.866 148.637 344.35 137.604L349.472 131.693L341.591 134.057C341.329 120.133 339.621 89.8432 339.621 87.9512Z" fill="#0069FF"/>
<path d="M325.432 287.745L353.703 162.037C354.504 164.305 355.266 166.448 355.962 168.343L330.161 288.533L325.432 287.745Z" fill="#0069FF"/>
<path d="M405.428 97.0144C403.221 95.7531 396.89 93.5995 394.789 93.0737C389.745 127.436 378.5 160.59 370.751 169.917V180.557L399.911 140.362L397.153 134.057L402.67 135.239C403.589 123.942 405.428 99.2211 405.428 97.0144Z" fill="#0069FF"/>
<path d="M372.329 179.374L383.759 154.154L355.386 290.501H353.021L372.329 179.374Z" fill="#0069FF"/>
<path d="M373.116 104.11C369.334 104.11 367.206 97.4108 365.235 95.8348C361.688 97.8055 368.388 108.839 368.388 111.598C368.703 112.544 363.527 134.06 360.9 144.699C360.9 144.699 328.192 267.254 342.773 270.013C355.384 274.347 376.269 147.064 376.269 147.064C377.057 136.424 375.875 113.962 377.057 111.598C378.634 108.445 379.29 98.9875 379.816 94.2588C377.845 95.8348 376.9 104.11 373.116 104.11Z" fill="#3B3679"/>
<path d="M342.378 87.9512H349.471C367.598 142.727 362.081 160.459 360.899 171.493C358.929 163.218 351.836 148.243 346.318 137.21L352.624 129.723L343.166 132.087C342.903 118.163 342.378 89.8432 342.378 87.9512Z" fill="#8ED1FE"/>
<path d="M360.898 171.493C361.007 169.125 358.813 164.792 356.958 159.671L325.827 287.743L333.314 288.925L360.898 171.493Z" fill="#8ED1FE"/>
<path d="M403.852 96.2264C401.645 94.9651 396.89 93.5995 394.788 93.0737C389.744 127.436 379.42 144.303 371.538 156.913C371.538 156.913 369.229 171.041 369.568 175.04C383.36 164.794 397.941 139.574 397.941 139.574L392.818 130.904L401.093 132.875C402.013 121.578 403.852 98.4331 403.852 96.2264Z" fill="#8ED1FE"/>
<path d="M370.356 165.976L380.602 160.853C380.602 160.853 362.081 245.577 353.805 290.501C347.107 290.895 345.53 290.501 345.53 290.501L370.356 165.976Z" fill="#8ED1FE"/>
<path d="M373.907 104.503C371.385 106.08 365.763 99.2491 364.449 95.8335C362.243 86.6915 369.046 83.3367 371.936 83.4678C372.331 88.7222 373.907 101.666 373.907 104.503Z" fill="#231E5F"/>
<path d="M361.295 80.4634C359.718 83.222 358.064 88.747 357.748 89.3777C359.455 93.3184 363.344 101.83 365.236 104.352C365.236 95.6831 369.964 87.013 371.54 83.467C368.072 83.467 362.74 81.5143 361.295 80.4634Z" fill="#3B3679"/>
<path d="M379.028 88.3445L373.905 104.501L380.999 98.4408L379.028 88.3445Z" fill="#231E5F"/>
<path d="M388.884 84.2542L379.032 88.3439L376.668 108.686C378.113 106.453 387.465 100.648 389.672 95.2882C390.933 89.9288 389.672 85.699 388.884 84.2542Z" fill="#3B3679"/>
<path d="M492.124 84.8012C485.819 89.1365 478.072 104.487 478.334 112.631L492.125 122.483C492.388 120.775 496.46 115.074 510.646 105.932C524.833 96.7895 522.861 90.1694 518.92 86.6228C511.431 79.8825 498.15 80.659 492.124 84.8012Z" fill="#FBA186"/>
<path d="M475.576 111.448L472.423 116.965L491.733 128.393C492.258 126.948 493.309 126.028 494.097 123.664C494.097 118.935 479.123 110.66 475.576 111.448Z" fill="#FEFEFA"/>
<path d="M440.504 174.894C430.731 133.911 425.529 115.39 422.77 111.843L403.461 162.283C410.16 177.258 418.042 216.954 436.169 221.788C459.813 228.093 487.398 136.669 492.52 126.818C486.215 118.937 480.304 117.36 472.817 115.784C462.571 139.428 447.991 163.86 440.504 174.894Z" fill="#2177F2"/>
<path d="M403.458 162.283C410.157 177.258 418.039 216.954 436.166 221.787C443.901 223.85 452.101 215.452 459.812 202.872C426.708 241.097 416.068 180.805 409.145 148.491L403.458 162.283Z" fill="#0069FF"/>
<path d="M476.363 123.666C476.363 124.536 475.658 125.242 474.787 125.242C473.917 125.242 473.21 124.536 473.21 123.666C473.21 122.795 473.917 122.089 474.787 122.089C475.658 122.089 476.363 122.795 476.363 123.666Z" fill="white"/>
<path d="M473.607 129.723C473.607 130.594 472.901 131.3 472.03 131.3C471.16 131.3 470.454 130.594 470.454 129.723C470.454 128.853 471.16 128.147 472.03 128.147C472.901 128.147 473.607 128.853 473.607 129.723Z" fill="white"/>
<path d="M470.454 135.241C470.454 136.111 469.749 136.817 468.878 136.817C468.007 136.817 467.301 136.111 467.301 135.241C467.301 134.37 468.007 133.665 468.878 133.665C469.749 133.665 470.454 134.37 470.454 135.241Z" fill="white"/>
<path d="M406.258 69.9609L406.872 32.5395C400.983 20.761 377.115 16.3656 364.846 12.6846C360.551 24.9543 349.574 44.3181 348.592 47.2629C340.004 61.9862 354.727 69.9609 357.181 68.7341C386.628 101.861 406.258 79.1631 406.258 69.9609Z" fill="#FBA186"/>
<path fill-rule="evenodd" clip-rule="evenodd" d="M383.52 55.7385C382.056 53.7499 381.13 50.9721 381.13 47.8763C381.13 44.78 382.056 42.0021 383.52 40.0135C384.986 38.025 386.958 36.8596 389.079 36.8596C391.199 36.8596 393.172 38.025 394.637 40.0135C396.102 42.0021 397.028 44.78 397.028 47.8763C397.028 50.9721 396.102 53.7499 394.637 55.7385C393.172 57.7271 391.199 58.8925 389.079 58.8925C386.958 58.8925 384.986 57.7271 383.52 55.7385ZM389.079 59.5321C384.335 59.5321 380.49 54.3134 380.49 47.8763C380.49 41.4386 384.335 36.22 389.079 36.22C393.822 36.22 397.667 41.4386 397.667 47.8763C397.667 54.3134 393.822 59.5321 389.079 59.5321Z" fill="#231E5F"/>
<path fill-rule="evenodd" clip-rule="evenodd" d="M401.927 56.9655C400.461 54.977 399.536 52.1991 399.536 49.1034C399.536 46.007 400.461 43.2292 401.927 41.2406C403.392 39.252 405.365 38.0866 407.485 38.0866C409.605 38.0866 411.577 39.252 413.043 41.2406C414.508 43.2292 415.434 46.007 415.434 49.1034C415.434 52.1991 414.508 54.977 413.043 56.9655C411.577 58.9541 409.605 60.1195 407.485 60.1195C405.365 60.1195 403.392 58.9541 401.927 56.9655ZM407.485 60.7591C402.742 60.7591 398.896 55.5405 398.896 49.1034C398.896 42.6657 402.742 37.447 407.485 37.447C412.228 37.447 416.073 42.6657 416.073 49.1034C416.073 55.5405 412.228 60.7591 407.485 60.7591Z" fill="#231E5F"/>
<path fill-rule="evenodd" clip-rule="evenodd" d="M397.054 47.5835H399.508V46.9438H397.054V47.5835Z" fill="#231E5F"/>
<path fill-rule="evenodd" clip-rule="evenodd" d="M360.248 50.6489H381.106V50.0093H360.248V50.6489Z" fill="#231E5F"/>
<path d="M346.32 58.791C337.573 52.3117 331.302 37.4137 351.078 23.4905C353.312 19.7993 357.454 11.4933 368.811 10.7225C372.37 10.5108 385.606 7.10742 392.245 0C394.853 0.330042 405.31 1.43274 411.351 13.0149C412.245 14.6734 419.898 25.1689 407.009 32.8104C405.653 31.3143 398.056 25.0544 381.393 31.1141C380.441 31.6565 359.538 39.9063 367.98 44.7277C366.984 45.6929 360.789 48.9313 361.656 56.1673C361.669 56.2555 361.679 56.3419 361.69 56.4263C361.678 56.3393 361.666 56.253 361.656 56.1673C361.184 52.8176 359.03 46.7489 353.808 47.3629C348.449 47.9936 346.583 55.2443 346.32 58.791Z" fill="#211E50"/>
<path d="M361.62 22.1759C359.406 20.479 355.272 22.3288 353.305 23.331C353.996 21.3578 357.801 18.1597 362.385 19.6232C368.114 21.4518 368.769 19.7684 371.161 18.3049C369.308 22.4861 364.438 24.3352 361.62 22.1759Z" fill="#F7F7F7"/>
<path fill-rule="evenodd" clip-rule="evenodd" d="M352.151 33.3561C351.814 31.5741 352.033 29.6758 352.337 28.4675L352.957 28.6236C352.669 29.7691 352.464 31.5703 352.779 33.2378C353.094 34.9008 353.912 36.3738 355.623 36.9975L355.404 37.5987C353.401 36.8689 352.489 35.1426 352.151 33.3561Z" fill="#F7F7F7"/>
<path d="M393.574 1.71313C395.851 5.23934 399.233 13.5121 394.553 18.3956C397.326 17.4215 401.655 11.1251 393.574 1.71313Z" fill="#F7F7F7"/>
<path d="M402.233 6.56299C402.205 6.78046 405.779 15.1805 399.276 21.2019C401.614 20.1727 406.323 14.3663 402.233 6.56299Z" fill="#F7F7F7"/>
<path d="M410.127 13.9644C410.072 14.3987 410.417 20.4034 407.072 22.4086C409.462 22.7111 412.185 18.64 410.127 13.9644Z" fill="#F7F7F7"/>
<path d="M404.869 6.67554C404.872 6.67874 404.875 6.68385 404.879 6.69025C410.204 15.0846 406.423 20.561 404.737 21.6713C408.283 16.0235 405.147 7.16804 404.879 6.69025C404.876 6.68577 404.872 6.68065 404.869 6.67554Z" fill="#F7F7F7"/>
<path d="M257.727 256.613H254.334C240.511 256.613 229.307 267.818 229.307 281.64H239.275V269.975C239.275 256.613 272.785 256.613 272.785 269.975V281.64H282.754C282.754 267.818 271.549 256.613 257.727 256.613Z" fill="#FED36A"/>
<path d="M194.95 315.203C194.95 309.551 199.533 304.969 205.184 304.969H306.032C311.684 304.969 316.266 309.551 316.266 315.203V371.088C316.266 376.74 311.684 381.322 306.032 381.322H205.184C199.533 381.322 194.95 376.74 194.95 371.088V315.203Z" fill="#FE845F"/>
<path d="M201.737 381.322H309.479C313.227 381.322 316.266 378.284 316.266 374.535V369.063C313.551 373.305 310.963 377.08 308.418 377.08H202.373C196.643 377.08 196.363 370.124 194.948 369.063L194.95 374.535C194.95 378.284 197.989 381.322 201.737 381.322Z" fill="#FED36A"/>
<path d="M284.025 380.261V332.329H296.326V380.261H284.025Z" fill="#FFBA12"/>
<path d="M215.735 380.261V332.329H228.037V380.261H215.735Z" fill="#FFBA12"/>
<path d="M185.365 377.869C188.144 363.045 199.082 343.178 204.126 335.407L174.48 324.675L151.55 361.965C160.917 366.262 180.795 375.46 185.365 377.869Z" fill="#FDFDFD"/>
<path d="M131.568 378.35C135.768 376.065 150.972 353.053 158.049 341.833C155.393 338.93 136.715 330.536 127.707 326.701C119.293 336.686 101.814 357.165 99.2194 359.204C100.995 364.145 125.623 376.42 131.568 378.35Z" fill="#FE845F"/>
<path d="M78.2521 321.245C79.2403 324.024 93.1271 334.652 99.9467 339.619C86.6676 353.361 63.6606 349.424 60.804 348.343C57.9475 347.262 45.8268 326.494 42.7387 321.245C57.0988 327.652 72.2301 323.869 78.2521 321.245Z" fill="#FE845F"/>
<path d="M56.1723 337.456C55.431 342.46 58.9514 346.799 60.8044 348.343C53.9586 343.736 39.7584 333.195 37.72 327.883C36.8712 324.177 39.0843 317.075 39.9593 314.682C43.845 320.395 52.5277 332.948 56.1723 337.456Z" fill="white"/>
<path d="M303.389 337.631H207.933C203.007 337.631 198.337 336.995 194.944 333.192L197.489 276.254C198.022 276.164 198.527 276.125 198.973 276.125L276.598 275.065C286.637 275.418 307.69 276.125 311.593 276.125L316.259 333.285C313.502 336.995 308.262 337.631 303.389 337.631Z" fill="#FFBA12"/>
<path d="M320.083 279.943L324.408 311.414C326.159 324.156 316.257 335.511 303.396 335.511H207.94C195.111 335.511 185.219 324.209 186.919 311.493L191.133 279.943C191.981 275.277 196.435 274.005 198.98 274.005L276.605 272.944C286.644 273.297 307.697 274.005 311.6 274.005C315.502 274.005 319.447 276.337 320.083 279.943Z" fill="#FE845F"/>
<path d="M191.126 279.943C191.974 275.277 196.428 274.005 198.973 274.005L276.598 272.944C286.637 273.297 307.69 274.005 311.592 274.005C315.495 274.005 319.44 276.337 320.076 279.943C316.853 276.04 313.077 275.065 311.592 275.065H199.397C195.325 275.065 192.186 278.317 191.126 279.943Z" fill="#FED36A"/>
<path d="M216.582 304.544H227.186V380.684C227.186 383.613 224.812 385.986 221.883 385.986C218.955 385.986 216.582 383.613 216.582 380.685V304.544Z" fill="#FED36A"/>
<path d="M223.365 315.998C223.365 316.935 222.605 317.694 221.668 317.694C220.731 317.694 219.971 316.935 219.971 315.998C219.971 315.061 220.731 314.301 221.668 314.301C222.605 314.301 223.365 315.061 223.365 315.998Z" fill="white"/>
<path d="M223.365 353.75C223.365 354.687 222.605 355.447 221.668 355.447C220.731 355.447 219.971 354.687 219.971 353.75C219.971 352.813 220.731 352.053 221.668 352.053C222.605 352.053 223.365 352.813 223.365 353.75Z" fill="#FDFDFD"/>
<path d="M223.365 363.929C223.365 364.866 222.605 365.626 221.668 365.626C220.731 365.626 219.971 364.866 219.971 363.929C219.971 362.992 220.731 362.233 221.668 362.233C222.605 362.233 223.365 362.992 223.365 363.929Z" fill="#FDFDFD"/>
<path d="M228.455 335.297V325.767C228.455 324.354 227.31 323.209 225.896 323.209H222.093V324.693H225.051C226.111 324.693 226.97 325.552 226.97 326.612V336.783C227.79 336.783 228.455 336.117 228.455 335.297Z" fill="white"/>
<path d="M215.31 325.767V335.297C215.31 336.117 215.975 336.783 216.795 336.783V326.612C216.795 325.552 217.654 324.693 218.714 324.693H221.248V323.209H217.868C216.455 323.209 215.31 324.354 215.31 325.767Z" fill="white"/>
<path d="M220.821 323.207C220.821 322.739 221.2 322.359 221.669 322.359C222.137 322.359 222.517 322.739 222.517 323.207V332.115C222.517 332.583 222.137 332.963 221.669 332.963C221.2 332.963 220.821 332.583 220.821 332.115V323.207Z" fill="white"/>
<path d="M265.363 313.24C265.363 318.042 261.47 321.935 256.667 321.935C251.865 321.935 247.972 318.042 247.972 313.24C247.972 308.437 251.865 304.544 256.667 304.544C261.47 304.544 265.363 308.437 265.363 313.24Z" fill="#FDFDFD"/>
<path d="M256.667 321.935C261.47 321.935 265.363 318.042 265.363 313.239C265.363 311.147 264.624 309.226 263.391 307.725C263.172 316.548 254.582 319.037 250.315 319.178C251.902 320.875 254.161 321.935 256.667 321.935Z" fill="#EDFAFE"/>
<path d="M284.874 304.544H295.479L295.479 380.684C295.479 383.613 293.105 385.986 290.177 385.986C287.249 385.986 284.874 383.613 284.874 380.685V304.544Z" fill="#FED36A"/>
<path d="M291.658 315.998C291.658 316.935 290.899 317.694 289.962 317.694C289.025 317.694 288.265 316.935 288.265 315.998C288.265 315.061 289.025 314.301 289.962 314.301C290.899 314.301 291.658 315.061 291.658 315.998Z" fill="white"/>
<path d="M291.658 353.75C291.658 354.687 290.899 355.447 289.962 355.447C289.025 355.447 288.265 354.687 288.265 353.75C288.265 352.813 289.025 352.053 289.962 352.053C290.899 352.053 291.658 352.813 291.658 353.75Z" fill="#FDFDFD"/>
<path d="M291.658 363.929C291.658 364.866 290.899 365.626 289.962 365.626C289.025 365.626 288.265 364.866 288.265 363.929C288.265 362.992 289.025 362.233 289.962 362.233C290.899 362.233 291.658 362.992 291.658 363.929Z" fill="#FDFDFD"/>
<path d="M296.752 335.297V325.767C296.752 324.354 295.606 323.209 294.193 323.209H290.389V324.693H293.348C294.408 324.693 295.267 325.552 295.267 326.612V336.783C296.087 336.783 296.752 336.117 296.752 335.297Z" fill="white"/>
<path d="M283.604 325.767V335.297C283.604 336.117 284.268 336.783 285.088 336.783V326.612C285.088 325.552 285.947 324.693 287.007 324.693H289.542V323.209H286.162C284.749 323.209 283.604 324.354 283.604 325.767Z" fill="white"/>
<path d="M289.118 323.207C289.118 322.739 289.497 322.359 289.966 322.359C290.434 322.359 290.814 322.739 290.814 323.207V332.115C290.814 332.583 290.434 332.963 289.966 332.963C289.497 332.963 289.118 332.583 289.118 332.115V323.207Z" fill="white"/>
</svg>
