<svg width="23" height="24" viewBox="0 0 23 24" fill="none" xmlns="http://www.w3.org/2000/svg">
<path d="M20.668 0.875H2.03125C0.914062 0.875 0 1.83984 0 2.95703V21.5938C0 22.7109 0.914062 23.625 2.03125 23.625H20.668C21.7852 23.625 22.75 22.7109 22.75 21.5938V2.95703C22.75 1.83984 21.7852 0.875 20.668 0.875ZM8.9375 6.66406C8.9375 7.83203 7.76953 8.03516 7.56641 8.03516C6.80469 8.03516 6.19531 7.42578 6.19531 6.66406C6.19531 4.88672 8.88672 4.88672 8.9375 6.66406ZM16.8594 18.3945C13.5586 18.3945 15.1328 14.6367 15.5898 13.0117C16.3008 10.625 13.3047 10.0156 12.543 13.0625L11.2734 18.293H8.98828L9.39453 16.6172C7.76953 19.2578 4.57031 18.9023 4.57031 16.4141C4.57031 15.7031 4.62109 15.7031 5.73828 11.1328H4.11328L4.62109 9.30469H8.48047C6.80469 16.1094 6.85547 15.7539 6.80469 16.3633C6.80469 17.3789 8.88672 17.0234 9.75 15.1445L10.7656 11.1328H9.08984L9.59766 9.30469H13.1016L12.6445 11.3867C14.6758 7.52734 19.1445 8.94922 17.8242 13.3164C17.1133 15.9062 17.0625 15.9062 17.0625 16.3125C17.0625 17.0742 17.9258 17.4297 18.6875 15.4492L19.6016 15.7539C19.043 17.6328 18.0781 18.3945 16.8594 18.3945Z" fill="white"/>
</svg>
