<svg width="23" height="24" viewBox="0 0 23 24" fill="none" xmlns="http://www.w3.org/2000/svg">
<path d="M4.57031 10.8789C4.875 10.8789 7.71875 10.8789 10.9688 10.0156C9.80078 7.98438 8.58203 6.25781 8.37891 6.00391C6.44922 6.91797 5.02734 8.69531 4.57031 10.8789ZM15.9453 7.07031C14.2695 5.59766 11.9336 4.98828 9.75 5.54688C9.90234 5.80078 11.1719 7.52734 12.3398 9.60938C14.7773 8.69531 15.8438 7.27344 15.9453 7.07031ZM7.10938 17.7344C9.14062 19.3594 11.832 19.6133 14.0664 18.6484C13.9648 18.0391 13.5586 15.957 12.5938 13.418C9.80078 14.3828 7.82031 16.2617 7.10938 17.7344ZM12.0859 12.25C11.9336 11.8438 11.7305 11.4883 11.5273 11.082C8.07422 12.0977 4.72266 12.0977 4.41797 12.0469C4.41797 12.1484 4.41797 12.1992 4.41797 12.3008C4.41797 14.0781 5.07812 15.7031 6.19531 16.9219C7.3125 14.9922 9.59766 12.9609 12.0859 12.25ZM13.8633 13.1133C14.7773 15.6016 15.1328 17.6328 15.2344 18.0391C16.8086 16.9727 17.875 15.2969 18.1797 13.3672C17.9766 13.3164 16.0469 12.7578 13.8633 13.1133ZM12.8477 10.625C13.1016 11.1328 13.2539 11.5391 13.457 11.9961C15.793 11.6914 18.0781 12.1484 18.2812 12.1992C18.2812 10.5742 17.6719 9.05078 16.707 7.88281C16.5547 8.08594 15.4375 9.55859 12.8477 10.625ZM22.75 3.3125C22.75 1.99219 21.6328 0.875 20.3125 0.875H2.4375C1.06641 0.875 0 1.99219 0 3.3125V21.1875C0 22.5586 1.06641 23.625 2.4375 23.625H20.3125C21.6328 23.625 22.75 22.5586 22.75 21.1875V3.3125ZM19.5 12.25C19.5 16.7695 15.8438 20.375 11.375 20.375C6.85547 20.375 3.25 16.7695 3.25 12.25C3.25 7.78125 6.85547 4.125 11.375 4.125C15.8438 4.125 19.5 7.78125 19.5 12.25Z" fill="white"/>
</svg>
