<svg width="23" height="24" viewBox="0 0 23 24" fill="none" xmlns="http://www.w3.org/2000/svg">
<path d="M20.4648 0.875H2.23438C1.01562 0.875 0 1.94141 0 3.16016V21.3906C0 22.6094 1.01562 23.625 2.23438 23.625H20.4648C21.6836 23.625 22.75 22.6094 22.75 21.3906V3.16016C22.75 1.94141 21.6836 0.875 20.4648 0.875ZM19.1445 8.44141C19.043 10.0664 17.9258 12.25 15.793 15.043C13.5586 17.9375 11.6289 19.3594 10.1055 19.3594C9.14062 19.3594 8.32812 18.4961 7.66797 16.7188C6.34766 11.9961 5.83984 9.20312 4.77344 9.20312C4.62109 9.20312 4.21484 9.45703 3.45312 9.96484L2.69141 9C4.57031 7.32422 6.39844 5.49609 7.51562 5.39453C8.78516 5.24219 9.59766 6.10547 9.90234 7.98438C10.918 14.6367 11.4258 15.6523 13.3047 12.6562C14.0156 11.5391 14.3711 10.7266 14.4219 10.168C14.625 8.49219 13.1016 8.59375 12.0859 9.05078C12.8984 6.35938 14.4727 5.08984 16.707 5.19141C18.4336 5.19141 19.1953 6.30859 19.1445 8.44141Z" fill="white"/>
</svg>
