<svg width="23" height="24" viewBox="0 0 23 24" fill="none" xmlns="http://www.w3.org/2000/svg">
<path d="M20.3125 0.875H2.4375C1.06641 0.875 0 1.99219 0 3.3125V21.1875C0 22.5586 1.06641 23.625 2.4375 23.625H9.39453V15.9062H6.19531V12.25H9.39453V9.50781C9.39453 6.35938 11.2734 4.58203 14.1172 4.58203C15.5391 4.58203 16.9609 4.83594 16.9609 4.83594V7.93359H15.3867C13.8125 7.93359 13.3047 8.89844 13.3047 9.91406V12.25H16.8086L16.25 15.9062H13.3047V23.625H20.3125C21.6328 23.625 22.75 22.5586 22.75 21.1875V3.3125C22.75 1.99219 21.6328 0.875 20.3125 0.875Z" fill="white"/>
</svg>
