<svg width="23" height="24" viewBox="0 0 23 24" fill="none" xmlns="http://www.w3.org/2000/svg">
<path d="M20.3125 0.875H2.4375C1.06641 0.875 0 1.99219 0 3.3125V21.1875C0 22.5586 1.06641 23.625 2.4375 23.625H20.3125C21.6328 23.625 22.75 22.5586 22.75 21.1875V3.3125C22.75 1.99219 21.6328 0.875 20.3125 0.875ZM17.8242 8.94922C17.8242 9.10156 17.8242 9.25391 17.8242 9.40625C17.8242 13.7734 14.4727 18.8516 8.32812 18.8516C6.44922 18.8516 4.72266 18.3438 3.25 17.3789C3.50391 17.4297 3.75781 17.4297 4.01172 17.4297C5.58594 17.4297 7.00781 16.8711 8.17578 16.0078C6.70312 15.957 5.48438 14.9922 5.02734 13.6719C5.58594 13.7734 6.04297 13.7734 6.55078 13.6211C5.02734 13.3164 3.91016 11.9961 3.91016 10.3711V10.3203C4.31641 10.5742 4.82422 10.7266 5.38281 10.7266C4.46875 10.1172 3.91016 9.10156 3.91016 7.98438C3.91016 7.32422 4.0625 6.76562 4.36719 6.25781C5.99219 8.28906 8.48047 9.60938 11.2227 9.76172C10.7656 7.52734 12.4414 5.64844 14.4727 5.64844C15.4375 5.64844 16.3008 6.05469 16.9102 6.71484C17.6719 6.5625 18.3828 6.30859 19.043 5.90234C18.7891 6.71484 18.2305 7.32422 17.5703 7.73047C18.2305 7.67969 18.8906 7.47656 19.5 7.22266C19.043 7.88281 18.4336 8.49219 17.8242 8.94922Z" fill="white"/>
</svg>
