<svg width="576" height="451" viewBox="0 0 576 451" fill="none" xmlns="http://www.w3.org/2000/svg">
<path d="M566.002 420.363H575.349L528.614 186.855H507.583L566.002 420.363Z" fill="#2177F2"/>
<path d="M528.615 186.855H507.585L516.438 222.245H535.698L528.615 186.855Z" fill="#8ED1FE"/>
<path d="M9.9353 420.363H0.588417L47.323 186.855H68.3541L9.9353 420.363Z" fill="#2177F2"/>
<path d="M47.3237 186.855H68.3541L60.9683 216.379H41.4145L47.3237 186.855Z" fill="#8ED1FE"/>
<path d="M444.491 420.363H453.838L416.45 186.855H395.419L444.491 420.363Z" fill="#2177F2"/>
<path d="M416.449 186.855H395.418L402.701 221.511H421.997L416.449 186.855Z" fill="#8ED1FE"/>
<path d="M131.443 420.363H122.096L159.484 186.855H180.515L131.443 420.363Z" fill="#2177F2"/>
<path d="M159.485 186.855H180.515L173.463 220.411H154.111L159.485 186.855Z" fill="#8ED1FE"/>
<path d="M568.977 194.837L575.412 143.168H7.04694L11.3368 194.837H568.977Z" fill="#8ED1FE"/>
<path d="M568.338 194.641L575.349 142.749H524.116L458.872 194.641H568.338Z" fill="#2177F2"/>
<path fill-rule="evenodd" clip-rule="evenodd" d="M10.2764 185.149H570.03V184.073H10.2764V185.149Z" fill="#FFF8E9"/>
<path fill-rule="evenodd" clip-rule="evenodd" d="M9.19983 162.544H572.182V161.467H9.19983V162.544Z" fill="#FFF8E9"/>
<path d="M238.202 120.289L232.312 142.776H199.609C198.271 142.776 195.266 143.706 197.468 139.028C198.536 136.759 202.865 123.948 204.739 117.879L238.202 120.289Z" fill="#FE845F"/>
<path d="M131.683 22.8802L151.83 116.901C152.554 120.282 155.542 122.697 158.998 122.697H305.937C310.611 122.697 314.092 118.381 313.102 113.813L292.723 19.7906C291.992 16.4189 289.008 14.0127 285.558 14.0127H138.852C134.184 14.0127 130.705 18.3163 131.683 22.8802Z" fill="#FED36A"/>
<path d="M159.002 122.698H305.815C310.529 122.698 314.019 118.312 312.959 113.718L311.2 106.101L149.576 106.368L151.832 116.902C152.557 120.283 155.544 122.698 159.002 122.698Z" fill="#FE845F"/>
<path d="M147.251 23.3225L280.66 21.8173C282.748 21.7938 284.565 23.2418 285.008 25.2822L300.487 96.4849C301.083 99.2268 298.995 101.819 296.189 101.819H162.762C160.7 101.819 158.915 100.385 158.468 98.372L143.006 28.6737C142.401 25.9464 144.458 23.354 147.251 23.3225Z" fill="#FDFDFC"/>
<path d="M226.957 114.398C226.957 116.763 228.875 118.681 231.24 118.681C233.606 118.681 235.523 116.763 235.523 114.398C235.523 112.032 233.606 110.115 231.24 110.115C228.875 110.115 226.957 112.032 226.957 114.398Z" fill="#F4F4F7"/>
<path d="M200.085 366.564C194.48 374.614 195.122 381.301 196.144 383.639C168.467 439.769 148.324 428.383 147.011 412.181C150.951 412.181 172.936 374.006 175.563 368.749L226.358 259.28L282.407 266.286C269.708 273.292 244.311 288.617 244.311 293.872C244.311 300.44 207.091 356.489 200.085 366.564Z" fill="#F9947A"/>
<path d="M244.313 293.872C244.313 300.44 225.394 361.822 218.388 371.894L175.565 368.749L226.269 251.914L320.852 279.062C308.154 286.068 244.313 288.617 244.313 293.872Z" fill="#3B3679"/>
<path fill-rule="evenodd" clip-rule="evenodd" d="M313.149 281.687L306.909 275.937L287.222 276.95L295.739 284.797C295.428 284.841 295.115 284.885 294.801 284.929L286.197 277.003L271.937 277.736L281.618 286.655C281.3 286.694 280.983 286.734 280.665 286.773L270.912 277.789L252.009 278.761L263.127 289.004C262.811 289.048 262.498 289.092 262.188 289.135L250.984 278.813L239.239 279.418L236.594 287.655L244.15 295.42C244.106 295.693 244.053 295.99 243.992 296.31L236.34 288.445L232.361 300.84L240.824 308.945C240.75 309.21 240.675 309.476 240.599 309.745L232.112 301.616L227.569 315.762L236.4 323.896C236.32 324.154 236.24 324.412 236.159 324.671L227.322 316.531L222.897 330.312L231.721 338.465C231.636 338.72 231.551 338.974 231.466 339.229L222.65 331.082L218.004 345.551L226.617 353.101C226.526 353.348 226.436 353.593 226.346 353.838L217.759 346.312L213.1 360.821L220.709 367.665C220.597 367.906 220.486 368.134 220.377 368.354L212.855 361.586L209.748 371.264L208.996 371.206L212.257 361.048L202.792 352.529L198.406 365.047L205.274 370.934L204.042 370.839L198.146 365.788L196.567 370.297L195.81 370.238L197.548 365.274L187.633 356.777L182.776 368.39L183.991 369.373L182.705 369.277L182.481 369.094L182.414 369.255L181.643 369.197L181.886 368.618L177.247 364.879L177.549 364.182L182.181 367.914L187.048 356.276L182.625 352.485L182.93 351.781L187.345 355.565L192.492 343.259L188.276 339.465L188.583 338.755L192.792 342.542L198.336 329.286L194.248 325.703L194.555 324.996L198.635 328.573L204.572 314.377L200.711 310.81L201.02 310.097L204.873 313.657L210.248 300.806L206.536 297.386L206.845 296.674L210.55 300.086L216.259 286.434L212.748 283.072L213.06 282.355L216.562 285.709L221.708 273.407L218.413 270.019L218.729 269.293L222.015 272.671L228.219 257.841L224.989 254.866L225.298 254.153L228.519 257.121L228.643 256.826L239.737 255.781L241.669 256.336L229.15 257.515L229.093 257.65L241.483 269.064H261.442L250.322 258.819L251.893 259.27L262.524 269.064H277.58L273.763 265.548L275.335 265.999L278.662 269.064H286.014L288.568 269.797H279.458L286.467 276.255L306.154 275.242L305.528 274.665L307.099 275.117L307.179 275.19L307.327 275.181L309.495 275.804L307.933 275.885L314.001 281.475C313.723 281.546 313.438 281.617 313.149 281.687ZM240.401 269.064L228.792 258.369L222.571 273.242L227.886 278.704L231.263 269.064H240.401ZM227.614 279.477L222.264 273.978L217.13 286.252L223.202 292.068L227.614 279.477ZM222.936 292.828L216.827 286.977L211.123 300.614L217.991 306.94L222.936 292.828ZM217.726 307.694L210.822 301.334L205.446 314.187L213.004 321.17L217.726 307.694ZM212.74 321.925L205.145 314.907L199.216 329.083L207.643 336.469L212.74 321.925ZM207.382 337.215L198.918 329.796L193.369 343.062L202.465 351.248L207.382 337.215ZM202.201 351.998L193.069 343.779L187.93 356.066L197.808 364.534L202.201 351.998ZM207.976 337.736L203.055 351.779L212.503 360.283L217.158 345.784L207.976 337.736ZM208.237 336.99L217.403 345.024L222.056 330.533L213.327 322.467L208.237 336.99ZM213.591 321.713L222.303 329.764L226.727 315.984L218.314 308.235L213.591 321.713ZM218.578 307.481L226.974 315.214L231.522 301.052L223.518 293.386L218.578 307.481ZM223.784 292.625L231.771 300.276L235.761 287.85L228.186 280.064L223.784 292.625ZM228.457 279.291L236.015 287.06L238.696 278.712L250.229 278.118L241.197 269.797H231.783L228.457 279.291ZM242.279 269.797L251.254 278.066L270.158 277.094L262.238 269.797H242.279ZM263.32 269.797L271.182 277.041L285.442 276.307L278.376 269.797H263.32Z" fill="#1F1A4F"/>
<path d="M205.061 390.084C206.467 379.432 201.236 372.525 197.497 370.179C197.497 370.685 196.992 371.682 196.49 372.335L176.939 402.636C174.596 407.57 171.751 411.507 168.905 415.356C166.059 419.205 159.949 419.036 156.852 417.782C147.948 414.036 148.009 411.477 149.153 410.671C146.53 411.507 140.315 413.501 136.431 414.769C131.577 416.36 126.974 417.533 126.974 421.72C126.974 425.906 156.016 431.507 164.218 432.599C172.42 433.685 175.349 426.822 175.768 425.906C183.802 407.321 187.401 404.894 190.917 401.213C194.431 397.533 196.106 396.858 199.202 395.187C202.299 393.515 204.726 390.663 205.061 390.084Z" fill="#1D1C55"/>
<path d="M205.062 390.084C204.727 390.663 202.299 393.515 199.203 395.186C196.161 396.829 194.493 397.503 191.103 401.015C191.045 401.044 190.983 401.11 190.917 401.213C191.01 401.14 191.1 401.066 191.188 401.008C192.361 401.198 191.884 417.76 191.447 427.078C191.429 427.35 191.419 427.548 191.419 427.658C193.093 429.065 194.906 428.244 195.604 427.658C195.632 424.644 195.889 417.012 196.692 410.583C197.697 402.555 201.797 397.533 202.299 396.777C205.447 392.488 205.452 390.524 205.062 390.084Z" fill="#1D1C55"/>
<path d="M191.447 427.079C191.429 427.35 191.419 427.548 191.419 427.658C191.429 427.467 191.438 427.277 191.447 427.079C191.668 423.75 193.157 409.139 193.93 401.712C194.015 400.905 193.562 399.263 191.188 401.008C191.106 400.993 191.016 401.059 190.917 401.213C191.01 401.14 191.1 401.066 191.188 401.008C192.361 401.198 191.884 417.76 191.447 427.079Z" fill="black"/>
<path d="M288.008 342.993C292.912 360.859 297.788 361.092 300.269 364.014C306.399 415.246 263.587 421.294 274.972 403.78C285.482 389.417 283.438 376.484 281.103 371.814C274.566 359.173 265.017 340.612 255.747 322.413L281.103 315.589C283.636 325.631 285.941 335.462 288.008 342.993Z" fill="#F9947A"/>
<path d="M350.624 213.819C354.724 217.01 368.485 227.72 392.752 224.687C392.627 225.095 392.489 225.689 392.316 226.442C390.067 236.184 381.654 272.639 311.744 281.174C304.354 281.638 285.827 282.128 270.838 280.377C278.812 299.206 282.753 310.153 288.883 334.236C282.315 350.146 275.922 362.787 262.611 371.895C250.35 340.805 228.018 275.998 224.953 258.482C220.125 230.896 329.169 213.819 350.624 213.819Z" fill="#3B3679"/>
<path fill-rule="evenodd" clip-rule="evenodd" d="M336.519 214.861L352.106 218.841C353.475 218.442 354.822 218.052 356.146 217.672C356.427 217.842 356.716 218.014 357.014 218.186C355.863 218.516 354.692 218.853 353.504 219.198L367.753 222.836C369.208 223.278 370.752 223.677 372.384 224.018L373.731 224.362C373.783 224.345 373.835 224.327 373.887 224.31C374.395 224.401 374.911 224.487 375.435 224.566C375.304 224.609 375.174 224.653 375.043 224.697L385.144 227.276C385.728 226.588 386.304 225.887 386.868 225.173C387.189 225.161 387.511 225.146 387.835 225.128C387.214 225.928 386.579 226.71 385.934 227.477L391.712 228.953C391.654 229.183 391.591 229.419 391.526 229.662L385.404 228.099C380.825 233.422 375.67 237.961 370.131 241.876L383.853 246.409C383.711 246.618 383.566 246.828 383.417 247.038L369.381 242.4C363.381 246.555 356.947 249.995 350.315 252.92L370.708 260.229C370.48 260.406 370.249 260.583 370.016 260.759L349.336 253.347C342.682 256.223 335.843 258.594 329.057 260.66C328.175 260.928 327.292 261.192 326.411 261.451L352.026 271.043C351.701 271.182 351.374 271.32 351.045 271.458L325.235 261.793C318.873 263.636 312.587 265.243 306.585 266.778L306.582 266.779C304.982 267.188 303.402 267.592 301.847 267.993L329.331 278.195C328.891 278.293 328.449 278.389 328.003 278.485L300.606 268.315C299.246 268.669 297.906 269.021 296.588 269.375C290.766 270.937 285.377 272.521 280.631 274.31L298.987 281.594C298.347 281.601 297.696 281.605 297.035 281.608L279.621 274.698C276.645 275.862 273.938 277.115 271.555 278.505C270.339 279.214 269.441 280.435 268.837 282.135L271.999 283.127C272.123 283.424 272.246 283.719 272.369 284.012L268.614 282.834C268.155 284.422 267.925 286.351 267.898 288.572C267.866 291.328 268.147 294.511 268.683 298.013L278.925 300.684C279.026 300.963 279.126 301.242 279.225 301.52L268.808 298.802C269.255 301.566 269.854 304.518 270.578 307.607C271.1 309.838 271.687 312.138 272.327 314.487L284.233 317.039C284.31 317.304 284.387 317.57 284.465 317.839L272.546 315.284C273.698 319.46 275.014 323.784 276.433 328.148L287.772 329.917C287.839 330.172 287.906 330.431 287.973 330.69L276.689 328.93C278.123 333.31 279.659 337.725 281.233 342.063L285.361 342.406C285.252 342.643 285.144 342.879 285.035 343.115L281.508 342.821C282.036 344.268 282.568 345.706 283.101 347.13C282.952 347.427 282.802 347.723 282.651 348.016C281.998 346.28 281.348 344.524 280.704 342.754L269.386 341.81C270.638 346.129 271.879 350.37 273.073 354.448L273.101 354.547L278.663 355.017C278.514 355.251 278.365 355.483 278.214 355.715L273.322 355.301C273.834 357.051 274.337 358.769 274.826 360.449C274.642 360.683 274.455 360.916 274.267 361.149C273.706 359.226 273.128 357.251 272.539 355.235L261.292 354.285C262.456 357.681 263.606 360.959 264.725 364.072L271.076 364.754C270.86 364.981 270.642 365.201 270.421 365.421L265.001 364.842C265.511 366.257 266.014 367.635 266.508 368.969C266.309 369.138 266.109 369.299 265.907 369.46C265.345 367.943 264.772 366.367 264.191 364.754L259.66 364.27C259.562 364.013 259.465 363.756 259.367 363.5L263.915 363.991C262.799 360.875 261.653 357.604 260.495 354.217L255.742 353.816C255.649 353.564 255.555 353.31 255.462 353.056L260.236 353.459C258.833 349.344 257.414 345.063 256.01 340.696L250.816 340.263C250.726 340.011 250.635 339.758 250.544 339.505L255.767 339.94C254.187 335.009 252.629 329.973 251.137 324.944L245.086 324.001C244.995 323.74 244.905 323.478 244.814 323.216L250.907 324.166C249.476 319.326 248.11 314.496 246.846 309.778L239.714 308.249C239.624 307.979 239.533 307.71 239.443 307.441L246.634 308.982C246.393 308.078 246.157 307.178 245.925 306.283C244.633 301.308 243.47 296.486 242.484 291.936L233.629 289.626C233.541 289.349 233.454 289.074 233.368 288.8L242.312 291.133C241.082 285.372 240.146 280.067 239.604 275.47C239.533 274.858 239.467 274.258 239.409 273.672L227.735 270.009C227.656 269.726 227.579 269.445 227.504 269.168L239.335 272.88C239.058 269.763 238.997 267.032 239.192 264.784C239.398 262.413 239.896 260.517 240.786 259.287L225.419 253.189C225.499 252.96 225.588 252.732 225.684 252.506L241.294 258.7C241.311 258.684 241.328 258.668 241.346 258.652C242.528 257.561 244.79 256.229 247.875 254.715C249.934 253.705 252.377 252.607 255.14 251.439L233.753 243.501C233.991 243.329 234.232 243.158 234.478 242.988L256.128 251.024C257.224 250.566 258.366 250.099 259.552 249.623C264.407 247.67 269.989 245.565 276.051 243.376L251.638 234.233C251.976 234.099 252.315 233.965 252.657 233.832L277.117 242.992C282.276 241.138 287.767 239.228 293.442 237.304C295.338 236.662 297.254 236.018 299.186 235.373L274.823 226.642C275.234 226.529 275.646 226.417 276.059 226.306L300.313 234.999C308.072 232.419 316.059 229.845 323.919 227.38L302.326 220.246C302.817 220.149 303.306 220.053 303.795 219.959L325.118 227.004C334.008 224.223 342.714 221.587 350.723 219.244L334.481 215.097C335.175 215.015 335.854 214.936 336.519 214.861ZM369.263 241.589C374.832 237.701 380.011 233.192 384.61 227.896L373.757 225.125C365.363 227.914 355.927 230.884 346.131 233.946L369.263 241.589ZM344.936 233.551C354.657 230.513 364.043 227.565 372.441 224.79L352.119 219.6C344.08 221.943 335.302 224.594 326.313 227.399L344.936 233.551ZM343.735 233.927L325.112 227.774C317.241 230.238 309.229 232.814 301.432 235.4L319.017 241.702C326.481 239.317 334.082 236.942 341.535 234.615L341.536 234.614L343.735 233.927ZM317.869 242.07L300.304 235.774C298.073 236.516 295.862 237.258 293.678 237.999C288.303 239.82 283.096 241.629 278.18 243.39L294.962 249.674C297.698 248.722 300.509 247.765 303.376 246.806C308.085 245.23 312.944 243.648 317.869 242.07ZM293.88 250.052L277.112 243.772C270.742 246.064 264.886 248.268 259.825 250.302C258.902 250.674 258.006 251.039 257.137 251.399L273.895 257.619C279.733 255.166 286.522 252.628 293.88 250.052ZM272.91 258.035L256.144 251.812C253.094 253.089 250.418 254.284 248.198 255.374C245.3 256.794 243.207 258.021 242.056 259.002L258.368 265.475C260.95 263.721 264.39 261.885 268.491 259.991C269.889 259.346 271.364 258.694 272.91 258.035ZM257.648 265.978L241.494 259.568C240.665 260.605 240.137 262.377 239.923 264.848C239.725 267.111 239.795 269.9 240.093 273.117L253.039 277.179C252.854 274.913 252.847 273.016 253.054 271.568C253.185 270.655 253.676 269.736 254.446 268.819C255.218 267.9 256.287 266.961 257.612 266.004L257.648 265.978ZM253.109 277.969L240.17 273.91C240.22 274.392 240.274 274.884 240.332 275.384C240.882 280.05 241.841 285.457 243.106 291.34L256.046 294.716C255.512 292.317 255.033 290.027 254.619 287.87C253.903 284.139 253.38 280.793 253.109 277.969ZM256.226 295.521L243.28 292.143C244.245 296.573 245.378 301.261 246.635 306.099C246.897 307.111 247.165 308.13 247.439 309.155L260.27 311.904C258.75 306.131 257.371 300.594 256.226 295.521ZM260.479 312.699L247.651 309.95C248.915 314.655 250.281 319.469 251.708 324.292L264.174 326.236C262.924 321.776 261.71 317.345 260.57 313.039L260.479 312.699ZM264.391 327.012L251.939 325.07C253.429 330.081 254.983 335.096 256.559 340.006L268.385 340.992C267.048 336.376 265.702 331.68 264.391 327.012ZM268.603 341.746L256.801 340.762C258.208 345.132 259.629 349.412 261.034 353.527L272.318 354.481C271.115 350.371 269.864 346.096 268.603 341.746ZM265.188 327.136C266.495 331.787 267.836 336.461 269.167 341.057L280.428 341.995C278.85 337.637 277.312 333.202 275.875 328.803L265.188 327.136ZM264.97 326.36L275.622 328.021C274.202 323.639 272.886 319.3 271.738 315.111L261.283 312.871C262.449 317.272 263.692 321.801 264.97 326.36ZM261.073 312.076L271.52 314.315C270.916 312.083 270.361 309.898 269.864 307.774C269.111 304.558 268.489 301.48 268.033 298.601L257.026 295.729C258.174 300.794 259.554 306.318 261.073 312.076ZM256.844 294.924L267.911 297.811C267.401 294.401 267.133 291.283 267.166 288.563C267.192 286.297 267.428 284.291 267.914 282.614L253.869 278.208C254.144 280.92 254.648 284.131 255.339 287.732C255.773 289.991 256.278 292.398 256.844 294.924ZM253.795 277.416L268.137 281.916L268.144 281.898C268.786 280.084 269.776 278.694 271.186 277.872C273.408 276.575 275.904 275.398 278.628 274.304L258.461 266.301C258.318 266.4 258.178 266.5 258.041 266.598C256.745 267.535 255.726 268.434 255.007 269.29C254.286 270.149 253.884 270.944 253.78 271.672C253.573 273.12 253.589 275.062 253.795 277.416ZM259.195 265.803L279.624 273.911C284.594 271.986 290.273 270.31 296.398 268.666C297.389 268.401 298.393 268.136 299.407 267.87L273.911 258.407C272.111 259.166 270.403 259.916 268.799 260.657C264.931 262.443 261.68 264.166 259.195 265.803ZM274.901 257.992L300.645 267.548C302.538 267.056 304.466 266.563 306.423 266.063L306.425 266.062C312.122 264.605 318.062 263.086 324.084 261.362L294.954 250.453C287.586 253.021 280.778 255.55 274.901 257.992ZM296.038 250.077L325.265 261.022C326.455 260.676 327.649 260.322 328.844 259.958C335.371 257.972 341.932 255.707 348.322 252.984L319.004 242.476C313.765 244.151 308.6 245.831 303.608 247.501C301.034 248.363 298.506 249.222 296.038 250.077ZM320.153 242.11L349.31 252.559C355.99 249.656 362.469 246.241 368.507 242.112L344.93 234.321C343.866 234.654 342.797 234.988 341.726 235.323H341.725C334.583 237.554 327.307 239.827 320.153 242.11Z" fill="#1F1A4F"/>
<path d="M307.3 350.916C301.768 341.712 291.518 339.871 287.134 340.366C287.447 340.759 287.673 341.854 287.686 342.677C287.821 351.042 290.874 370.949 291.814 373.522C292.632 375.758 292.761 376.726 293.124 378.251C294.366 383.574 294.591 388.427 294.764 393.215C294.936 397.995 290.052 401.668 286.848 402.621C277.546 405.231 276.002 403.193 276.393 401.851C274.863 404.139 271.241 409.571 268.996 412.98C266.19 417.255 263.319 421.038 265.926 424.308C268.532 427.585 294.744 413.875 301.838 409.615C308.932 405.363 306.948 398.163 306.701 397.188C301.412 377.643 302.715 373.508 303.171 368.434C303.626 363.364 304.519 361.798 305.898 358.559C307.278 355.32 307.404 351.582 307.3 350.916Z" fill="#1D1C55"/>
<path d="M307.299 350.916C307.402 351.583 307.276 355.32 305.897 358.559C304.541 361.74 303.657 363.308 303.194 368.17C303.165 368.221 303.157 368.309 303.169 368.434C303.196 368.317 303.223 368.207 303.252 368.104C304.29 367.525 314.234 380.78 319.697 388.339C319.853 388.566 319.968 388.72 320.038 388.808C322.224 388.867 323.131 387.093 323.312 386.206C321.456 383.83 316.902 377.701 313.526 372.173C309.306 365.26 309.386 358.776 309.31 357.874C309.102 352.561 307.882 351.021 307.299 350.916Z" fill="#1D1C55"/>
<path d="M319.697 388.339C319.853 388.566 319.968 388.727 320.038 388.808C319.927 388.654 319.813 388.5 319.697 388.339C317.795 385.597 309.861 373.243 305.838 366.953C305.402 366.271 304.022 365.259 303.252 368.104C303.179 368.148 303.15 368.251 303.169 368.434C303.195 368.317 303.223 368.207 303.252 368.104C304.29 367.525 314.234 380.78 319.697 388.339Z" fill="black"/>
<path d="M388.721 75.8853C397.829 80.0891 393.683 93.1091 390.472 99.0931C386.678 97.9259 376.022 95.1524 363.761 93.4009C368.14 87.708 359.382 57.4942 358.069 54.4289C357.41 52.8915 356.755 52.6774 355.004 52.6774L355.442 39.1031C363.907 40.7087 381.804 42.3869 385.307 47.2917C383.555 56.9245 386.969 74.5722 388.721 75.8853Z" fill="#FBA186"/>
<path d="M385.309 47.423C383.556 57.0558 386.971 74.5715 388.722 75.8853C383.905 73.9879 376.023 67.828 383.03 58.3696C380.84 55.3043 379.965 48.7668 379.965 46.343C382.412 47.519 384.393 46.1414 385.309 47.423Z" fill="#D97556"/>
<path d="M358.073 54.4286C357.414 52.8912 356.759 52.6771 355.007 52.6771C357.342 51.9469 362.889 49.8743 366.392 47.4226C367.093 50.2247 363.061 59.683 360.958 64.0621C359.683 59.1926 358.494 55.4125 358.073 54.4286Z" fill="#D97556"/>
<path d="M362.975 70.9377C372.434 76.1921 383.702 71.8138 386.183 69.1869C386.884 68.5403 405.89 92.045 416.837 103.845C409.247 139.022 393.804 212.353 392.753 224.263C368.232 233.02 354.275 221.117 350.626 213.819C350.772 200.682 351.505 172.505 351.154 166.9C350.716 159.894 335.828 146.758 335.828 144.13C356.497 111.552 349.401 84.9504 341.519 76.1929C347.358 74.7332 358.422 71.989 362.975 70.9377Z" fill="#79B34C"/>
<path d="M425.941 212.505C404.047 232.647 367.265 232.647 355.971 219.88C399.23 219.88 392.313 98.5244 378.301 72.689C382.504 71.9881 385.307 70.0614 386.183 69.1853C386.183 69.1853 410.266 72.689 419.026 84.5734C416.253 121.94 428.394 194.289 425.941 212.505Z" fill="#79B34C"/>
<path d="M470.363 434.205L471.135 266.23L449.679 270.171L463.872 434.469C464.017 436.155 465.424 437.446 467.112 437.446C468.902 437.446 470.355 435.994 470.363 434.205Z" fill="#445DB1"/>
<path d="M471.135 266.23L449.679 270.171L455.05 332.351H470.831L471.135 266.23Z" fill="#475EAF"/>
<path d="M325.356 430.62L321.379 277.617L338.894 285.937L329.475 430.701C329.405 431.786 328.504 432.629 327.418 432.629C326.3 432.629 325.386 431.735 325.356 430.62Z" fill="#445DB1"/>
<path d="M321.379 277.617L338.894 285.937L336.273 326.223H322.642L321.379 277.617Z" fill="#475EAF"/>
<path d="M383.433 448.831L372.611 296.882H398.445L387.19 448.831C387.117 449.821 386.298 450.576 385.312 450.576C384.323 450.576 383.503 449.814 383.433 448.831Z" fill="#445DB1"/>
<path d="M372.611 296.882H398.445L395.851 331.913H375.106L372.611 296.882Z" fill="#475EAF"/>
<path d="M410.545 409.425L399.759 292.506H425.595L414.376 409.432C414.281 410.422 413.452 411.169 412.461 411.169C411.467 411.169 410.636 410.414 410.545 409.425Z" fill="#445DB1"/>
<path d="M399.759 292.506H425.595L421.477 335.419H403.718L399.759 292.506Z" fill="#475EAF"/>
<path d="M454.933 115.076C400.635 111.573 369.544 119.541 369.544 128.299C375.676 163.329 407.641 221.147 351.592 240.396C326.257 249.097 304.51 276.054 321.816 297.322C359.568 306.538 447.225 320.105 470.695 298.885C493.325 262.533 488.649 196.458 488.649 155.886C486.553 139.684 490.839 117.392 454.933 115.076Z" fill="#5F78DB"/>
<path d="M351.592 240.397C407.641 221.147 375.676 163.33 369.545 128.299C369.545 126.898 370.34 125.517 371.901 124.2C385.341 147.961 402.326 207.581 381.798 228.109C356.138 253.769 310.222 260.228 321.816 297.321C304.511 276.054 326.258 249.097 351.592 240.397Z" fill="#455EB3"/>
<path d="M454.933 115.076C400.636 111.573 369.545 119.541 369.545 128.299C455.934 108.999 483.43 130.487 487.995 148.484C488.174 151.027 488.344 153.521 488.649 155.886C488.833 153.578 488.65 151.067 487.995 148.484C486.949 133.603 485.599 117.054 454.933 115.076Z" fill="#455EB3"/>
<path d="M356.231 148.546C368.831 103.971 353.683 80.7434 345.021 75.3152C331.515 77.4479 330.887 125.379 330.779 147.566L351.255 172.087C353 165.306 354.403 157.22 356.231 148.546Z" fill="#74AC48"/>
<path d="M227.314 120.704C219.129 133.708 242.966 147.086 255.908 152.15C259.433 154.263 265.637 157.955 273.588 162.638L278.704 147.597C273.879 145.37 270.158 143.339 268.114 141.714C261.491 128.511 234.987 108.513 227.314 120.704Z" fill="#FBA186"/>
<path d="M352.732 148.547C365.332 103.972 350.183 81.6206 341.521 76.1924C331.354 78.8522 327.79 150.093 327.133 157.959C326.606 164.252 325.469 164.507 323.691 163.838C303.085 157.881 280.32 149.223 270.861 143.565L263.762 156.83C274.795 163.375 292.874 174.006 312.56 185.307C345.058 203.963 346.066 180.163 352.732 148.547Z" fill="#79B34C"/>
<path d="M263.76 156.83L270.859 143.565C272.258 144.401 273.947 145.304 275.877 146.253L268.823 159.827C267.006 158.753 265.313 157.751 263.76 156.83Z" fill="#74AC48"/>
<path d="M273.83 150.193L270.859 143.564L267.31 150.197L263.76 156.829L270.859 155.448L267.31 150.197L273.83 150.193Z" fill="white"/>
<path d="M385.22 48.299L355.006 52.6782C353.684 52.8318 352.588 53.8291 350.435 53.0031C343.115 50.195 342.842 30.598 343.621 21.1505C344.166 14.5322 345.345 8.34675 353.665 4.84377C361.985 1.34078 401.859 4.9487 385.22 48.299Z" fill="#FBA186"/>
<path d="M352.379 32.5342C356.758 31.2204 359.385 28.5935 360.699 27.2797C352.642 25.1777 349.168 31.0744 348.438 34.2856C349.168 33.9938 350.628 33.0598 352.379 32.5342Z" fill="#FB8F67"/>
<path d="M367.266 43.9202C366.682 46.1093 364.814 50.7509 362.011 51.8015C364.201 51.3638 367.704 49.6123 367.266 43.9202Z" fill="#D97556"/>
<path d="M381.714 49.174C381.714 51.276 384.049 51.5091 385.217 51.3632C385.655 50.4871 386.092 48.7364 387.844 47.4226C391.93 44.3573 393.828 42.1681 395.288 39.9789C401.418 30.7837 396.602 18.0849 388.282 10.2028C365.074 -8.1882 354.565 3.63453 353.689 4.94834C355.003 8.0129 356.317 7.13751 358.068 7.13751C358.068 9.76439 360.257 9.76439 361.571 9.76439C360.257 12.392 362.885 13.7058 365.074 14.5812C364.199 18.0842 366.826 18.9603 367.702 19.398C366.388 22.901 369.015 24.2148 370.329 24.6524C368.139 29.0315 369.891 29.9077 370.329 29.4692C382.59 21.5872 384.341 40.465 375.583 44.3573C371.642 46.1095 376.459 46.9849 377.773 47.4226C378.648 50.0502 380.4 49.6117 381.714 49.174Z" fill="#211E50"/>
<path d="M381.714 49.1742C381.714 51.2761 384.05 51.5093 385.217 51.3634C385.655 50.4873 386.092 48.7365 387.844 47.4227C391.93 44.3574 393.828 42.1682 395.288 39.979C398.766 34.7619 398.721 28.4165 396.51 22.4634L389.595 38.2276V33.8484C386.968 36.9137 381.714 44.2694 381.714 49.1742Z" fill="#1B1845"/>
<path d="M353.693 4.94834C355.006 8.0129 356.32 7.13751 358.072 7.13751C361.137 2.75842 371.646 3.63454 375.587 3.63454C379.791 12.7424 387.212 13.2681 390.398 12.392C389.724 11.6288 389.019 10.8971 388.285 10.2028C365.078 -8.1882 354.569 3.63453 353.693 4.94834Z" fill="#1B1845"/>
<path d="M395.386 19.8382C393.652 16.2766 391.18 12.9489 388.284 10.2039C388.284 7.57707 390.035 8.01474 390.911 8.01474C392.312 4.8622 394.478 6.11738 395.386 7.13939C396.667 9.47447 399.493 14.7583 400.544 17.2107C399.669 20.7136 398.355 19.3998 397.041 18.5244C397.041 20.2759 395.938 20.13 395.386 19.8382Z" fill="#211E50"/>
<path d="M390.911 8.01474C392.312 4.8622 394.479 6.11738 395.386 7.13939C395.809 7.90919 396.4 9.00011 397.039 10.2039L389.16 8.17387C389.726 7.89014 390.443 8.01474 390.911 8.01474Z" fill="#1B1845"/>
<path d="M395.384 7.1394C396.666 9.47522 399.492 14.759 400.543 17.2107C400.477 17.4724 399.737 18.7525 399.666 18.9621C406.672 22.1147 405.9 31.8736 404.483 36.4771C400.98 47.8621 380.236 67.3962 372.08 70.4857C323.874 85.8818 329.742 119.607 334.141 156.264C333.042 118.507 340.74 100.056 346.238 95.7793C341.717 102.867 331.281 123.639 338.54 152.598C338.54 124.006 346.238 106.777 350.271 99.0785C347.949 104.088 343.306 114.108 344.405 127.671C354.669 101.571 375.931 91.4046 382.163 89.906C410.632 83.0606 448.135 50.6034 432.946 23.3413C419.284 -1.18037 402.212 2.32262 395.384 7.1394Z" fill="#030303"/>
<path d="M395.384 7.13647C396.666 9.47229 399.492 14.7561 400.543 17.2077C400.477 17.4695 399.737 18.7496 399.666 18.9593C406.672 22.1118 405.9 31.8707 404.483 36.4741C400.98 47.8592 380.236 67.3932 372.08 70.4827C323.874 85.8789 329.742 119.604 334.141 156.261C333.042 118.504 340.74 100.053 346.238 95.7764C341.717 102.864 331.281 123.636 338.54 152.595C338.54 124.003 346.238 106.774 350.271 99.0755C347.949 104.085 343.306 114.105 344.405 127.668C354.669 101.568 375.931 91.4017 382.163 89.9031C410.632 83.0577 448.135 50.6005 432.946 23.3383C419.284 -1.1833 402.212 2.31969 395.384 7.13647Z" fill="#211E50"/>
<path d="M397.478 5.88482C402.406 3.37745 410.312 2.1025 418.601 7.13923C416.231 8.49263 408.688 10.1363 397.478 5.88482Z" fill="#1B1845"/>
<path d="M435.716 30.3469C441.778 55.4331 408.982 81.7568 383.03 89.2078C419.812 72.1907 433.48 42.8764 435.716 30.3469Z" fill="#1B1845"/>
<path fill-rule="evenodd" clip-rule="evenodd" d="M527 25.4518C530.525 28.8067 532.126 33.3639 532.126 36.0326V140.628H534.545V36.0326C534.545 32.6557 532.638 27.479 528.667 23.6996C524.616 19.844 518.436 17.4619 510.042 19.7516L510.678 22.0845C518.246 20.0206 523.554 22.1731 527 25.4518Z" fill="#445DB1"/>
<path d="M534.545 140.628V36.0326C534.545 32.6557 532.638 27.479 528.667 23.6996C524.616 19.844 518.436 17.4619 510.042 19.7516L510.36 20.918C526.684 16.0807 533.335 31.8001 533.335 36.0326V140.628H534.545Z" fill="#5E78DB"/>
<path d="M540.965 137.785H504.366V143.168H540.965V137.785Z" fill="#445DB1"/>
<path d="M507.337 11.2435L515.196 16.0801L507.337 31.8003L495.849 25.1492L507.337 11.2435Z" fill="#5E78DB"/>
<path d="M506.128 31.1014L513.384 14.9655L511.267 13.6635L504.314 30.5919L506.128 31.1014Z" fill="#445DB1"/>
<path d="M472.271 51.1502L498.874 66.267C510.967 47.8877 510.36 34.419 508.546 29.9849C507.941 29.3801 504.315 26.7187 497.06 23.3338C487.387 22.1248 476.705 40.6705 472.271 51.1502Z" fill="#5E78DB"/>
<path d="M498.875 57.7967C506.132 47.1557 508.346 34.822 508.546 29.9847C508.256 29.6951 507.271 28.9319 505.523 27.8424C506.007 33.3835 497.663 48.1052 493.432 54.7731C494.237 55.1764 496.455 56.345 498.875 57.7967Z" fill="#445DB1"/>
<path d="M126.932 138.9H98.9361V142.551H126.932V138.9Z" fill="#74AC48"/>
<path fill-rule="evenodd" clip-rule="evenodd" d="M90.6442 120.49C89.345 121.789 88.9836 123.467 89.2212 124.895C89.6713 127.595 91.8774 129.317 93.8283 130.273C95.8078 131.245 98.1245 131.735 99.714 131.586L99.3716 127.951C98.6194 128.021 96.9808 127.753 95.4368 126.995C93.8656 126.224 92.9822 125.248 92.8231 124.295C92.7571 123.897 92.8517 123.446 93.2264 123.072C93.612 122.686 94.5225 122.161 96.4998 122.161V118.509C93.9126 118.509 91.9323 119.201 90.6442 120.49Z" fill="#74AC48"/>
<path d="M131.192 116.989H95.8928V121.249C95.8928 130.997 103.795 138.898 113.543 138.898C123.29 138.898 131.192 130.997 131.192 121.249V116.989Z" fill="#79B34C"/>
<path d="M95.8906 121.249V116.989H105.628C104.897 133.543 110.598 138.492 113.54 138.898C103.792 138.898 95.8906 130.997 95.8906 121.249Z" fill="#79B34C"/>
<path fill-rule="evenodd" clip-rule="evenodd" d="M117.36 105.64C117.493 106.432 117.308 107.558 116.271 109.187C115.382 110.584 115.256 111.694 115.559 112.529C115.857 113.351 116.539 113.813 117.073 113.991L117.305 113.296C116.927 113.169 116.452 112.84 116.249 112.279C116.049 111.729 116.075 110.861 116.89 109.58C117.984 107.861 118.256 106.553 118.084 105.52C117.911 104.489 117.309 103.812 116.84 103.342L116.321 103.861C116.766 104.305 117.228 104.844 117.36 105.64Z" fill="#79B34C"/>
<path fill-rule="evenodd" clip-rule="evenodd" d="M113.114 101.102C112.747 99.4615 111.65 97.8984 110.764 96.9592L110.231 97.4629C111.069 98.35 112.071 99.7995 112.399 101.262C112.562 101.988 112.554 102.697 112.299 103.341C112.046 103.981 111.535 104.594 110.622 105.107C109.594 105.686 108.944 106.388 108.596 107.162C108.249 107.935 108.219 108.746 108.373 109.516C108.677 111.039 109.704 112.455 110.543 113.294L111.061 112.775C110.276 111.991 109.356 110.699 109.092 109.372C108.961 108.717 108.993 108.067 109.265 107.462C109.536 106.858 110.062 106.264 110.981 105.747C112.016 105.165 112.656 104.431 112.981 103.61C113.304 102.794 113.299 101.929 113.114 101.102Z" fill="#79B34C"/>
</svg>
