<svg width="147" height="38" viewBox="0 0 147 38" fill="none" xmlns="http://www.w3.org/2000/svg">
<rect width="38" height="38" rx="19" fill="#F77E53"/>
<path d="M16.944 29.168C16.496 29.168 15.964 29.1213 15.348 29.028C14.7507 28.9347 14.172 28.7387 13.612 28.44C13.052 28.1227 12.5853 27.6467 12.212 27.012C11.8387 26.3587 11.652 25.4813 11.652 24.38V13.208C11.652 12.2373 11.8013 11.4253 12.1 10.772C12.4173 10.1187 12.8093 9.61467 13.276 9.26C13.7613 8.88667 14.3027 8.62533 14.9 8.476C15.4973 8.308 16.076 8.224 16.636 8.224C18.1293 8.224 19.4267 8.252 20.528 8.308C21.6293 8.34533 22.6 8.392 23.44 8.448C24.28 8.504 25.036 8.56 25.708 8.616V12.704H18.092C17.588 12.704 17.196 12.8253 16.916 13.068C16.636 13.292 16.496 13.656 16.496 14.16V16.456L24.336 16.736V20.544L16.496 20.796V22.98C16.496 23.3907 16.5613 23.7173 16.692 23.96C16.8227 24.184 17 24.352 17.224 24.464C17.448 24.576 17.6907 24.632 17.952 24.632H25.708V28.692C24.8867 28.7853 23.972 28.8693 22.964 28.944C21.956 29.0187 20.9293 29.0653 19.884 29.084C18.8573 29.1213 17.8773 29.1493 16.944 29.168Z" fill="white"/>
<path d="M48.856 27.12C48.472 27.12 48.032 27.08 47.536 27C47.04 26.936 46.56 26.776 46.096 26.52C45.648 26.264 45.272 25.88 44.968 25.368C44.68 24.84 44.536 24.12 44.536 23.208V13.296C44.536 12.512 44.656 11.856 44.896 11.328C45.136 10.8 45.456 10.384 45.856 10.08C46.256 9.776 46.696 9.56 47.176 9.432C47.656 9.304 48.128 9.24 48.592 9.24C49.792 9.24 50.848 9.256 51.76 9.288C52.688 9.32 53.52 9.36 54.256 9.408C54.992 9.44 55.664 9.488 56.272 9.552V12.528H49.648C49.152 12.528 48.768 12.648 48.496 12.888C48.224 13.128 48.088 13.496 48.088 13.992V16.56L55.12 16.752V19.56L48.088 19.752V22.2C48.088 22.616 48.152 22.944 48.28 23.184C48.424 23.408 48.608 23.568 48.832 23.664C49.072 23.744 49.32 23.784 49.576 23.784H56.272V26.76C55.568 26.84 54.784 26.904 53.92 26.952C53.072 27 52.208 27.04 51.328 27.072C50.464 27.104 49.64 27.12 48.856 27.12ZM62.6723 27.144C61.6643 27.144 60.8163 26.936 60.1283 26.52C59.4403 26.088 58.9203 25.4 58.5683 24.456C58.2323 23.496 58.0643 22.24 58.0643 20.688C58.0643 19.088 58.2083 17.792 58.4963 16.8C58.8003 15.808 59.3043 15.08 60.0083 14.616C60.7123 14.152 61.6803 13.92 62.9123 13.92C63.5043 13.92 64.0883 13.984 64.6643 14.112C65.2403 14.224 65.7523 14.36 66.2003 14.52V8.688H69.7763V27H66.7763L66.2003 25.776C65.9283 26.032 65.5923 26.264 65.1923 26.472C64.8083 26.68 64.4003 26.848 63.9683 26.976C63.5363 27.088 63.1043 27.144 62.6723 27.144ZM63.9203 24.288C64.4003 24.288 64.8323 24.208 65.2163 24.048C65.6163 23.888 65.9443 23.728 66.2003 23.568V17.088C65.8803 16.976 65.5443 16.864 65.1923 16.752C64.8403 16.64 64.4643 16.584 64.0643 16.584C63.4723 16.584 62.9923 16.688 62.6243 16.896C62.2723 17.104 62.0163 17.496 61.8563 18.072C61.6963 18.632 61.6163 19.448 61.6163 20.52C61.6163 21.512 61.6883 22.288 61.8323 22.848C61.9923 23.392 62.2403 23.768 62.5763 23.976C62.9123 24.184 63.3603 24.288 63.9203 24.288ZM75.8485 27.144C74.6965 27.144 73.7925 26.808 73.1365 26.136C72.4805 25.448 72.1525 24.48 72.1525 23.232V14.112H75.7045V22.176C75.7045 22.896 75.8725 23.384 76.2085 23.64C76.5605 23.88 77.0165 24 77.5765 24C78.0245 24 78.4805 23.92 78.9445 23.76C79.4245 23.584 79.8485 23.352 80.2165 23.064V14.112H83.7925V27H80.8405L80.2165 25.68C79.6405 26.064 78.9765 26.408 78.2245 26.712C77.4725 27 76.6805 27.144 75.8485 27.144ZM90.9139 27.144C90.5139 27.144 90.0819 27.128 89.6179 27.096C89.1539 27.08 88.6899 27.048 88.2259 27C87.7619 26.952 87.3299 26.896 86.9299 26.832C86.5299 26.752 86.1939 26.664 85.9219 26.568V24.48H91.6339C91.9699 24.48 92.2419 24.456 92.4499 24.408C92.6739 24.344 92.8339 24.24 92.9299 24.096C93.0419 23.936 93.0979 23.712 93.0979 23.424V23.016C93.0979 22.696 92.9939 22.448 92.7859 22.272C92.5779 22.096 92.1939 22.008 91.6339 22.008H89.6179C88.8819 22.008 88.2179 21.896 87.6259 21.672C87.0339 21.448 86.5619 21.08 86.2099 20.568C85.8739 20.056 85.7059 19.368 85.7059 18.504V17.76C85.7059 16.944 85.8659 16.256 86.1859 15.696C86.5059 15.136 87.0419 14.712 87.7939 14.424C88.5459 14.136 89.5779 13.992 90.8899 13.992C91.4179 13.992 91.9779 14.024 92.5699 14.088C93.1779 14.136 93.7459 14.208 94.2739 14.304C94.8179 14.384 95.2499 14.48 95.5699 14.592V16.68H90.1699C89.7059 16.68 89.3539 16.76 89.1139 16.92C88.8739 17.064 88.7539 17.344 88.7539 17.76V18.144C88.7539 18.432 88.8099 18.648 88.9219 18.792C89.0339 18.92 89.2019 19.016 89.4259 19.08C89.6659 19.128 89.9619 19.152 90.3139 19.152H92.3779C93.6899 19.152 94.6419 19.456 95.2339 20.064C95.8419 20.656 96.1459 21.48 96.1459 22.536V23.688C96.1459 24.552 95.9379 25.24 95.5219 25.752C95.1219 26.248 94.5299 26.608 93.7459 26.832C92.9779 27.04 92.0339 27.144 90.9139 27.144ZM98.1111 27V8.712H101.663V15.432C102.127 15.048 102.727 14.696 103.463 14.376C104.215 14.056 104.983 13.896 105.767 13.896C106.743 13.896 107.519 14.088 108.095 14.472C108.671 14.856 109.087 15.392 109.343 16.08C109.599 16.768 109.727 17.568 109.727 18.48V27H106.175V18.936C106.175 18.52 106.095 18.176 105.935 17.904C105.775 17.632 105.559 17.432 105.287 17.304C105.015 17.16 104.695 17.088 104.327 17.088C103.991 17.088 103.663 17.136 103.343 17.232C103.039 17.312 102.743 17.424 102.455 17.568C102.183 17.712 101.919 17.872 101.663 18.048V27H98.1111ZM114.881 27.144C113.905 27.144 113.113 26.856 112.505 26.28C111.897 25.704 111.593 24.904 111.593 23.88V22.728C111.593 21.752 111.937 20.952 112.625 20.328C113.313 19.688 114.385 19.368 115.841 19.368H119.129V18.48C119.129 18.08 119.057 17.752 118.913 17.496C118.769 17.224 118.497 17.032 118.097 16.92C117.713 16.792 117.121 16.728 116.321 16.728H112.457V14.664C113.081 14.472 113.801 14.304 114.617 14.16C115.449 14.016 116.449 13.944 117.617 13.944C118.689 13.944 119.601 14.072 120.353 14.328C121.121 14.584 121.697 15.024 122.081 15.648C122.481 16.272 122.681 17.136 122.681 18.24V27H119.873L119.297 25.632C119.185 25.76 118.993 25.904 118.721 26.064C118.449 26.224 118.113 26.392 117.713 26.568C117.329 26.728 116.889 26.864 116.393 26.976C115.913 27.088 115.409 27.144 114.881 27.144ZM116.681 24.672C116.841 24.672 117.017 24.656 117.209 24.624C117.417 24.576 117.625 24.528 117.833 24.48C118.057 24.416 118.257 24.36 118.433 24.312C118.625 24.248 118.777 24.192 118.889 24.144C119.017 24.096 119.097 24.064 119.129 24.048V21.048L116.969 21.192C116.345 21.24 115.881 21.4 115.577 21.672C115.289 21.944 115.145 22.312 115.145 22.776V23.304C115.145 23.624 115.209 23.888 115.337 24.096C115.481 24.304 115.665 24.456 115.889 24.552C116.129 24.632 116.393 24.672 116.681 24.672ZM125.1 27V14.112H127.836L128.652 16.08C129.116 15.488 129.636 14.984 130.212 14.568C130.804 14.152 131.5 13.944 132.3 13.944C132.476 13.944 132.652 13.952 132.828 13.968C133.02 13.984 133.196 14.016 133.356 14.064V17.712C133.116 17.68 132.86 17.656 132.588 17.64C132.332 17.608 132.084 17.592 131.844 17.592C131.38 17.592 130.956 17.648 130.572 17.76C130.204 17.856 129.86 18.008 129.54 18.216C129.236 18.408 128.94 18.664 128.652 18.984V27H125.1ZM140.432 27.12C139.008 27.12 137.872 26.936 137.024 26.568C136.176 26.184 135.56 25.512 135.176 24.552C134.808 23.592 134.624 22.264 134.624 20.568C134.624 18.824 134.8 17.472 135.152 16.512C135.504 15.552 136.096 14.88 136.928 14.496C137.76 14.112 138.888 13.92 140.312 13.92C141.592 13.92 142.616 14.048 143.384 14.304C144.152 14.56 144.704 15.008 145.04 15.648C145.392 16.288 145.568 17.192 145.568 18.36C145.568 19.224 145.392 19.912 145.04 20.424C144.704 20.92 144.224 21.28 143.6 21.504C142.976 21.712 142.24 21.816 141.392 21.816H138.152C138.184 22.472 138.28 23 138.44 23.4C138.616 23.784 138.928 24.064 139.376 24.24C139.84 24.4 140.504 24.48 141.368 24.48H145.136V26.568C144.512 26.696 143.824 26.824 143.072 26.952C142.336 27.064 141.456 27.12 140.432 27.12ZM138.104 19.704H141.032C141.512 19.704 141.864 19.608 142.088 19.416C142.312 19.224 142.424 18.88 142.424 18.384C142.424 17.92 142.352 17.552 142.208 17.28C142.064 16.992 141.84 16.792 141.536 16.68C141.232 16.552 140.824 16.488 140.312 16.488C139.768 16.488 139.336 16.584 139.016 16.776C138.696 16.952 138.464 17.272 138.32 17.736C138.176 18.2 138.104 18.856 138.104 19.704Z" fill="#0F1130"/>
</svg>
